<?xml version="1.0" encoding="UTF-8"?>
<!DOCTYPE svg PUBLIC "-//W3C//DTD SVG 1.1//EN" "http://www.w3.org/Graphics/SVG/1.1/DTD/svg11.dtd">
<!-- Creator: CorelDRAW 2019 (64-Bit) -->
<svg xmlns="http://www.w3.org/2000/svg" xml:space="preserve" width="50px" height="50px" version="1.1" style="shape-rendering:geometricPrecision; text-rendering:geometricPrecision; image-rendering:optimizeQuality; fill-rule:evenodd; clip-rule:evenodd"
viewBox="0 0 50 50"
 xmlns:xlink="http://www.w3.org/1999/xlink">
 <defs>
  <style type="text/css">
   <![CDATA[
    .fil0 {fill:black}
    .fil1 {fill:#FECC00}
   ]]>
  </style>
 </defs>
 <g id="Слой_x0020_1">
  <metadata id="CorelCorpID_0Corel-Layer"/>
  <g id="_1700260344560">
   <g id="_1700200047040">
    <path class="fil0" d="M8.46 0.62l32.46 0c4.67,0 8.46,4.74 8.46,10.58l0 28.21c0,5.85 -3.79,10.59 -8.46,10.59l-32.46 0c-4.67,0 -8.46,-4.74 -8.46,-10.59l0 -28.21c0,-5.84 3.79,-10.58 8.46,-10.58z"/>
    <path class="fil1" d="M28.83 9.39c-1.03,0.26 -1.82,0.73 -2.82,1.65 -0.73,0.67 -0.73,0.66 0.2,1.06 1.35,0.6 2.36,1.3 3.2,2.21 0.52,0.58 0.36,0.53 -0.67,-0.2 -0.81,-0.59 -2.18,-1.34 -3.08,-1.7 -0.51,-0.21 -1.78,-0.3 -2.17,-0.15l-0.29 0.11 0.66 0.33c1.24,0.63 1.83,1.26 2.09,2.27 0.22,0.83 -0.09,1.44 -2.01,3.95 -2.62,3.43 -3.58,4.82 -4.68,6.78 -1.73,3.06 -2.95,6.67 -2.93,8.67l0 0.27 0.14 -0.25c1.85,-3.12 1.94,-3.26 3.46,-5.16 1.25,-1.57 4.27,-4.48 4.45,-4.31 0.02,0.03 -0.21,0.35 -0.52,0.73 -1.31,1.64 -2.53,3.76 -3.03,5.26 -0.31,0.94 -0.56,2.11 -0.48,2.25 0.03,0.06 0.72,1.09 1.53,2.3l1.45 2.19 -11.05 0 0 1.19 25.17 0 0.57 0.33c3.5,2.01 3.8,2.16 4.24,2.18 0.72,0.02 0.55,-0.13 -1.48,-1.28 -1.05,-0.59 -1.92,-1.11 -1.92,-1.16 -0.01,-0.03 1.42,-0.07 3.15,-0.07l3.17 0 0 -1.19 -11.38 0 -0.71 -0.51c-0.83,-0.62 -3.48,-2.49 -3.99,-2.83 -0.33,-0.22 -0.4,-0.22 -0.9,-0.12 -0.3,0.06 -0.77,0.11 -1.05,0.11 -0.45,0 -0.48,0.01 -0.28,0.12 0.23,0.12 0.62,0.38 3.04,1.92 0.76,0.48 1.54,0.97 1.73,1.1l0.35 0.21 -7.45 0 -0.68 -1.04c-0.37,-0.57 -0.97,-1.5 -1.32,-2.05 -0.79,-1.2 -0.84,-1.1 0.51,-0.95 10.07,1.11 17.28,-6.85 14.58,-16.11 -1.58,-5.4 -5.44,-8.96 -8.8,-8.11l0 0 0 0 0 0zm3.03 2.5c0.23,0.26 0.22,0.56 -0.04,0.84 -0.54,0.57 -1.43,-0.08 -1.06,-0.77 0.22,-0.41 0.78,-0.45 1.1,-0.07l0 0 0 0zm-14.55 16.02c-0.08,0.08 -1.17,0.79 -2.42,1.6 -1.25,0.8 -3.03,1.95 -3.95,2.56 -0.92,0.6 -1.89,1.23 -2.14,1.39 -1.54,0.95 -4.53,2.94 -4.59,3.03 -0.05,0.08 0.64,0.1 2.45,0.05l2.52 -0.05 0.78 -0.48c5.32,-3.32 5.92,-3.72 5.94,-3.97 0.03,-0.37 0.74,-2.32 1.19,-3.26 0.43,-0.92 0.48,-1.12 0.22,-0.87l0 0 0 0 0 0z"/>
   </g>
  </g>
 </g>
</svg>
