<?xml version="1.0" encoding="UTF-8"?>
<!DOCTYPE svg PUBLIC "-//W3C//DTD SVG 1.1//EN" "http://www.w3.org/Graphics/SVG/1.1/DTD/svg11.dtd">
<!-- Creator: CorelDRAW 2019 (64-Bit) -->
<svg xmlns="http://www.w3.org/2000/svg" xml:space="preserve" width="101px" height="101px" version="1.1" style="shape-rendering:geometricPrecision; text-rendering:geometricPrecision; image-rendering:optimizeQuality; fill-rule:evenodd; clip-rule:evenodd"
viewBox="0 0 101 101"
 xmlns:xlink="http://www.w3.org/1999/xlink">
 <defs>
  <style type="text/css">
   <![CDATA[
    .fil1 {fill:#FEFEFE}
    .fil4 {fill:#FCC962}
    .fil5 {fill:#F6BAB8}
    .fil6 {fill:#EE7771}
    .fil2 {fill:#E3EAEF}
    .fil3 {fill:#D0DC74}
    .fil7 {fill:#9EA3A6}
    .fil0 {fill:#211D21}
   ]]>
  </style>
 </defs>
 <g id="Слой_x0020_1">
  <metadata id="CorelCorpID_0Corel-Layer"/>
  <g id="_2980180400064">
   <path class="fil0" d="M52.31 5.87l0 37.89 0.36 1.16c0,0.01 0.01,0.03 0.01,0.05l0.74 1.35c0.11,0.14 0.17,0.23 0.28,0.35 0.01,0.01 0.02,0.02 0.03,0.03l0.09 0.1c0.01,0.01 0.02,0.02 0.03,0.03l0.28 0.29c0.33,0.29 0.81,0.69 1.28,0.94l1.83 0.63 37.76 0 1.86 -0.61c0.07,-0.03 0.09,-0.04 0.13,-0.06l1.17 -0.86c0.01,-0.01 0.05,-0.05 0.06,-0.06l0.07 -0.06c0.43,-0.41 0.76,-0.89 1.07,-1.4l0.64 -1.8 0 -3.26 0 -0.05 0 -33.11c-0.01,-1.1 -0.02,-1.77 -0.04,-1.82l-0.22 -0.73c-0.3,-0.71 -0.63,-1.36 -1.16,-1.95 -0.01,-0.01 -0.02,-0.02 -0.03,-0.03 -0.01,-0.01 -0.02,-0.02 -0.03,-0.03l-0.38 -0.38c-0.58,-0.54 -1.24,-0.91 -1.96,-1.2l-0.53 -0.17c-0.27,-0.06 -0.18,-0.1 -0.42,-0.11l-1.72 0 -0.02 0 -34.71 0c-1.14,0.01 -1.82,0.02 -1.87,0.04 -0.71,0.23 -1.35,0.48 -1.99,0.86 -0.17,0.11 -0.33,0.22 -0.48,0.35 -0.08,0.07 -0.1,0.11 -0.19,0.18l-0.63 0.64c-0.25,0.25 -0.43,0.6 -0.61,0.91 -0.01,0.01 -0.04,0.06 -0.05,0.07l-0.26 0.56c-0.07,0.2 -0.01,0.08 -0.1,0.28l-0.29 0.98z"/>
   <path class="fil0" d="M47.69 96l0 -37.76 -0.26 -0.94c-0.19,-0.46 -0.37,-0.89 -0.64,-1.31 -0.04,-0.05 -0.04,-0.07 -0.08,-0.12l-1.36 -1.42c-0.06,-0.05 -0.12,-0.09 -0.18,-0.14 -0.38,-0.25 -0.77,-0.48 -1.2,-0.63 -0.29,-0.09 -0.98,-0.37 -1.21,-0.37l-37.76 0 -0.98 0.22c-0.12,0.04 -0.16,0.09 -0.31,0.14l-0.28 0.1c0,0 -0.08,0.05 -0.12,0.07l-1.92 1.43c0,0.01 -0.02,0.03 -0.03,0.04 -0.01,0.01 -0.02,0.02 -0.03,0.03l-0.38 0.5c-0.11,0.17 -0.2,0.34 -0.31,0.51l-0.61 1.6c-0.01,0.04 -0.02,0.33 -0.03,0.82l0 37.25 0.1 0.58c0.01,0.01 0.01,0.03 0.01,0.05l0.34 0.93c0.35,0.68 0.56,1.05 1.09,1.63 0.42,0.46 0.95,0.92 1.53,1.19l1.34 0.49c0.17,0.04 0.25,0.09 0.43,0.11l8.32 0 0.41 0 0.41 0 0.41 0 0.41 0 0.41 0 0.41 0 0.41 0 0.41 0 0.42 0 0.41 0 0.41 0 0.41 0 0.41 0 0.41 0 0.41 0 0.41 0 0.42 0 0.41 0 0.41 0 0.41 0 0.41 0 0.41 0 0.41 0 0.41 0 0.41 0 0.42 0 0.41 0 0.41 0 0.41 0 0.41 0 0.41 0 0.41 0 0.41 0 0.42 0 0.41 0 0.41 0 0.41 0 0.41 0 0.41 0 0.41 0 0.41 0 0.41 0 0.41 0 0.42 0 0.41 0 0.41 0 0.41 0 0.41 0 0.41 0 0.41 0 0.41 0 0.41 0 0.42 0 0.41 0 0.41 0 0.41 0 0.41 0 0.41 0 0.41 0 0.41 0 0.42 0 0.41 0 0.41 0 0.41 0 3.28 0c0.18,-0.02 0.33,-0.04 0.43,-0.08 0.02,0 0.03,-0.01 0.05,-0.02l0.62 -0.2c0.07,-0.02 0.13,-0.03 0.2,-0.06 0.21,-0.07 0.09,-0.03 0.26,-0.11l1.48 -0.99c0.03,-0.03 0.05,-0.05 0.09,-0.09l1.18 -1.54c0.01,-0.02 0.02,-0.03 0.03,-0.05l0.34 -0.79c0.1,-0.24 0.03,-0.08 0.08,-0.36 0.05,-0.29 0.18,-0.36 0.18,-0.71z"/>
   <path class="fil0" d="M52.31 58.24l0 37.89 0.65 1.82c0,0 0.06,0.09 0.07,0.11 0.03,0.06 0.04,0.07 0.07,0.12 0.65,1.06 1.7,2.08 2.9,2.48l0.82 0.26c0.1,0.04 0.28,0.06 0.51,0.08l3.27 0 0.51 0 0.51 0 0.52 0 0.51 0 0.52 0 0.51 0 0.51 0 0.52 0 0.51 0 0.51 0 0.52 0 0.51 0 0.52 0 0.51 0 0.51 0 0.52 0 0.51 0 0.52 0 0.51 0 0.51 0 0.52 0 0.51 0 0.52 0 0.51 0 0.51 0 0.52 0 0.51 0 0.51 0 0.52 0 0.51 0 0.52 0 0.51 0 0.51 0 0.52 0 0.51 0 0.52 0 0.51 0 0.51 0 0.52 0 0.51 0 0.52 0 0.51 0 0.51 0 0.52 0 0.51 0 0.52 0 0.51 0 0.51 0 0.52 0 0.51 0 0.52 0 0.51 0 0.51 0 0.52 0 0.51 0 0.52 0 0.51 0 0.51 0 0.52 0 0.51 0 0.51 0 0.52 0 0.51 0 0.52 0 1.72 0c0.08,-0.02 0.16,-0.04 0.24,-0.06 0.02,-0.01 -0.01,-0.01 0.14,-0.05l1.88 -0.84 1.02 -0.88c0.36,-0.39 0.7,-0.8 0.92,-1.29 0.18,-0.38 0.39,-0.77 0.46,-1.18 0.02,-0.1 0.01,-0.07 0.03,-0.16 0.05,-0.17 0.08,-0.34 0.1,-0.51l0 -1.67 0 -32.89 0 -0.05 0 -3.26 -0.37 -1.25c-0.26,-0.7 -0.71,-1.3 -1.21,-1.83l-0.16 -0.15c-0.02,-0.02 -0.05,-0.05 -0.07,-0.07l-0.19 -0.18c-0.37,-0.33 -0.82,-0.61 -1.27,-0.82l-0.25 -0.13c-0.31,-0.13 -1.2,-0.42 -1.48,-0.42l-37.76 0c-0.22,0 -0.23,0.07 -0.43,0.13l-1.4 0.5c-0.64,0.33 -1.2,0.83 -1.68,1.36l-1.14 1.96 -0.28 0.98z"/>
   <path class="fil1" d="M30.61 2.9l-4.74 0.02c-0.19,0.25 0.04,0.14 -0.21,0.8 -0.21,0.57 -0.01,0.22 -0.4,0.59 -0.91,0.83 -2.02,0.82 -2.83,0 -0.41,-0.4 -0.46,-0.75 -0.6,-1.41l-4.75 0.01c-0.13,0.19 -0.06,0.23 -0.1,0.47 -0.03,0.15 -0.1,0.29 -0.15,0.41 -0.47,1.05 -1.37,1.13 -2.41,1.13 -1.56,0 -3.12,0 -4.68,0 -1.16,0 -3.65,-0.17 -4.54,0.14 -0.58,0.19 -0.92,0.66 -1.15,1.2 -0.24,0.57 -0.13,1.49 -0.13,2.2l0 32.77c0,0.7 -0.08,1.67 0.12,2.22 0.08,0.21 0.32,0.58 0.44,0.69 0.22,0.21 0.43,0.37 0.71,0.49 0.63,0.26 7.9,0.12 9.23,0.12 7.82,0 15.65,0 23.47,0 1.01,0 3.86,0.14 4.55,-0.12 1.42,-0.53 1.31,-1.56 1.31,-3.34l0 -32.76c0,-0.63 0.1,-1.75 -0.11,-2.22l-0.11 -0.26c-0.01,-0.01 -0.01,-0.03 -0.02,-0.04l-0.05 -0.08c-0.71,-1.24 -1.72,-1.01 -3.11,-1.01l-7.02 0c-1.11,0 -1.2,0.1 -1.91,-0.42 -0.67,-0.5 -0.7,-0.89 -0.81,-1.6z"/>
   <path class="fil2" d="M57.99 4.96c-1.95,0.34 -1.74,1.74 -1.74,3.19l0 32.38c0,1.39 -0.36,3.31 1,3.96 0.74,0.36 1.25,0.26 2.21,0.26l32.38 0c1.19,0 2.32,0.18 3.25,-0.23 0.01,-0.01 0.03,-0.01 0.04,-0.02 0.01,-0.01 0.03,-0.02 0.04,-0.02l0.07 -0.05c0.98,-0.71 0.84,-1.73 0.84,-2.89l0 -32.38c0,-0.72 0.07,-1.85 -0.01,-2.52 -0.08,-0.64 -0.5,-1.3 -0.98,-1.48 -0.94,-0.36 -1.03,-0.24 -2.24,-0.24l-32.38 0c-0.78,0 -1.76,-0.09 -2.48,0.04z"/>
   <path class="fil1" d="M56.27 59.44l0 35.49c0,0.4 0.08,0.6 0.17,0.91 0.25,0.81 1.09,1.24 2,1.24l35.49 0c1.32,0 2.15,-0.84 2.15,-2.15l0 -35.55c0,-1.33 -0.77,-2.13 -2.15,-2.13l-35.55 0c-0.62,0 -1.03,0.03 -1.57,0.56 -0.39,0.4 -0.54,0.9 -0.54,1.63z"/>
   <path class="fil2" d="M3.92 59.44l0 35.49c0,0.78 0.18,1.18 0.58,1.57 0.37,0.37 0.88,0.58 1.57,0.58l35.55 0c0.57,0 1.25,-0.21 1.54,-0.62 0.01,-0.02 0.09,-0.15 0.1,-0.16 0,-0.02 0.01,-0.03 0.02,-0.04l0.32 -0.42c0.17,-0.26 0.15,-0.54 0.15,-0.91l-0.11 -36.44c0,-0.02 -0.01,-0.03 -0.02,-0.04 -0.43,-0.77 -1.17,-1.18 -2.06,-1.18l-35.49 0c-0.42,0 -0.77,0.09 -1.09,0.25 -0.05,0.03 -0.12,0.07 -0.16,0.1 -0.7,0.52 -0.9,0.92 -0.9,1.82z"/>
   <path class="fil0" d="M22.22 66.23c-0.3,0 -0.94,-0.49 -1.35,-0.58 -0.61,-0.14 -1.01,-0.4 -1.64,-0.42 -2.08,-0.06 -3.25,0.04 -5.02,0.84 -0.13,0.06 0,-0.01 -0.12,0.07 -0.01,0 -0.02,0.01 -0.03,0.02l-0.08 0.05c-0.15,0.09 -0.27,0.17 -0.43,0.26 -2.35,1.27 -4.09,4.36 -4.14,7.01 -0.02,0.56 0.08,2.13 0.23,2.53l0.67 2.11c0.09,0.32 0.18,0.75 0.33,1.05 0.01,0.01 0.01,0.03 0.02,0.04 0.16,0.33 0.2,0.64 0.33,1 0.11,0.35 0.24,0.69 0.33,1.06 0.08,0.33 0.27,0.7 0.36,1.02l0.24 0.78c0.12,0.31 0.08,0.11 0.14,0.23 0.07,0.15 0.05,0.34 0.14,0.55l0.32 1.07c0.06,0.2 0.1,0.32 0.16,0.55l0.36 1.02c0.46,1.43 1.05,2.36 2.14,3.44 0.85,0.85 1.9,1.42 3.07,1.75 1.47,0.4 2.83,0.46 4.32,0.12 0.31,-0.06 0.69,-0.3 1.03,-0.36 0.52,-0.11 0.78,0.13 1.15,0.23 1.82,0.46 3.07,0.52 4.84,-0.04 1.6,-0.5 3.03,-1.53 3.98,-2.91 0.49,-0.71 0.82,-1.51 1.14,-2.34l1.85 -5.79c0.06,-0.21 0.12,-0.31 0.16,-0.54 0.09,-0.4 0.1,-0.25 0.19,-0.51 0.17,-0.52 0.26,-1.13 0.48,-1.61 0.22,-0.48 0.33,-1.12 0.48,-1.63 0.44,-1.45 0.55,-3.58 -0.02,-5.05 -0.45,-1.15 -0.83,-1.91 -1.61,-2.88l-1.41 -1.38c-0.06,-0.04 -0.11,-0.07 -0.19,-0.13l-0.52 -0.36c-0.44,-0.3 -1.5,-0.76 -2.08,-0.96 -0.36,-0.12 -0.73,-0.07 -1.04,-0.18 -0.97,-0.34 -3.11,0.04 -3.42,0.02 0.12,-0.39 0.37,-0.71 0.32,-1.25 -0.04,-0.39 -0.27,-0.93 -0.49,-1.16 -0.67,-0.73 -2.01,-0.87 -2.87,-0.11l-1.83 2.22c-0.19,0.33 -0.32,0.86 -0.49,1.15z"/>
   <path class="fil0" d="M30.61 2.9c0.11,0.71 0.14,1.1 0.81,1.6 0.71,0.52 0.8,0.42 1.91,0.42l7.02 0c1.39,0 2.4,-0.23 3.11,1.01l0.05 0.08c0.01,0.01 0.01,0.03 0.02,0.04l0.11 0.26c0.21,0.47 0.11,1.59 0.11,2.22l0 32.76c0,1.78 0.11,2.81 -1.31,3.34 -0.69,0.26 -3.54,0.12 -4.55,0.12 -7.82,0 -15.65,0 -23.47,0 -1.33,0 -8.6,0.14 -9.23,-0.12 -0.28,-0.12 -0.49,-0.28 -0.71,-0.49 -0.12,-0.11 -0.36,-0.48 -0.44,-0.69 -0.2,-0.55 -0.12,-1.52 -0.12,-2.22l0 -32.77c0,-0.71 -0.11,-1.63 0.13,-2.2 0.23,-0.54 0.57,-1.01 1.15,-1.2 0.89,-0.31 3.38,-0.14 4.54,-0.14 1.56,0 3.12,0 4.68,0 1.04,0 1.94,-0.08 2.41,-1.13 0.05,-0.12 0.12,-0.26 0.15,-0.41 0.04,-0.24 -0.03,-0.28 0.1,-0.47 -0.01,-0.13 -0.06,-0.5 -0.1,-0.61 -0.18,-0.49 -0.51,-0.87 -0.96,-1.13 -0.01,-0.01 -0.03,-0.02 -0.04,-0.02 -0.01,-0.01 -0.03,-0.02 -0.04,-0.02 -0.15,-0.09 -0.32,-0.12 -0.5,-0.13l-0.64 0 -10.3 0.07c-0.96,0.32 -1.21,0.4 -2.09,0.95 -0.06,0.05 -0.12,0.08 -0.19,0.13 -0.01,0 -0.02,0.02 -0.03,0.03 -0.31,0.24 0.22,-0.2 -0.07,0.05l-0.91 0.92c-0.3,0.35 -0.53,0.76 -0.73,1.18l-0.38 1.07c-0.06,0.22 -0.09,0.44 -0.1,0.68l0 1.31c0,11.99 0.07,24 0,36l0 0.15c0,0.38 0.05,0.49 0.13,0.84 0.04,0.15 0.02,0.14 0.09,0.29l0.71 1.45c0.57,0.93 1.5,1.62 2.47,2.08 0.44,0.21 0.85,0.32 1.32,0.45 0.46,0.13 33.19,0.04 37.41,0.04 0.19,0 0.51,0.02 0.68,-0.01 0.36,-0.05 0.81,-0.25 1.16,-0.36l0.44 -0.19c0.18,-0.09 0.28,-0.14 0.45,-0.25l0.19 -0.12c0.01,-0.01 0.03,-0.02 0.04,-0.03 0.09,-0.06 0.11,-0.07 0.23,-0.15l1.47 -1.57 0.7 -1.5c0.16,-0.9 0.2,-0.32 0.2,-1.58l0 -35.42c0,-0.61 0.11,-1.41 -0.11,-1.98l-0.52 -1.44c-0.05,-0.1 0,0 -0.07,-0.12 -0.01,-0.01 -0.01,-0.02 -0.02,-0.03 -0.01,-0.02 -0.02,-0.03 -0.03,-0.04 -0.27,-0.47 -0.6,-0.9 -0.99,-1.28l-1.47 -1.07c-0.05,-0.03 -0.17,-0.08 -0.21,-0.1l-0.51 -0.19c-0.32,-0.14 -0.65,-0.22 -0.99,-0.26l-2.73 0 -7.83 0c-0.73,0.04 -1.2,0.61 -1.51,1.22 -0.13,0.26 -0.09,0.33 -0.09,0.68z"/>
   <path class="fil0" d="M68.08 73.19c-0.56,0.18 -1.18,0.3 -1.68,0.61l-2.35 1.63c-0.33,0.32 -1.18,1.23 -1.43,1.66 -0.19,0.34 -0.39,0.65 -0.6,0.99l-0.25 0.5c-1.37,3.09 -0.97,6.58 0.75,9.43l1.4 1.69c0.01,0.01 0.03,0.02 0.03,0.03l0.39 0.32c0.47,0.41 0.88,0.64 1.41,0.99 0.32,0.21 0.67,0.37 1.04,0.54l1.67 0.59c0.88,0.23 2.84,0.35 3.69,0.14 0.23,-0.06 0.41,-0.07 0.63,-0.12l1.18 -0.34c0.39,-0.1 0.71,-0.26 1.09,-0.48l1.06 -0.54c0.25,-0.03 1.27,0.65 1.63,0.76 0.17,0.06 0.14,0.03 0.28,0.09 1.89,0.85 3.69,0.86 5.76,0.54 0.16,-0.03 0.31,-0.1 0.41,-0.14l1.42 -0.49c1.09,-0.47 2.03,-1.17 2.9,-2.01 0.89,-0.87 1.7,-2.11 2.16,-3.3l0.34 -0.92c0.2,-0.93 0.4,-1.65 0.4,-2.7 0.01,-2.04 -0.62,-3.98 -1.72,-5.64 -0.17,-0.25 -0.35,-0.43 -0.54,-0.65 -0.21,-0.26 -0.39,-0.45 -0.6,-0.67 -0.35,-0.38 -0.83,-0.83 -1.28,-1.11 -0.4,-0.25 -0.72,-0.49 -1.15,-0.69 -0.22,-0.1 -0.25,-0.08 -0.43,-0.21 -0.5,-0.34 -0.33,-0.12 -0.89,-0.32 -1.14,-0.4 -2.1,-0.53 -3.33,-0.53 -0.64,0 -0.91,-0.52 -1.32,-0.95 -0.25,-0.27 -0.27,-0.31 -0.49,-0.65 -0.07,-0.12 -0.15,-0.19 -0.24,-0.33 -0.08,-0.13 -0.15,-0.26 -0.23,-0.4l-0.61 -1.07c-0.29,-0.64 -0.81,-2.63 -0.6,-3.45l0.27 -0.73c0.45,-0.58 0.69,-0.96 0.5,-1.84 -0.25,-1.2 -1.5,-1.62 -2.59,-1.45 -0.2,0.03 -0.3,0.11 -0.47,0.14l-0.91 0.23c-0.52,0.14 -1.09,0.5 -1.51,0.8 -1.16,0.81 -2.09,1.84 -2.82,3.05 -0.08,0.13 -0.16,0.21 -0.23,0.34 -0.1,0.18 -0.07,0.25 -0.17,0.41l-0.08 0.11c0,0.01 -0.01,0.03 -0.02,0.04l-0.25 0.39c-0.21,0.32 -0.85,1.95 -0.94,2.26 -0.05,0.19 -0.04,0.3 -0.1,0.48l-0.29 0.9c-0.14,0.57 -0.08,1.56 -0.29,2.07z"/>
   <path class="fil0" d="M21.88 10.21c-0.41,0.15 -0.91,0.54 -1.27,0.78 -0.56,0.38 -1.58,1.55 -2.03,2.14 -1.1,1.44 -1.81,3.19 -2.34,5 -0.3,1.02 -0.19,1.07 -0.26,1.32 -0.13,0.46 -0.09,-0.27 -0.15,0.91 -0.03,0.69 -0.17,0.36 -1.23,0.87 -0.21,0.11 -0.33,0.12 -0.53,0.23 -1.86,1.03 -3.23,2.17 -4.27,4.08 -1.04,1.89 -1.44,3.89 -1.08,6.27 0.15,1.01 -0.03,0.28 0.27,1.25 0.29,0.97 0.93,2.3 1.54,3.01 0.01,0.01 0.02,0.03 0.03,0.04 0.01,0.01 0.02,0.02 0.03,0.03 0.01,0.01 0.02,0.02 0.03,0.03 0.18,0.22 -0.04,-0.06 0.08,0.11 0.07,0.08 0.08,0.12 0.15,0.22l1.11 1.18c0.31,0.28 1.55,1.11 1.84,1.22 0.22,0.08 0.3,0.14 0.48,0.25l0.81 0.34c0.33,0.14 0.01,0.1 0.53,0.21 0.26,0.05 0.1,0.01 0.29,0.09 0.6,0.26 2.05,0.29 2.75,0.28 1.46,-0.01 2.44,-0.31 3.68,-0.85 0.16,-0.07 0.38,-0.13 0.55,-0.22 1.64,-0.9 0.48,-0.51 2.54,0.27 0.36,0.14 0.74,0.31 1.13,0.4 0.24,0.05 0.37,0.11 0.6,0.16 0.24,0.05 0.48,0.04 0.71,0.1 0.47,0.13 0.83,0.13 1.41,0.12 0.86,0 1.9,-0.13 2.68,-0.38 1.45,-0.46 1.5,-0.58 2.65,-1.16 0.2,-0.11 0.25,-0.19 0.42,-0.33 0.35,-0.27 0.53,-0.41 0.84,-0.68 0.29,-0.26 0.5,-0.48 0.76,-0.75 0.67,-0.7 1.37,-1.95 1.73,-2.83l0.51 -1.8c0.02,-0.24 0.05,-0.4 0.1,-0.65 0.09,-0.52 0.12,-1.63 0.06,-2.2 -0.02,-0.26 -0.09,-0.35 -0.12,-0.63 -0.07,-0.63 -0.15,-1.02 -0.38,-1.59 -0.46,-1.12 -0.63,-1.63 -1.45,-2.72 -1.53,-2.04 -4.19,-3.59 -6.8,-3.82 -1.61,-0.14 -1.22,0.36 -2.29,-0.75 -0.98,-1.02 -1.37,-1.89 -1.84,-3.12l-0.3 -0.85 -0.12 -0.3c-0.51,-2.59 0.38,-2.46 0.61,-3.35 0.33,-1.3 -0.49,-2.53 -1.99,-2.51 -0.29,0.01 -1.08,0.12 -1.34,0.2l-1.13 0.38z"/>
   <path class="fil0" d="M74.26 13.07c-0.61,0.01 -0.77,0.15 -1.33,0.21 -0.65,0.08 -1.7,0.58 -2.3,0.85 -0.39,0.17 -0.69,0.3 -1.05,0.53l-0.48 0.27c-0.08,0.04 -0.14,0.08 -0.23,0.15 -0.52,0.39 -0.57,0.31 -1.2,0.83l-0.84 0.74c-0.29,0.29 -0.55,0.54 -0.82,0.84 -0.43,0.49 -0.59,0.58 -0.88,1.06l-1.8 3.39c-0.44,1.1 -0.78,3.6 -0.76,4.87 0,0.44 0.08,0.95 0.14,1.4 0.13,1.22 0.52,2.68 1.05,3.71l0.5 1.09c0.19,0.39 0.39,0.61 0.59,0.99 0.2,0.36 0.71,0.96 1.03,1.31l0.21 0.23c0.12,0.12 0.11,0.13 0.2,0.24 0.8,0.97 2.47,2.2 3.61,2.77 0.33,0.17 0.71,0.37 1.07,0.51 0.1,0.04 0.17,0.06 0.28,0.11 0.17,0.08 0.06,0.06 0.25,0.12l1.83 0.56c0.69,0.15 2.96,0.23 3.84,0.19 0.46,-0.02 2.96,-0.49 3.35,-0.66 0.4,-0.16 0.76,-0.28 1.13,-0.45 0.19,-0.08 0.33,-0.14 0.54,-0.22 0.23,-0.1 0.08,-0.02 0.24,-0.13 0.99,-0.66 0.97,-0.58 2.19,-1.47 1.52,-1.11 3.51,-3.63 4.12,-5.42 0.23,-0.68 0.65,-1.79 0.74,-2.49 0.13,-0.96 0.32,-3.55 0.14,-4.58 -0.07,-0.38 -0.18,-1.01 -0.28,-1.37 -0.26,-0.87 -0.27,-1.39 -0.8,-2.37 -0.2,-0.37 -0.34,-0.7 -0.54,-1.05l-0.64 -1c-0.2,-0.31 -0.43,-0.67 -0.65,-0.94l-0.74 -0.84c-0.14,-0.14 -0.27,-0.22 -0.4,-0.36 -0.98,-1 -3.05,-2.35 -4.37,-2.83 -0.36,-0.14 -0.85,-0.27 -1.19,-0.39l-1.03 -0.24c-0.01,-0.58 0.94,-0.86 0.54,-2.25 -0.35,-1.19 -2.23,-2.28 -3.65,-0.21 -1.14,1.64 -0.3,2.29 -1.61,2.3z"/>
   <path class="fil3" d="M17.25 69.22c-0.32,0.07 -0.75,0.15 -1.04,0.3 -1.14,0.59 -1.45,0.82 -2.21,1.96 -0.31,0.47 -0.62,1.43 -0.68,2.02 -0.11,1.13 0.4,2.29 0.72,3.35l0.85 2.63c0.07,0.21 0.1,0.2 0.17,0.52 0.08,0.34 0.23,0.69 0.33,0.99l0.66 2.14c0.22,0.75 0.74,2.39 1.09,3 0.93,1.63 3.02,2.39 4.75,1.76 0.87,-0.31 1.5,-1.3 2.99,-0.5 0.28,0.15 0.61,0.36 0.9,0.47 2.59,0.97 5.01,-0.91 5.47,-3.75 0.03,-0.14 0.02,-0.14 0.07,-0.26 0,-0.01 0.01,-0.03 0.02,-0.04l0.04 -0.09c0.02,-0.06 0.02,-0.07 0.04,-0.14l0.51 -1.57c0.11,-0.27 0.06,-0.27 0.13,-0.53 0.04,-0.16 0.11,-0.21 0.19,-0.47l0.68 -2.12c0.08,-0.2 0.08,-0.35 0.15,-0.54l1.14 -3.65c0.19,-1.15 0.1,-2.24 -0.6,-3.28 -0.38,-0.56 -0.8,-1.07 -1.34,-1.43 -0.29,-0.19 -0.4,-0.19 -0.62,-0.33 -0.66,-0.44 -2.08,-0.71 -3.24,-0.35 -0.74,0.23 -0.21,-0.13 -1.46,0.6 -1.24,0.72 -1.51,2.4 -3.11,2.4 -1.51,0.01 -1.64,-1.02 -2.43,-1.78 -1.1,-1.07 -2.6,-1.64 -4.17,-1.31z"/>
   <path class="fil4" d="M76.16 16.83c-1.26,0 -1.94,0.09 -3.06,0.53 -2.2,0.87 -3.4,1.67 -4.82,3.59 -0.19,0.25 -0.31,0.51 -0.46,0.74 -0.16,0.24 -0.27,0.53 -0.41,0.81 -0.84,1.7 -0.9,3.12 -0.8,5.19 0.02,0.51 0.27,1.54 0.45,1.95 0.38,0.88 0.64,1.58 1.22,2.38 0.78,1.08 1.65,1.88 2.77,2.61 0.66,0.43 0.74,0.38 1.2,0.64 0.34,0.19 0.48,0.22 0.82,0.36 0.17,0.07 0.22,0.09 0.44,0.13 0.62,0.14 0.01,0.12 1,0.21 0.6,0.06 0.3,0.17 1.65,0.18 0.35,0 0.82,0.05 1.13,-0.06 0.68,-0.23 0.59,-0.03 1,-0.2 0.18,-0.07 1.3,-0.33 1.82,-0.58 1.21,-0.59 2.58,-1.56 3.41,-2.59 0.2,-0.24 0.33,-0.45 0.51,-0.7l0.9 -1.5c0.16,-0.39 0.58,-1.5 0.61,-1.81 0.08,-0.86 0.14,-0.65 0.18,-1.02l0 -2.41c-0.04,-0.3 -0.06,-0.15 -0.13,-0.42 -0.06,-0.21 -0.07,-0.85 -0.31,-1.55 -0.45,-1.32 -1.36,-2.69 -2.31,-3.71l-1.54 -1.23c-0.02,0 -0.03,-0.01 -0.04,-0.02 -0.41,-0.29 -0.44,-0.28 -0.84,-0.48 -1.45,-0.74 -2.76,-1.04 -4.39,-1.04z"/>
   <path class="fil5" d="M17.27 24.52c-0.37,0.12 -0.76,0.18 -1.17,0.32 -0.64,0.21 -1.25,0.69 -1.71,1.17 -0.01,0.02 -0.05,0.05 -0.06,0.07 -0.03,0.03 -0.08,0.08 -0.1,0.09 -1.91,1.91 -2.3,5.01 -0.76,7.27 0.74,1.09 2.05,2.28 3.36,2.48 1.66,0.26 1.02,0.29 2.65,0.07l1.15 -0.31c2.39,-0.98 4.09,-3.75 3.56,-6.52 -0.39,-2.02 -2.25,-4.09 -4.23,-4.5 -0.73,-0.15 -0.59,-0.21 -1.24,-0.22 -0.46,0 -1.06,-0.05 -1.45,0.08z"/>
   <path class="fil5" d="M70.72 76.77c-3.35,0.01 -5.87,2.75 -5.87,5.82 0,1.95 0.99,3.69 2.23,4.65 0.14,0.12 0.04,0.05 0.21,0.15l0.94 0.53c0.41,0.15 0.38,0.28 1.07,0.38 1.86,0.3 1.11,0.2 2.63,0.01 0.42,-0.05 0.26,-0.03 0.55,-0.15 0.33,-0.13 0.38,0.02 1.08,-0.39 0.61,-0.36 0.66,-0.41 1.14,-0.88 0.78,-0.76 1.47,-1.79 1.68,-2.88 0.11,-0.53 0.18,-0.66 0.18,-1.35 0,-1.35 -0.09,-0.73 -0.18,-1.27 -0.2,-1.23 -0.26,-1 -0.58,-1.59 -0.37,-0.7 -0.18,-0.59 -0.92,-1.31 -1.15,-1.09 -2.4,-1.72 -4.16,-1.72z"/>
   <path class="fil6" d="M80.66 76.83c-2.75,0.54 -1.07,0.79 -0.59,2.86 0.41,1.74 0.45,1.79 0.41,3.6 -0.03,1.06 -0.05,0.57 -0.16,1.25 -0.33,2.03 -1.39,3.08 -1.2,3.37 0.02,0.02 0.18,0.12 0.19,0.12 0.51,0.23 1.83,0.48 2.6,0.45 1.02,-0.04 1.24,-0.25 1.65,-0.36 1.33,-0.37 2.61,-1.52 3.24,-2.79 0.31,-0.61 0.55,-1.19 0.65,-1.99 0.52,-3.75 -2.99,-7.24 -6.79,-6.51z"/>
   <path class="fil6" d="M26.78 25.1c0.05,0.41 0.73,1.2 0.96,2.39 0.03,0.14 0.21,0.56 0.33,1.29 0.24,1.37 0.02,3.24 -0.34,4.44 -0.17,0.56 -0.49,1.2 -0.75,1.71 -0.13,0.24 -0.2,0.3 -0.27,0.54 0.19,0.21 0.14,0.01 0.23,0.26 0.45,0.06 0.42,0.14 0.72,0.2 0.68,0.16 1.85,0.28 2.53,0.13 0.23,-0.05 0.5,-0.09 0.7,-0.18 0.64,-0.26 0.76,-0.08 1.85,-0.88 1.59,-1.18 2.93,-3.61 2.25,-6.06 -0.24,-0.86 -0.37,-1.3 -0.92,-1.98 -0.45,-0.57 -0.1,-0.26 -0.66,-0.8l-0.78 -0.67c-0.29,-0.24 -0.8,-0.48 -1.18,-0.62l-0.89 -0.25c-0.59,-0.12 -0.11,-0.18 -1.28,-0.18 -0.7,0 -1.36,0.11 -1.97,0.32 -0.32,0.11 -0.33,0.1 -0.53,0.34z"/>
   <path class="fil1" d="M19.8 20.49c0.25,0.13 0.9,0.24 1.4,0.38 0.07,0.02 0.09,0.02 0.16,0.03 0.16,0.04 0.17,0.03 0.32,0.11l1.62 0.78c0.65,0.36 0.44,0.41 1.1,0.01 0,-0.3 0.04,-0.19 -0.1,-0.38l-1.12 -1.66 -1.32 -3.53c-0.02,-0.26 0.01,-0.35 -0.1,-0.52 -0.32,0.05 -0.31,0.18 -0.44,0.42 -0.27,0.53 -0.41,0.64 -0.71,1.37l-0.25 0.57c-0.2,0.47 -0.56,1.87 -0.56,2.42z"/>
   <path class="fil1" d="M72.13 72.84l2.14 0.63 1.89 0.93c0.19,-0.03 0.42,-0.16 0.56,-0.28 0.01,-0.36 -0.17,-0.35 -0.46,-0.8l-0.13 -0.25c-0.08,-0.15 -0.12,-0.22 -0.21,-0.37 -0.34,-0.59 -0.42,-0.58 -0.77,-1.43l-0.47 -1.19c-0.06,-0.14 -0.08,-0.27 -0.14,-0.42 -0.18,-0.48 -0.34,-1.71 -0.41,-1.82 -0.22,0.08 0.06,-0.07 -0.08,0.06l-0.12 0.13c-0.07,0.09 -0.11,0.18 -0.17,0.27 -0.1,0.16 -0.21,0.38 -0.34,0.56l-0.31 0.56c-0.02,0.04 -0.04,0.09 -0.06,0.13l-0.58 1.43c-0.09,0.39 -0.35,1.54 -0.34,1.86z"/>
   <path class="fil0" d="M21.83 2.9c0.14,0.66 0.19,1.01 0.6,1.41 0.81,0.82 1.92,0.83 2.83,0 0.39,-0.37 0.19,-0.02 0.4,-0.59 0.25,-0.66 0.02,-0.55 0.21,-0.8 -0.09,-0.45 -0.05,-0.87 -0.58,-1.4 -0.44,-0.43 -0.72,-0.51 -1.07,-0.52l-0.85 0c-0.28,0.01 -0.45,0.08 -0.84,0.39l-0.53 0.67c-0.13,0.3 -0.2,0.37 -0.17,0.84z"/>
   <path class="fil7" d="M74.26 13.07c1.31,-0.01 0.47,-0.66 1.61,-2.3 1.42,-2.07 3.3,-0.98 3.65,0.21 0.4,1.39 -0.55,1.67 -0.54,2.25l1.03 0.24c-0.38,-0.39 -0.99,-0.09 -0.72,-0.59 0.33,-0.6 0.47,-0.67 0.45,-1.45 0,-0.44 -0.04,-0.37 -0.15,-0.65 -0.67,-1.62 -2.79,-1.79 -3.83,-0.1 -0.11,0.17 -0.16,0.25 -0.29,0.45 -0.31,0.52 -0.52,1.59 -0.64,1.7 -0.2,0.17 -0.06,-0.05 -0.42,0.13 -0.18,0.09 -0.03,0.01 -0.15,0.11z"/>
   <path class="fil7" d="M21.88 10.21l1.13 -0.38c0.26,-0.08 1.05,-0.19 1.34,-0.2 1.5,-0.02 2.32,1.21 1.99,2.51 -0.23,0.89 -1.12,0.76 -0.61,3.35l0.12 0.3c0.15,-1.14 -0.69,-1.65 0.41,-3.14 0.22,-0.3 0.09,-0.26 0.23,-0.6 0.38,-0.9 -0.37,-2.52 -2.01,-2.51 -0.74,0 -1.41,0.09 -2.04,0.34l-0.51 0.29c-0.01,0.01 -0.03,0.03 -0.05,0.04z"/>
  </g>
 </g>
</svg>
