<svg version="1.1" xmlns="http://www.w3.org/2000/svg">
    <symbol id="rslogo" viewBox="0 0 153 100">
        <g id="Слой_x0020_1">
            <metadata id="CorelCorpID_0Corel-Layer"/>
            <path class="fil0" d="M60.29 55.92c2.56,-1.29 5.63,-1.61 8.4,-3.22 2.42,-1.4 5.02,-3.46 6.31,-5.26 1.45,0.62 3.33,2.18 5.05,3.16 4.78,2.74 11.94,5.18 17.29,6.57 8.14,2.12 18.64,3.16 23.4,8.54 4.73,5.35 0.88,15.89 -13.42,14.94 -10.27,-0.69 -14.19,-6.95 -15.66,-16.15l-19.16 1.11c-1.07,-1.64 -3.79,-5.1 -5.01,-6.02 -2.52,-1.89 -4.39,-2.17 -7.2,-3.67zm-32.32 -35.31c4.8,-0.05 10.48,-0.25 15.2,0.1 13.61,0.98 11.62,12.56 7.77,16.63 -3.98,4.2 -16.83,3.39 -22.97,3.35l0 -20.08zm116.06 26.59c-1.59,-0.98 -2.89,-2.11 -4.6,-3.16 -11.67,-7.24 -26.21,-8.12 -38.44,-11.99 -10.85,-3.44 -6.81,-12.8 2.45,-13.53 10.2,-0.8 15.01,3.41 16.84,12.24l28.7 -1.61c0.37,-3.92 -2.7,-11.19 -4.37,-13.86 -2.56,-4.09 -5,-6.41 -9.23,-8.98 -6.69,-4.05 -21.9,-6.78 -31.19,-5.49 -2.43,-0.61 -13.46,1.37 -16.03,2.13 -2.55,0.75 -4.4,1.48 -6.63,2.61 -2.89,1.47 -4.13,2.64 -5.83,3.54 -1.95,-1.42 -2.98,-3.15 -5.91,-4.64 -8.03,-4.08 -18.84,-3.82 -27.81,-3.82 -14.12,0 -28.24,0 -42.37,0l0 98.86 28.36 0 0 -40.11c11.35,-0.14 12.35,5.47 17.94,16.69 1.93,3.86 3.83,7.65 5.77,11.54 1.49,3 4.96,9.09 5.78,11.86l31.91 0.02 -0.72 -1.83c0.82,0.01 9.18,1.45 13.9,1.68 16.92,0.85 36.49,-1.53 45.73,-17.48 2.01,-3.48 3.43,-7.33 3.93,-11.93 0.53,-4.82 -0.13,-9.39 -1.85,-13.55 -0.81,-1.96 -1.71,-3.49 -2.78,-4.98 -1.45,-2.02 -3.47,-3.47 -3.55,-4.21z"/>
            <path class="fil1" d="M-746.95 274.98c9.41,5.03 15.66,5.95 24.11,12.3 4.11,3.09 13.2,14.66 16.79,20.15l64.21 -3.7c4.94,30.82 18.08,51.81 52.49,54.11 47.94,3.21 60.84,-32.13 44.97,-50.06 -15.95,-18.03 -51.13,-21.52 -78.4,-28.61 -17.95,-4.67 -41.93,-12.84 -57.97,-22.02 -5.76,-3.29 -12.05,-8.51 -16.92,-10.59 -4.32,6.01 -13.04,12.92 -21.15,17.63 -9.29,5.4 -19.55,6.45 -28.13,10.79z"/>
            <path class="fil1" d="M-855.29 223.94c20.59,0.13 63.67,2.85 76.99,-11.22 12.92,-13.65 19.57,-52.45 -26.02,-55.76 -15.83,-1.15 -34.89,-0.49 -50.97,-0.32l0 67.3z"/>
        </g>
    </symbol>
</svg>
