<?xml version="1.0" encoding="UTF-8"?>
<!DOCTYPE svg PUBLIC "-//W3C//DTD SVG 1.1//EN" "http://www.w3.org/Graphics/SVG/1.1/DTD/svg11.dtd">
<!-- Creator: CorelDRAW 2019 (64-Bit) -->
<svg xmlns="http://www.w3.org/2000/svg" xml:space="preserve" width="101px" height="101px" version="1.1" style="shape-rendering:geometricPrecision; text-rendering:geometricPrecision; image-rendering:optimizeQuality; fill-rule:evenodd; clip-rule:evenodd"
viewBox="0 0 101 101"
 xmlns:xlink="http://www.w3.org/1999/xlink"
 enable-background="new 0 0 24 24">
 <defs>
  <style type="text/css">
   <![CDATA[
    .fil0 {fill:black}
   ]]>
  </style>
 </defs>
 <g id="Слой_x0020_1">
  <metadata id="CorelCorpID_0Corel-Layer"/>
  <path class="fil0" d="M0 15.44c0,18.49 16.79,22.47 25.55,35.56 -8.76,13.09 -25.55,17.06 -25.55,35.55 0,9.04 8.1,14.45 18.89,14.45 9.97,0 23.25,-20.29 31.11,-25.56 13.09,8.77 17.07,25.56 35.56,25.56 9.03,0 14.44,-8.1 14.44,-18.89 0,-9.97 -20.29,-23.25 -25.56,-31.11 8.77,-13.09 25.56,-17.07 25.56,-35.56 0,-9.03 -8.1,-14.44 -18.89,-14.44 -9.97,0 -23.25,20.29 -31.11,25.56 -13.09,-8.77 -17.07,-25.56 -35.56,-25.56 -6.81,0 -14.44,7.63 -14.44,14.44z"/>
 </g>
</svg>
