<?xml version="1.0" encoding="UTF-8"?>
<!DOCTYPE svg PUBLIC "-//W3C//DTD SVG 1.1//EN" "http://www.w3.org/Graphics/SVG/1.1/DTD/svg11.dtd">
<!-- Creator: CorelDRAW 2019 (64-Bit) -->
<svg xmlns="http://www.w3.org/2000/svg" xml:space="preserve" width="110px" height="110px" version="1.1" style="shape-rendering:geometricPrecision; text-rendering:geometricPrecision; image-rendering:optimizeQuality; fill-rule:evenodd; clip-rule:evenodd"
viewBox="0 0 110 110"
 xmlns:xlink="http://www.w3.org/1999/xlink"
 enable-background="new 0 0 24 24">
 <defs>
  <style type="text/css">
   <![CDATA[
    .str0 {stroke:black;stroke-width:4;stroke-miterlimit:22.9256}
    .fil0 {fill:#FEFEFE}
    .fil1 {fill:black}
   ]]>
  </style>
 </defs>
 <g id="Слой_x0020_1">
  <metadata id="CorelCorpID_0Corel-Layer"/>
  <rect class="fil0 str0" x="2.5" y="2.5" width="105" height="105" rx="8" ry="6.97"/>
  <path class="fil1" d="M40.35 40.35l29.3 0 0 29.3 -29.3 0 0 -29.3zm-5.86 -32.82l0 26.96 -26.96 0c-3.37,0 -3.37,5.86 0,5.86l26.96 0 0 29.3 -26.96 0c-3.37,0 -3.37,5.86 0,5.86l26.96 0 0 26.96c0,3.37 5.86,3.37 5.86,0l0 -26.96 29.3 0 0 26.96c0,3.37 5.86,3.37 5.86,0l0 -26.96 26.96 0c3.37,0 3.37,-5.86 0,-5.86l-26.96 0 0 -29.3 26.96 0c3.37,0 3.37,-5.86 0,-5.86l-26.96 0 0 -26.96c0,-3.37 -5.86,-3.37 -5.86,0l0 26.96 -29.3 0 0 -26.96c0,-3.37 -5.86,-3.37 -5.86,0z"/>
  <path class="fil1" d="M46.21 19.45c0,3.01 0.61,4.62 2.49,6.49 7.24,7.2 18.4,-1.07 14.25,-9.95 -1.17,-2.5 -4.14,-4.94 -7.56,-4.94 -5.21,0 -9.18,3.7 -9.18,8.4z"/>
  <path class="fil1" d="M11.04 19.45c0,3.76 1.71,6.75 4.82,8.27 4.38,2.15 9.76,0.39 11.86,-3.91 1.21,-2.47 1.23,-5.33 0.06,-7.82 -1.16,-2.5 -4.14,-4.94 -7.55,-4.94 -5.22,0 -9.19,3.7 -9.19,8.4z"/>
  <path class="fil1" d="M46.21 89.77c0,3.02 0.61,4.63 2.49,6.5 7.24,7.19 18.4,-1.08 14.25,-9.95 -0.52,-1.12 -0.94,-1.55 -1.75,-2.36 -5.79,-5.79 -14.99,-1.17 -14.99,5.81z"/>
  <path class="fil1" d="M81.37 89.77c0,3.02 0.61,4.63 2.49,6.5 7.24,7.19 18.4,-1.08 14.25,-9.95 -0.52,-1.12 -0.94,-1.55 -1.74,-2.36 -5.8,-5.79 -15,-1.17 -15,5.81z"/>
  <path class="fil1" d="M46.21 48.75c0,3.25 2.95,3.95 4.49,6.25 -1.54,2.3 -4.49,3 -4.49,6.25 0,1.59 1.42,2.54 3.32,2.54 1.75,0 4.09,-3.57 5.47,-4.49 2.3,1.54 3,4.49 6.25,4.49 1.59,0 2.54,-1.42 2.54,-3.32 0,-1.75 -3.57,-4.09 -4.49,-5.47 1.54,-2.3 4.49,-3 4.49,-6.25 0,-1.59 -1.42,-2.54 -3.32,-2.54 -1.75,0 -4.09,3.57 -5.47,4.49 -2.3,-1.54 -3,-4.49 -6.25,-4.49 -1.2,0 -2.54,1.34 -2.54,2.54z"/>
  <path class="fil1" d="M11.04 83.91c0,3.25 2.96,3.95 4.5,6.25 -1.54,2.31 -4.5,3 -4.5,6.26 0,1.58 1.43,2.54 3.33,2.54 1.75,0 4.08,-3.57 5.47,-4.5 2.3,1.54 3,4.5 6.25,4.5 1.58,0 2.54,-1.43 2.54,-3.33 0,-1.75 -3.57,-4.08 -4.5,-5.47 1.54,-2.3 4.5,-3 4.5,-6.25 0,-1.58 -1.43,-2.54 -3.32,-2.54 -1.76,0 -4.09,3.57 -5.47,4.5 -2.31,-1.54 -3,-4.5 -6.26,-4.5 -1.19,0 -2.54,1.34 -2.54,2.54z"/>
  <path class="fil1" d="M81.37 13.59c0,3.25 2.95,3.95 4.5,6.25 -1.55,2.3 -4.5,3 -4.5,6.25 0,1.59 1.43,2.54 3.32,2.54 1.76,0 4.09,-3.57 5.47,-4.5 2.3,1.55 3,4.5 6.25,4.5 1.59,0 2.54,-1.43 2.54,-3.32 0,-1.76 -3.56,-4.09 -4.49,-5.47 1.54,-2.3 4.49,-3 4.49,-6.25 0,-1.59 -1.42,-2.54 -3.32,-2.54 -1.75,0 -4.08,3.56 -5.47,4.49 -2.3,-1.54 -3,-4.49 -6.25,-4.49 -1.2,0 -2.54,1.34 -2.54,2.54z"/>
 </g>
</svg>
