<?xml version="1.0" encoding="UTF-8"?>
<!DOCTYPE svg PUBLIC "-//W3C//DTD SVG 1.1//EN" "http://www.w3.org/Graphics/SVG/1.1/DTD/svg11.dtd">
<!-- Creator: CorelDRAW 2019 (64-Bit) -->
<svg xmlns="http://www.w3.org/2000/svg" xml:space="preserve" width="101px" height="101px" version="1.1" style="shape-rendering:geometricPrecision; text-rendering:geometricPrecision; image-rendering:optimizeQuality; fill-rule:evenodd; clip-rule:evenodd"
viewBox="0 0 101 101"
 xmlns:xlink="http://www.w3.org/1999/xlink"
 enable-background="new 0 0 24 24">
 <defs>
  <style type="text/css">
   <![CDATA[
    .fil0 {fill:black}
   ]]>
  </style>
 </defs>
 <g id="Слой_x0020_1">
  <metadata id="CorelCorpID_0Corel-Layer"/>
  <path class="fil0" d="M35.35 36.35l29.3 0 0 29.3 -29.3 0 0 -29.3zm-5.86 -32.82l0 26.96 -26.96 0c-3.37,0 -3.37,5.86 0,5.86l26.96 0 0 29.3 -26.96 0c-3.37,0 -3.37,5.86 0,5.86l26.96 0 0 26.96c0,3.37 5.86,3.37 5.86,0l0 -26.96 29.3 0 0 26.96c0,3.37 5.86,3.37 5.86,0l0 -26.96 26.96 0c3.37,0 3.37,-5.86 0,-5.86l-26.96 0 0 -29.3 26.96 0c3.37,0 3.37,-5.86 0,-5.86l-26.96 0 0 -26.96c0,-3.37 -5.86,-3.37 -5.86,0l0 26.96 -29.3 0 0 -26.96c0,-3.37 -5.86,-3.37 -5.86,0z"/>
 </g>
</svg>
