<svg version="1.1" xmlns="http://www.w3.org/2000/svg">
    <symbol id="logo" viewBox="0 0 156 128">
        <path d="M92.646 6.877c-3.744 0.95-6.681 2.671-10.34 6.059-2.645 2.448-2.653 2.406 0.739 3.894 4.968 2.179 8.692 4.748 11.733 8.093 1.932 2.125 1.324 1.938-2.427-0.746-2.997-2.145-8.011-4.915-11.309-6.247-1.894-0.765-6.566-1.086-7.951-0.545l-1.062 0.414 2.387 1.201c4.568 2.298 6.734 4.648 7.693 8.345 0.789 3.042-0.343 5.265-7.38 14.495-9.608 12.6-13.126 17.693-17.188 24.88-6.34 11.216-10.826 24.487-10.755 31.815l0.010 1.001 0.534-0.907c6.771-11.481 7.115-11.995 12.664-18.954 4.588-5.754 15.668-16.462 16.339-15.791 0.075 0.075-0.771 1.268-1.881 2.652-4.824 6.015-9.319 13.804-11.132 19.286-1.147 3.468-2.063 7.757-1.764 8.263 0.121 0.206 2.633 4.005 5.582 8.442l5.361 8.068h-40.59v4.351h92.395l2.12 1.217c12.837 7.37 13.912 7.923 15.533 7.976 2.644 0.087 2.002-0.466-5.418-4.66-3.881-2.194-7.063-4.111-7.072-4.261s5.205-0.272 11.587-0.272h11.604v-4.351h-41.738l-2.61-1.915c-3.038-2.23-12.781-9.115-14.662-10.362-1.196-0.793-1.435-0.826-3.291-0.453-1.1 0.221-2.83 0.404-3.844 0.407-1.659 0.005-1.762 0.050-1.034 0.453 0.827 0.458 2.275 1.37 11.157 7.033 2.792 1.78 5.647 3.594 6.346 4.031l1.269 0.794-27.335 0.012-2.469-3.838c-1.358-2.111-3.551-5.497-4.873-7.524-2.872-4.402-3.070-4.033 1.873-3.487 36.976 4.083 63.422-25.133 53.517-59.122-5.775-19.816-19.968-32.88-32.318-29.746zM103.796 16.026c0.853 0.987 0.799 2.063-0.154 3.078-1.967 2.094-5.259-0.295-3.901-2.831 0.803-1.501 2.863-1.626 4.055-0.247zM50.381 74.847c-0.287 0.273-4.275 2.906-8.862 5.851s-11.114 7.173-14.505 9.395c-3.39 2.222-6.934 4.52-7.875 5.109-5.601 3.502-16.621 10.781-16.828 11.117-0.177 0.285 2.349 0.342 8.995 0.202l9.241-0.194 2.871-1.787c19.54-12.163 21.734-13.629 21.805-14.567 0.103-1.363 2.696-8.502 4.342-11.956 1.614-3.387 1.799-4.102 0.816-3.169z"></path>
    </symbol>
    <symbol id="download" viewBox="0 0 64 64">
        <path d="M32 0.64c-17.318 0-31.36 14.042-31.36 31.36s14.042 31.36 31.36 31.36c17.318 0 31.36-14.042 31.36-31.36s-14.042-31.36-31.36-31.36zM32 58.458c-14.611 0-26.458-11.846-26.458-26.458s11.846-26.458 26.458-26.458 26.458 11.846 26.458 26.458-11.846 26.458-26.458 26.458z"></path>
        <path d="M43.763 39.84v3.923h-23.52v-3.923h-3.923v7.84h31.36v-7.84h-3.917z"></path>
        <path d="M33.958 32v-15.68h-3.923v15.68h-5.882l7.846 9.798 7.84-9.798h-5.882z"></path>
    </symbol>
    <symbol id="pause" viewBox="0 0 64 64">
        <path d="M32 0c-17.673 0-32 14.327-32 32s14.327 32 32 32 32-14.327 32-32-14.327-32-32-32zM32 58c-14.359 0-26-11.641-26-26s11.641-26 26-26 26 11.641 26 26-11.641 26-26 26zM20 20h8v24h-8zM36 20h8v24h-8z"></path>
    </symbol>
    <symbol id="play" viewBox="0 0 64 64">
        <path d="M32 0c-17.673 0-32 14.327-32 32s14.327 32 32 32 32-14.327 32-32-14.327-32-32-32zM32 58c-14.359 0-26-11.641-26-26s11.641-26 26-26 26 11.641 26 26-11.641 26-26 26zM24 18l24 14-24 14z"></path>
    </symbol>
    <symbol id="rslogo" viewBox="0 0 153 100">
        <g id="Слой_x0020_1">
            <metadata id="CorelCorpID_0Corel-Layer"/>
            <path class="fil0" d="M60.29 55.92c2.56,-1.29 5.63,-1.61 8.4,-3.22 2.42,-1.4 5.02,-3.46 6.31,-5.26 1.45,0.62 3.33,2.18 5.05,3.16 4.78,2.74 11.94,5.18 17.29,6.57 8.14,2.12 18.64,3.16 23.4,8.54 4.73,5.35 0.88,15.89 -13.42,14.94 -10.27,-0.69 -14.19,-6.95 -15.66,-16.15l-19.16 1.11c-1.07,-1.64 -3.79,-5.1 -5.01,-6.02 -2.52,-1.89 -4.39,-2.17 -7.2,-3.67zm-32.32 -35.31c4.8,-0.05 10.48,-0.25 15.2,0.1 13.61,0.98 11.62,12.56 7.77,16.63 -3.98,4.2 -16.83,3.39 -22.97,3.35l0 -20.08zm116.06 26.59c-1.59,-0.98 -2.89,-2.11 -4.6,-3.16 -11.67,-7.24 -26.21,-8.12 -38.44,-11.99 -10.85,-3.44 -6.81,-12.8 2.45,-13.53 10.2,-0.8 15.01,3.41 16.84,12.24l28.7 -1.61c0.37,-3.92 -2.7,-11.19 -4.37,-13.86 -2.56,-4.09 -5,-6.41 -9.23,-8.98 -6.69,-4.05 -21.9,-6.78 -31.19,-5.49 -2.43,-0.61 -13.46,1.37 -16.03,2.13 -2.55,0.75 -4.4,1.48 -6.63,2.61 -2.89,1.47 -4.13,2.64 -5.83,3.54 -1.95,-1.42 -2.98,-3.15 -5.91,-4.64 -8.03,-4.08 -18.84,-3.82 -27.81,-3.82 -14.12,0 -28.24,0 -42.37,0l0 98.86 28.36 0 0 -40.11c11.35,-0.14 12.35,5.47 17.94,16.69 1.93,3.86 3.83,7.65 5.77,11.54 1.49,3 4.96,9.09 5.78,11.86l31.91 0.02 -0.72 -1.83c0.82,0.01 9.18,1.45 13.9,1.68 16.92,0.85 36.49,-1.53 45.73,-17.48 2.01,-3.48 3.43,-7.33 3.93,-11.93 0.53,-4.82 -0.13,-9.39 -1.85,-13.55 -0.81,-1.96 -1.71,-3.49 -2.78,-4.98 -1.45,-2.02 -3.47,-3.47 -3.55,-4.21z"/>
            <path class="fil1" d="M-746.95 274.98c9.41,5.03 15.66,5.95 24.11,12.3 4.11,3.09 13.2,14.66 16.79,20.15l64.21 -3.7c4.94,30.82 18.08,51.81 52.49,54.11 47.94,3.21 60.84,-32.13 44.97,-50.06 -15.95,-18.03 -51.13,-21.52 -78.4,-28.61 -17.95,-4.67 -41.93,-12.84 -57.97,-22.02 -5.76,-3.29 -12.05,-8.51 -16.92,-10.59 -4.32,6.01 -13.04,12.92 -21.15,17.63 -9.29,5.4 -19.55,6.45 -28.13,10.79z"/>
            <path class="fil1" d="M-855.29 223.94c20.59,0.13 63.67,2.85 76.99,-11.22 12.92,-13.65 19.57,-52.45 -26.02,-55.76 -15.83,-1.15 -34.89,-0.49 -50.97,-0.32l0 67.3z"/>
        </g>
    </symbol>
</svg>
