<?xml version="1.0" encoding="UTF-8"?>
<!DOCTYPE svg PUBLIC "-//W3C//DTD SVG 1.1//EN" "http://www.w3.org/Graphics/SVG/1.1/DTD/svg11.dtd">
<!-- Creator: CorelDRAW 2019 (64-Bit) -->
<svg xmlns="http://www.w3.org/2000/svg" xml:space="preserve" width="1920px" height="2040px" version="1.1" style="shape-rendering:geometricPrecision; text-rendering:geometricPrecision; image-rendering:optimizeQuality; fill-rule:evenodd; clip-rule:evenodd"
viewBox="0 0 1920 2040"
 xmlns:xlink="http://www.w3.org/1999/xlink">
 <defs>
  <style type="text/css">
   <![CDATA[
    .fil0 {fill:#272928;fill-rule:nonzero}
   ]]>
  </style>
 </defs>
 <g id="Слой_x0020_1">
  <metadata id="CorelCorpID_0Corel-Layer"/>
  <g id="_1286008902656">
   <path class="fil0" d="M1909.04 10.51c-0.81,-1.02 -20.99,19.17 -29,23.35 -0.11,0.79 -0.33,2.36 -0.44,3.15 -12.95,2.04 -53.3,32.19 -46.95,47.81 -16.67,17.54 -7.94,51.61 -19.52,72.08 -37.76,4.46 -40.95,68.17 -17.79,73.32 -0.31,-0.61 -0.93,-1.86 -1.24,-2.47 22.73,-42.66 31.54,-67.52 72,-96 9.37,-6.59 12.12,-14.32 24.53,-9.76 0.41,42.72 -80.88,131.12 -69.21,150.29 2.51,2.28 4.93,4.71 6.86,7.54 3.73,15.18 2.61,37.18 -8.14,49.03 -11.02,0.33 -21.44,-3.54 -32.26,-4.7 -8.84,1.47 -11.51,6.69 -21.33,4.99 -6.21,-23.04 1.28,-23.43 5.25,-49.02 -11.59,6.83 -28.18,65.81 -30.83,78.89 -7,34.63 -3.83,76.54 -23.71,106.97 -2.53,3.87 3.68,10.87 5.67,14.6 -20.85,38.39 -45.62,20.05 -53.22,38.04 -7.01,16.59 1.35,90.86 1.26,112.03 -37.69,36.16 -22.81,64.27 -94.18,110.53 -66.96,43.39 1.77,38.03 6.7,36.99 26.37,-5.53 30.88,-30.17 43.45,-48.88 6.16,0.37 11.2,5.49 17.4,7.45 -0.39,0.15 -1.16,0.44 -1.55,0.6 -0.68,26.64 -99.64,151.84 -123.6,166.92 -9.37,5.89 -46.14,9.06 -55.72,4.6 -0.34,-20.61 16.74,-24.7 22.57,-41.82 0.99,-0.2 2.98,-0.63 3.97,-0.85 0.21,-0.99 0.63,-2.98 0.84,-3.99 28.32,-8.67 20.82,-44.55 21.94,-66.6 -56.82,-0.09 -82.02,-0.75 -139.38,-8.83 -111.48,-15.7 -47.56,18.48 -174.5,-29.86 -21.72,-8.27 -19.19,-34.58 -42.45,-42.55 7.03,34.8 44.4,53.34 52.79,86.18 -37.61,-1.56 -110.18,-111.87 -111.89,-113.32 -0.34,5.55 0.9,11.49 -2.17,16.5 -8.38,-7.59 -13.37,-50.05 -25.82,-49.73 -9.62,11.08 -1.69,34.82 -10.55,49.46 -6.62,10.96 -19.25,39.76 -31.23,44.3 -1.74,3.99 -5.07,6.3 -9.44,6.53 0.53,-45.11 17.64,-19.75 22.05,-140.27 2.31,-63.31 -22.15,-65.95 -18.09,-80.19 2.32,-0.95 4.65,-1.91 6.98,-2.86 -0.71,-45.22 -103.75,-38.16 -129.67,-21.05 -0.21,1.56 -0.43,3.13 -0.62,4.7 -5.51,3.16 -10.12,7.58 -15.71,10.8 0.06,5.2 3.09,9.44 6.33,13.25 -5.13,59.3 -43.12,47.74 -16.09,135.2 1.67,5.4 11.58,25.71 9.14,29.37 1.45,5.41 2.66,10.9 4.39,16.24 0.85,-0.42 2.56,-1.27 3.41,-1.68 -0.55,0.53 -1.67,1.63 -2.22,2.18 9.99,50.97 -24.43,4.86 -34.2,-10.73 -6.11,-16.03 -7.59,-33.31 -11.93,-49.83 -8.98,14.33 -6.5,35.19 -11.09,51.84 -3.81,-10.67 -5.41,-22.07 -7.77,-33.09 -38.43,53.38 -16.78,44.21 -78.63,96.05 -10.45,8.77 -20.4,18.5 -34.34,16.63 4.52,-26.45 46.42,-12.69 41.77,-78.44 -39.94,61.05 -106.71,68.06 -175.77,73.49 -35.48,2.8 -156.63,15.73 -183.78,2.44 -1.07,-0.13 -3.22,-0.36 -4.31,-0.47 5.03,21.6 56.67,116.92 72.01,129.52 4.98,3.96 1.87,11.07 2.51,16.49 -1.7,0.22 -3.38,0.47 -5.06,0.72 -11.17,-11.44 -17.86,-26.81 -26.91,-40.04 -12.08,19.72 25.54,109.31 25.65,129.71 0.11,20.65 -7.96,54 0.98,73.18 2.51,-0.01 5.04,-0.34 7.54,-0.66 3.3,-7.35 5.27,-15.17 7.84,-22.76 8.81,50.83 -18.65,147.36 -13.51,205.41 1.03,-0.75 3.13,-2.27 4.18,-3.05 -0.68,0.63 -2.01,1.91 -2.69,2.54 0.87,8.41 21.64,72.12 22.79,72.44 1.37,-8.05 5.44,-15.31 6.76,-23.36 8.15,-60.15 -17.73,-101.48 14.13,-156.86 29.36,-51.02 40.11,-111.96 76.83,-157.49 11.87,-14.72 26.34,-27.29 20.99,-46.62 -14.12,0.94 -45.3,44.7 -48.06,56.13 -0.78,0.13 -2.33,0.38 -3.11,0.5 -0.74,1.25 -1.48,2.52 -2.22,3.78 0,-7.07 6.77,-27.2 2.45,-31.38 0.82,0.93 2.47,2.77 3.29,3.7 18.64,-28.06 49.59,-47.44 70.41,-74.44 8.14,-7.35 13.8,-16.93 21.16,-25.02 1.02,0.25 3.05,0.74 4.07,0.99 -0.98,-0.52 -2.92,-1.57 -3.9,-2.11 22.49,-31.47 80.09,-47.84 94.01,-75.93 6.57,-13.25 0.74,-20.68 22.88,-35.17 -0.56,4.71 -1.96,8.81 -2.07,13.61 15.26,-3.32 24.14,-21.54 39.95,-21.36 -1.45,0.64 -2.92,1.24 -4.35,1.9 -2.18,6.04 -29.29,30.91 -35.82,36.26 1.16,1.29 2.29,2.62 3.53,3.87 5.34,-2.43 12.69,-1.38 18.41,-1.68 -25.88,28.1 -36.61,0.88 -53.1,57.22 -3.56,12.18 1.36,43.63 12.89,50.27 7.41,5.47 16.99,6.75 24.66,11.91 -0.56,1.01 -1.69,3.05 -2.26,4.07 0.69,-0.86 2.08,-2.61 2.77,-3.47 8.47,4.57 12.43,13.78 19.72,19.69 1.57,-9.67 2.9,-14.07 9.21,-21.49 8.85,4.69 22.21,9.23 25.2,19.26 -7.15,0.17 -14.12,-1.71 -20.53,-4.75 -1.49,0.58 -2.99,1.17 -4.46,1.75 0.55,0.17 1.63,0.52 2.18,0.69 9.05,18.7 37.42,26.63 52.72,44.26 5.01,6.36 10.62,12.34 16.82,17.56 0.58,-0.27 1.76,-0.77 2.34,-1.03 0.86,-7.05 -4.01,-14.58 0.44,-21.09 11.47,20.58 29.35,36.1 51.96,43.49 42.08,13.76 56.69,1.02 90.67,-11.17 0.11,-1.14 0.35,-3.4 0.46,-4.55 0.41,0.71 1.23,2.11 1.62,2.8 11.22,-7.46 19.49,-18.44 29.8,-27.03 -0.88,4.4 -1.87,8.77 -2.61,13.22 25.28,-8.59 57.61,-41.5 85.06,-56.63 9.13,-4.96 19.3,-8.32 27.1,-15.42 -21,1.94 -40.68,6.27 -58.68,17.43 -2.43,-1.24 -4.87,-2.49 -7.29,-3.71 1.36,-19.19 9.59,-10.19 15,-20.23l-1.17 2.66c43.8,-19.76 53.3,3.91 85.18,2.57 20,-72.24 -39.59,-80.36 -37.62,-121.96 2.87,0.7 5.69,1.6 8.52,2.5 -3.63,-11.36 -42.17,-33.35 -47.07,-31.86 0.99,-0.35 2.99,-1.06 3.98,-1.4 -3.95,-4.29 -9.61,-8.83 -9.5,-14.78 16.88,9.55 32.98,22.38 50.63,30.35 -1.7,-5.36 -3.62,-10.65 -5.03,-16.09 26.37,2.02 7.92,33.98 34.67,50.39 41.15,25.24 163.14,136.04 172.3,174.46 0.77,0.13 2.32,0.4 3.09,0.52 5.97,12.57 18.41,20.06 25.79,31.53 -27.82,-7.53 -52.17,-63.11 -75.74,-63.11 -1.66,1.73 -3.35,3.45 -5,5.18 1.81,2.65 3.59,5.31 5.33,8.04 1.53,-0.89 3.02,-1.9 4.7,-2.5 -3.63,15.76 58.02,48.09 72.68,111.27 23.14,99.73 51.26,60.63 45.49,147.83 -1.61,24.31 -9.19,78.36 -6.59,97.44 2.73,20.08 20.02,-4.33 21.3,-12.7 9.84,-64.55 13.99,-141.3 -5.74,-204.34 -5.16,-16.47 -11.42,-23.97 5.93,-35.68 11.54,-7.8 11.36,-90.97 12.32,-102.79 0.93,-11.56 18.87,-56.27 24.56,-71.44 29.69,9.83 9.97,109.11 4.11,128.16 -2.31,4.72 -6.64,8.56 -7.06,14.07 -7.59,82.87 23.14,212.56 -24.5,284.86 -2.39,2.84 -3.56,6.33 -4,9.99 10.65,-3.71 33.06,-18.26 34.66,-30.33 0.49,0.05 1.46,0.11 1.95,0.14 28.93,-56.99 37.21,-58.31 65.24,-130.47 8.43,-21.68 92.42,-238.58 101,-242.28 45.68,25.31 -58,166.98 -58.72,186.85 9.43,-9.79 42.43,-53.44 42.64,-64.49 6.86,-5.44 15.09,-17.86 17.51,-26.01 0.57,0.04 1.73,0.12 2.3,0.17 13.93,32.66 41.94,17.93 56.83,37.5 7.32,9.62 101.41,72.37 117.8,80.14 38.28,18.15 40.44,3.39 51.1,46.67 2.81,11.4 8.89,21.39 17.15,29.72 -33.23,25.09 -78.56,-78.08 -129.77,-110.46 -15.21,-9.62 -58.08,14.22 -36.03,95.7 3.44,12.72 9.28,27.78 7.82,41.1 -53.85,-44.13 -75.83,-240.07 -131.8,-108.28 -40.96,96.45 -52.48,44.09 0.74,150.23 4.37,8.73 11.39,20.31 18.56,26.97 0.17,-15.43 -1.32,-30.93 -0.22,-46.29 10.64,4.38 33.26,92.46 64.94,147.23 53.24,92.04 64.86,149.36 -15.32,226.24 -41.27,39.56 -124.08,83.58 -184.29,85.28 4.86,-1.18 8.38,-3.07 12.86,-5.38 -0.65,-0.69 -1.94,-2.09 -2.6,-2.78 1.2,1.09 2.41,2.2 3.63,3.33 39.36,-13.86 143.29,-89.47 146.19,-102.99 27.4,-127.58 -65.18,-257.11 -83.02,-347 -0.9,22.66 17.85,45.76 16.49,69.1l1.84 -0.63c0.55,36 20.24,73.08 17.78,108.76 -18.15,-49.23 -30.79,-100.96 -46.67,-150.82 -0.77,0 -2.34,-0.02 -3.11,-0.02 0.67,-0.11 2.04,-0.34 2.73,-0.45 -3.85,-11.05 -6.15,-29.27 -14.94,-37.39 -40.73,1.99 -24.38,35.53 -42.8,95.15 -30.67,99.27 -159.68,117.67 -88.16,130.33 14.36,30.21 -26.19,55.53 -34.58,80.68 -33.28,99.74 -97.87,138.86 -196.78,185.24 -39.33,18.44 -12.05,46.65 -83.73,62.43 -12.02,-43.14 -52.36,2.61 -87.26,-4.23 -12.86,-2.51 -28.42,-2.67 -41.06,1.04 -0.53,0.31 -0.52,-0.08 -0.56,-0.24 -5.48,-33.71 2.91,-83.44 2.8,-84.3 -4.29,-32.83 31.59,-193.89 42.53,-190.84 24.89,57.58 3.14,52.6 -11.41,106.23 -2.78,5.39 -4.75,11.44 -2.31,17.38 5.77,-4.48 9.44,-10.76 12.18,-17.4l-3.41 0.63c1.1,-0.6 2.21,-1.16 3.33,-1.71 0.97,-5.13 2.42,-10.26 6.6,-13.69 -0.68,18.76 -2.85,40.94 -11.65,57.7 -5.5,0.26 -12.91,0.53 -12.26,8.41 12.39,-3.51 23.86,-10.05 33.44,-18.63 -2.43,27.85 -40.86,38.67 -38.43,66.96 26.95,-1.01 22.31,-24.1 41.32,-35.32 0.11,-0.9 0.34,-2.72 0.45,-3.63 7.98,0.4 21.16,-29.89 48.74,-29.89 0.64,20.17 -21.6,34.32 -20.88,53.12 34.13,4.16 26.55,-60.94 33.74,-78.6 5.11,-12.55 12.64,-26.63 1.78,-37.79 -11.84,14.53 -24.54,38.57 -31.27,56.21 -0.69,0.12 -1.36,0.25 -2.01,0.42 -6.96,19.4 -14.71,2.23 -19.97,-6.03 -1.09,-0.1 -3.24,-0.3 -4.33,-0.41 1.42,-9.98 2.28,-20.01 3.15,-30.04 4.44,0.46 8.97,0.99 13.4,-0.04 3.5,-8.09 6.34,-16.13 9.42,-24.33 16.82,-2.86 22.59,0.1 35.71,-13.82 -3.76,-3.44 -9.96,-1.96 -14.9,-2 -7.09,-14.13 -15.5,-35.49 -27.66,-45.36 -0.26,-3.57 -2.51,-4.76 -5.11,-7.09 -3.76,0.22 -7.5,0.41 -11.24,0.6 -4.02,-9.51 -9.86,-42.05 -9.31,-51.24 -10.19,-0.69 -26.5,2.75 -36.25,6.12 0.42,15.24 20.27,22.17 18.29,38.08 -21.16,7.24 -9.58,-33.62 -39.44,-45.34 -1.65,25.31 -3.08,51.15 0.24,76.27 1.79,13.02 6.54,25.84 5.28,39.11 -3.03,6.3 -13.11,5.89 -16.28,-0.04 -7.17,-21 -1.74,-45.97 -7.44,-67.52 -3.65,6.78 -5.35,14.55 -7.79,21.88 0.85,0.32 2.54,0.98 3.39,1.29l-1.46 1.84c-0.82,-0.74 -1.62,-1.45 -2.4,-2.15 -2.87,7.7 -2.85,84.01 -26.46,57.82 -8.07,9.72 3.27,22.1 1.88,32.61 -2.85,21.41 -13.81,117.94 -5.05,135.28 15.67,-35.93 8.72,-53.12 14.9,-88.58 0.49,16.28 24.98,90.29 30.43,117.65 -84.6,11.88 -44.73,1.3 -79.88,-15.57 -9.76,-3.06 -21.06,-3.37 -30.55,0.68 -0.03,0.71 -0.07,2.14 -0.08,2.85 -0.28,-0.62 -0.85,-1.83 -1.13,-2.44 -66.42,17.13 -39.01,48.48 -143,-41.54 -52.14,-45.14 -162.26,-70.38 -183.33,-141.17 -7.12,-23.93 -6.39,-52.51 -18.02,-74.88 -3.66,-7.03 -19.61,-27.42 -26.28,-30.35 -3.52,-38.7 23.96,-16.85 -37.36,-110.81 -22.93,-35.12 -34.15,-76.6 -57.37,-111.88 -13.05,-19.82 -25.68,-45.52 -42.28,-62.44 -9.7,46.47 -7.12,90.75 -25.1,135.58 -2.99,-18.57 7.79,-49.52 -3.21,-64.48 -3.04,35.02 -68.13,108.58 -69.6,155.61 -4.84,155.8 -62.4,130.06 46.92,211.98 18.91,14.16 79.52,54.21 80.61,75.14 -31.44,2.31 -78.37,-43.69 -104.01,-62.05 -0.11,-0.93 -0.33,-2.75 -0.44,-3.66 -5.02,-0.16 -74.69,-61.48 -101.19,-79.71 -20.93,-14.39 -7.15,-90.3 8.2,-112.72 46.49,-67.91 63.97,-102.83 89.53,-184.98 3.85,-13.77 6.77,-28.1 14.24,-40.5 0.79,15.42 0.84,36.78 -6,50.83 12.11,-12.41 54.49,-105.65 50.87,-118.92 -1.55,-5.68 -59.87,-105.13 -69.61,-114.93 -50.3,87.81 -32.2,8.4 -74.69,118.46 -0.86,-0.2 -2.59,-0.59 -3.46,-0.8 -12.03,-23.56 -5.18,-58.74 -23.76,-78.5 -2.88,0.06 -5.74,0.12 -8.6,0.25 -19.5,26.43 -127.01,130.42 -141,133.94 0,-24.83 21.46,-44.82 23.2,-68.78 1.21,-18.15 4.13,-36.89 13.56,-52.76 2.03,-0.02 4.04,-0.03 6.07,-0.02 30.16,37.92 -3.7,39.89 33.96,19.55 0.72,-4.01 3.75,-5.31 7.02,-7.62 0,-0.91 0.03,-2.75 0.03,-3.66 9.28,0 64.23,-49.62 91.63,-55.39 11.26,-2.37 34.43,-17.98 32.02,-28.48 1.96,0.58 3.7,1.64 5.56,2.5 5.73,-5.66 13.82,-18.26 22.4,-18.34 -4.04,-7.07 -10.46,-13.57 -10.24,-22.27 3.2,-1.62 4.83,-2.92 8.37,-2.09 10.04,29.57 33.35,58.86 51.68,83.79 -4.93,-40.73 -43.78,-100.55 -46.65,-150.7 5.51,-2.91 8.59,-5.77 14.83,-6.9 -3.29,86.88 9.87,74.33 51.02,155.47 31.71,62.53 53.53,144.6 112.13,189.12 0.92,10.84 7,26.3 12.7,35.58 0.88,-0.02 2.61,-0.05 3.47,-0.06 9.24,-25.49 -18.87,-22.03 -15.97,-99.98 5.02,-134.93 26.97,-79.68 -11.82,-199.3 -6.26,-19.32 -2.92,-72.82 -16,-125.63 -10.6,-42.83 -25.78,-41.25 -58.07,-79.12 -7.44,-8.72 -74.19,-103.21 -63.09,-106.15 4.43,-0.21 10.26,1.14 11.79,5.91 0.7,0.17 2.1,0.53 2.81,0.7 86.18,154.63 -26.92,-77.08 -33.42,-94.55 -27.41,-73.79 -10.54,-129.88 -11.17,-134.89 -11.74,-0.32 -31.01,3.03 -41.23,-3.99 -1.17,-11.53 -5.36,4.06 -4.51,-34.09 -1.55,-0.52 -3.11,-1.02 -4.67,-1.54 -15.78,-39.88 -21.88,-83.46 -32.88,-124.72 -5.49,-20.6 11.04,-39.01 -17.33,-41.65 -4.44,53.76 -10.53,20.6 -24.68,36.46 -23.38,26.21 -11.05,86.5 -20.18,97.28 -2.03,-2.78 -4.29,-5.41 -7.09,-7.44 -1.85,-12.4 -15.56,-13.52 -9.52,-29.18 17.88,-46.4 36.79,-66.91 36.79,-66.91 -0.19,-6.56 -7.2,-10.42 -13.19,-8.77 -3.97,6.19 -6.5,13.31 -11.63,18.72 -16.08,-10.41 -18.89,-57.57 -14.36,-72.26l0.63 2.46c2.4,-0.07 4.82,-0.13 7.23,-0.18 2.14,-15.99 -30.62,-82.74 -40.92,-96.67 -24.23,-32.81 -28.29,12 -27.03,-65.64 31.08,4.99 115.2,135.02 118.08,101.8 2.59,-29.78 -35.25,-67.1 -35.49,-105.23 3.57,-2.54 6.26,-6.05 9.01,-9.41 92.29,84.6 23.47,273.25 120.4,329.31 -1.36,3.61 -4.62,6.24 -6.98,9.29 -10.28,-0.06 -17.01,-9.82 -25.54,-14.76 -8.73,11.71 -3.18,21.1 1.22,33.9 2.01,-0.23 4.03,-0.47 6.05,-0.71 1.15,-3.41 2.42,-6.77 3.68,-10.15 7.94,-1.69 19.51,-6.16 27.44,-5.47 0,31.16 -11.38,17.57 -30.79,31.11 13.19,31.49 67.91,17.58 65.69,-29.93 -5.3,-1.72 -10.4,-2.79 -15.26,-5.52 4.43,-12.3 13.07,-14.16 24.94,-14.77 1.04,2.84 2.14,5.69 3.2,8.53 17.47,0.28 51.19,-41.46 132.38,-40.99 62.73,0.22 125.44,-0.19 188.17,0.21 -0.97,-20.14 -37.47,-46.63 -56.49,-37.3 -7.96,3.69 -16.41,6.13 -25.18,6.77 -0.83,-2.07 -1.65,-4.13 -2.47,-6.22 0.94,-1.9 1.87,-3.82 2.77,-5.74 0.78,-0.23 2.34,-0.72 3.13,-0.97 -20.13,-6.04 -45.4,-4.34 -66.66,-7.62 10.47,-4.53 22.72,-0.85 32.85,-6.65 -45.38,-19.86 -34.51,-9.76 -47.88,3.23 -8.49,8.26 -40.51,7.42 -38.51,-9.52 6.57,-3.05 16.63,-4.59 16.92,-13.71 -16.04,0.44 -31.28,9.27 -47.55,2.9 1.51,-0.85 4.5,-2.55 6,-3.4 -8.41,-3 -52.72,-7.38 -61.59,-3.35 -1.87,10.23 0.03,16.56 -5.09,25.65 5.85,13.45 14.69,18.28 12.93,35.24 -8.32,-4.91 -16.77,-11.5 -26.91,-11.35 -11.69,24.62 -7.84,26.93 17.24,39.86 0.26,0.88 0.76,2.66 0.99,3.54 -7.93,9.32 -19.15,16.83 -31.96,15.4 0.69,4.17 -1.67,5.99 -5.8,5.85 1.13,-1.35 3.38,-4.07 4.49,-5.42 -1.33,-2.44 -4.15,-2.74 -6.52,-3.49 -4.3,-18.39 -37.29,-17.74 -35.15,-40.03 5.02,-2.28 10.03,-4.59 14.78,-7.42 -0.54,-11.95 -8.14,-21.93 -10.92,-33.24 10.76,5.14 16.28,17.39 27.89,21.28 -4.63,-26.64 -29.29,-25.05 -41.44,-44.14 5.31,0.85 10.59,2.06 15.98,2.33 -17.61,-29.06 -49.94,-24.05 -45.55,-68.67 13.17,4.91 47.87,65.72 69.03,61.3 7.37,-3.79 12.36,-11.02 20.34,-13.74 3.76,15.21 -16.31,15.45 -14.13,28.21 11.23,4.9 19.36,-0.86 30.68,-2.97 0.24,-8.64 -4.81,-16.14 -5.84,-24.58 24.55,-0.75 39.26,0.28 56.48,-21.71 0.98,-0.09 2.91,-0.29 3.87,-0.39 0.06,-0.56 0.19,-1.68 0.25,-2.25 6.96,-2.92 18.51,-6.07 22.3,-12.6 -2.53,-1.75 -5.01,-3.57 -7.35,-5.55 -9.86,0.87 -15.86,10.11 -23.55,15.29 3.31,-40.69 82.68,-13.79 102.2,-3.78 4.9,2.76 10.59,1.36 15.7,0.01 5.71,8.47 29.03,24.01 38.34,32.66 -8.46,9.16 -16.8,-13.48 -42.33,15.91 10.06,-0.22 20.18,-0.14 30.13,1.55 -0.16,0.82 -0.46,2.42 -0.61,3.24 16.81,-1.18 20.63,2.97 32.85,-9.71 0.8,0.06 2.37,0.2 3.17,0.28 -0.06,1.18 -0.11,2.36 -0.14,3.54 -5.03,2.88 -9.61,7.92 -14.27,11.47 10.76,6.33 33.71,-6.31 44.24,-10.34 0.11,1.46 0.35,4.38 0.46,5.85 -3.81,4.02 -8.02,7.6 -12.07,11.36 14.33,1.33 22.86,-10.43 36.07,-10.14 -3.28,32.47 -11.45,-0.48 21.56,18.06 -0.23,8.11 -2.5,16.11 -1.73,24.27 8.42,5.71 22.13,11.11 32.11,5.48 -3.91,-5.67 -7.34,-12.19 -5.62,-19.31 4.96,3.08 8.55,7.79 13.36,11.08 0.44,-7.45 -3.78,-13.99 -3.84,-21.36 8.95,-4.47 19.21,-14.14 27.9,-5.57 -0.47,11.26 -4.19,18.48 -7.83,28.86 8.36,2.85 17.02,0.11 24.29,-4.26 -0.27,-4.16 -0.66,-8.33 -0.73,-12.49 5.16,3.13 7.61,5.05 10.25,10.37 0.87,0.03 2.59,0.11 3.46,0.16 4.26,7.19 14.48,12.02 22.13,14.43 -6.97,-9.94 -15.34,-16.93 -18.71,-28.91 0.87,0.03 2.63,0.1 3.49,0.13 0.08,-2.39 0.18,-4.8 0.3,-7.19 11.78,-0.67 24.69,34.98 29.58,43.5 6.34,-7.23 2.72,-18.03 8.69,-25.34 43,55.33 25.06,42.14 78.09,-5.38 14.38,-12.89 3.25,-46.1 16.5,-55.15 28.4,31.14 -13.98,62.25 -13.72,85.52 4.32,0.49 8.65,0.96 12.97,1.51 0.12,-0.99 0.37,-2.96 0.52,-3.95 0.84,-0.14 2.56,-0.41 3.42,-0.53 5.65,-7.96 11.77,-23.95 19.55,-28.7 0.08,11.24 -0.78,22.6 1.55,33.7 13.91,-1.37 16.62,-12.79 25.35,-22.18 2.65,0.93 3.68,3.38 3.41,6.07 -2.65,-2.62 -11.29,26.07 -15.36,30.77 19.13,-1.65 31.33,-32.21 42.39,-45.17 5.14,10.28 -9.93,30.5 -12.89,41.49 -0.5,-0.01 -1.51,-0.06 -2.01,-0.09 0.13,1.9 0.27,3.8 0.41,5.7 6.55,-8.52 13.37,-21.47 23.15,-26.07 5.22,23.57 -11.78,22.32 -21.59,38.16 8.15,-1.18 13.92,-10.54 21.72,-9.81 -16.34,33.27 -41.94,32.13 -39.92,53.44 4.02,0.32 7.08,2.89 9.99,5.41 -0.05,2.45 -0.06,4.92 -0.09,7.39 5.3,2.94 118.82,0.21 131.21,-3.81 -0.86,-2.89 -45.53,-40.73 -54.1,-42.5 -2.22,-0.99 -4.45,-1.98 -6.67,-2.95 0.46,-0.36 1.37,-1.09 1.81,-1.45 -2.28,-4.18 -1.87,-9 -2.2,-13.58 10.83,-6.46 22.39,6.63 31.83,-0.91 1.51,-16.88 -21.49,-34.4 -37,-39.8 -0.39,-2.24 -0.77,-4.49 -1.1,-6.74 17.41,8.77 35.95,1.63 43.61,22.56 4.29,11.7 16.08,26.49 30.53,24.78 -9.99,-17.33 -25.54,-30.47 -33.37,-48.96 16.98,-0.28 18.24,10.98 30.52,18.02 0.05,0.76 0.16,2.29 0.21,3.04 8.55,3.8 18.1,9.98 26.04,15.09 0.98,-0.8 1.95,-1.62 2.94,-2.42 -3.42,-13.56 -35.73,-40.35 -30.07,-53.44 4.21,-9.73 18.41,-12.08 22.59,-24.11 -0.85,-1.27 -1.57,-2.39 -2.39,-3.63 4.92,-4.92 3.19,-17.11 6.32,-23.98 1.27,0.26 3.85,0.78 5.12,1.03 4.53,8.21 4.28,17.75 1.98,26.57 -1.02,-0.73 -2.04,-1.45 -3.05,-2.16 0.63,0.55 1.87,1.65 2.5,2.2 -3.97,9.89 -10.04,19.56 -8.63,30.68 6.08,17.03 34.43,55.47 55.83,42.39 -0.6,-4.7 -0.83,-9.43 -0.61,-14.16 9.51,4.87 19.64,15.73 26.59,-1.29 3.33,-7.51 5.65,-15.6 10.82,-22.17 2.23,0.14 4.46,0.26 6.71,0.39 4.31,11.68 6.75,20.87 5.61,33.68 19.29,-5.22 24.31,-38.52 36.15,-52.43 1.66,-0.13 3.35,-0.24 5.04,-0.35 0.09,13.66 0.01,30.83 3.1,44.15 30.62,-0.71 22.09,-26.77 40.35,-32.01 9.33,15.1 16.71,35.3 36.38,27.97 2.06,-9.6 -0.3,-19.5 1.98,-29.06 8.46,-0.27 17.32,-2.7 25.04,2.12 0.11,-12.8 -14.31,-25.52 -12.56,-31.79 9.2,-0.36 34.62,9.73 38.78,18.31 0.37,0.01 1.13,0.05 1.51,0.06 16.42,-25.6 20.54,4.47 78.28,-6.08 2.85,-0.77 4.92,-3.13 7.33,-4.75 -1.73,-11.96 1.15,-18.12 6.35,-28.75 -12.28,1.18 -23.97,5.52 -35.19,10.41 0.5,-2.75 1,-5.52 1.55,-8.27 11.53,0.1 31.41,-11.7 40.92,-18.28 0.18,-2.07 0.37,-4.13 0.61,-6.21 30.47,-8.47 56.28,-25.85 88.55,-4.41 16.1,10.69 36.52,26.23 46.12,43.13 15.26,0.29 27.64,-10.54 42.29,-13.11 -5.64,14.2 -30.85,22.74 -17.13,40.64 10.59,13.83 47.63,-16.68 52.92,-25.54 13.04,-21.84 28.25,-48.56 48.36,-64.77 1.04,15.84 -40.44,89.31 -58.72,94.05 -27.18,7.06 -1.09,26.94 19.55,15.28 -4.44,14.8 -18.31,26.58 -9.41,43.24 -12.76,8.85 -24.88,9.7 -39.09,14.11 1.46,2.57 3,5.11 4.51,7.68 0.93,0.09 2.81,0.29 3.74,0.4 0.05,1.01 0.16,3.02 0.21,4.03 10.53,6.38 17.12,16.04 2.13,23.4 5.22,12.21 19.21,13.69 22.09,26.56 2.97,13.3 30.18,24.05 39.37,13.22 -2.72,-4.73 -4.28,-10.36 -7.86,-14.44 -4.46,6.98 -13.63,8.61 -21.36,8.03 -2.11,-4.39 6.02,-31.42 6.11,-40.1 10.76,-9.69 22.75,-1.44 33.2,4.58 28.36,-42.21 63.5,-217.61 71.83,-267.2 3.39,-20.18 11.32,-37.69 17.41,-57.04 9.75,6.61 4.49,11.59 2.89,21.61 2.63,0.29 5.38,0.4 7.75,1.76 17.69,-71.93 73.73,-118.01 105.75,-116.96zm-404.52 294.67c-4.82,6.83 -1.13,15.46 -1.85,23.12 -14.83,2.9 -27.9,-12.01 -42.11,-11.74 -0.11,1.14 -0.33,3.41 -0.44,4.54 -3.8,-2.17 -12.2,-4.42 -13.27,1.43 -0.64,-0.05 -1.91,-0.11 -2.54,-0.14 2.29,1.36 1.4,4.24 1.79,6.44 -9.67,7.78 -25.23,-1.68 -37.14,3.47 -0.17,1.81 -0.33,3.62 -0.49,5.43 -16.07,3.59 -28.05,13.6 -45.06,11.28 -3.28,-7.41 -14.18,-9.81 -16.86,-19.28 -1.26,0 -3.78,0 -5.05,0 -5.19,12.97 -2.04,18.58 0.03,31.04 -6.47,-1.99 -27.87,-26.38 -22.55,12.35l-3.65 -0.61c0.43,0.71 1.27,2.14 1.7,2.84 -5.67,1.81 -7.53,2.75 -10.05,8.02 65.76,2.18 163.96,-11.13 225.69,3.35 14.88,3.49 83.33,38.85 86.35,38.66 1.29,-1.63 2.6,-3.25 3.92,-4.85 -4.86,-4.7 -25.87,-11.5 -26.55,-17.62 -5.01,-0.09 -7.54,-3.75 -12.34,-4.99 0.72,-19.81 33.62,-23.42 48.38,-23.86 -25.08,-31.55 -28.16,-9.08 -47.86,-18.59 3.48,-31.6 6.12,-5.41 3.32,-50.19 -27.09,-5.63 -23.9,8.65 -41.83,8.38 -9.8,-0.14 -34.33,-14.92 -41.54,-8.48zm-1002.83 125.75c-6.34,4.26 -15.38,5.9 -19.35,12.42 6.4,17.13 7.04,15.42 -2.62,30.57 -4.82,-50.41 -61.71,-32.55 -31.25,-4 4.81,3.26 10.31,5.02 16.16,4.47 26.86,31.79 20.77,13.53 51.94,18.95 11.02,1.92 -11.22,20.3 -33.19,17.25 -1.53,-2.47 -3.11,-4.91 -4.62,-7.38 -0.47,-0.03 -1.45,-0.07 -1.92,-0.11 -0.68,-4.88 -5.03,-7.87 -8.75,-10.53 -2.04,12.54 14.35,20.3 14.67,31.85 -5.05,-2.14 -25.76,-26.2 -38.67,-29.49 6.6,23.45 28.52,34.77 40.47,54.78 -15.29,-0.49 -36.62,-16.48 -41.47,-31.67 4.8,63.9 13.81,41.43 48.71,84.05 1.44,-6.72 -2.29,-14.43 -3.34,-21.25 7.15,8.14 22.57,18.63 25.65,29.25 3.19,1 4.71,5.86 7.78,7.67 9.46,4.61 19.5,-3.09 29.26,-1 39.28,10.86 64.47,-9.8 61.57,0.8 -26.78,2 -14.27,18.73 -66.41,10.06 -19.62,-3.26 -36.79,14.85 -64.6,6.35 -11.24,-4.44 -23.54,0.99 -34.95,-2.71 -1.17,-2.46 -2.14,-5.01 -2.91,-7.6 18.57,-8.24 45.43,-0.17 66.18,-0.79 -0.22,-0.93 -0.69,-2.77 -0.92,-3.69 -92.03,-39.22 -52.23,-47.07 -127.78,-52.73 -5.49,-0.42 -16.78,8.91 -19.95,6.63 -35.1,7.66 -33.21,26.31 -48.66,21.48 13.08,-24.32 72.54,-40.12 98.55,-35.36 6.49,1.18 13.12,0.49 19.67,0.61 -7.45,-20.61 -17.1,-36.74 -16.12,-60.16 -1.09,0.01 -3.24,0.03 -4.31,0.04 -1.82,4.73 -2.15,9.78 -1.92,14.79 -2.01,0.05 -3.99,0.04 -5.98,0.02 -0.04,-5.6 0.04,-11.21 -0.25,-16.79 -1.23,-0.66 -2.44,-1.32 -3.64,-1.98 -1.19,0.66 -2.39,1.31 -3.56,1.97 -0.21,1.62 -0.41,3.25 -0.6,4.89 -26.75,9.36 -38.1,4.99 -64.74,5.92l0.91 -2.45c-9.74,11.28 -30.14,3.33 -43.21,2.84 0.02,-0.07 0.07,-0.26 0.08,-0.36 59.09,-27.6 0.75,-4.89 70.4,-9.99 -3.16,-4.42 -16.97,-9.47 -22.48,-9.37 -1.47,-2.97 -3.93,-5.31 -6.8,-6.89 -0.49,-3.6 -2.13,-5.75 -3.95,-8.88 1.69,-0.01 3.37,-0.03 5.05,-0.03 3.68,4.55 9.46,6.73 14.07,10.2 -1.51,0.92 -3.02,1.81 -4.5,2.74 2.36,0.5 4.21,-0.74 5.08,-2.88 9.95,8.8 29.72,6.99 39.4,-1.35 -2.59,-1.93 -2.01,-5.25 -2.31,-8.06 -16.81,-10.58 -31.31,1.56 -45.36,-20.92 -4.75,-5.21 -10.42,-10.56 -17.6,-11.85 -2.8,4.98 0.44,10.79 -1.26,16.11 -3.77,0.5 -5.51,1.73 -8.57,3.97 -1.21,-5.65 -6.27,-9.14 -9.87,-13.28 -27.95,0.4 -35.67,122.9 -33.6,140.63 7.04,60.16 53.4,88.47 99.18,120.78 10.81,7.64 125.31,14.52 160.69,-8.45 2.58,-2.11 5,-4.8 8.6,-4.89 2.92,-5.38 14.51,-11.46 20.51,-10.86 -15.11,30.22 -73.13,44.43 -100.78,44.51 15.82,16.85 61.84,1.53 111.45,12.01 23.78,5.02 90.4,-36.54 89.4,-18.12 -1.08,-0.05 -3.25,-0.11 -4.34,-0.14 -10.92,21.79 -87.58,31.61 -111.06,33.13 -0.06,0.28 -0.2,0.83 -0.28,1.11 37.29,4.12 74.36,1.59 111.86,1.45 8.04,-9.71 47.62,-17.93 63.41,-34.11 2.24,-2.91 5.04,-5.29 8,-7.45 0.85,0.36 2.51,1.07 3.36,1.42 -0.88,-0.58 -2.64,-1.75 -3.5,-2.33 15.11,-20.67 40.32,-36.2 53.14,-57.81 18.54,-31.27 15.31,-24.6 44,-51.53 0.02,-0.78 0.04,-2.3 0.04,-3.07 11.99,-2.33 47.48,-98.37 29.29,-110.57 -2.84,1.33 -5.7,2.61 -8.64,3.72 -2.47,14.23 -2.11,27.61 -6.08,41.81 -1.34,-0.06 -2.64,-0.11 -3.93,-0.12 -0.15,-11.07 2.7,-22.5 -0.57,-33.31 -1.27,6.55 -5.47,13 -11.54,15.8 -3.13,-12.18 -4.27,-24.2 -9.03,-35.85 -12.3,-0.31 -17.21,-14.48 -37.22,-17.97 6.8,36.6 4.54,16.56 16.09,42.56 -11.81,-1.24 -40.72,-16.3 -48.88,-25.57 -6.84,2.87 1.61,39.72 0.28,48.02 -0.83,0.14 -2.48,0.45 -3.31,0.61 -11.07,-14.59 -5.09,-30.23 -9.53,-46.92 -1.55,-0.22 -3.09,-0.44 -4.62,-0.69 5.19,3.98 -8.44,30.68 -9.71,35.24 -4.94,-5.31 -4.95,-10.44 -6.12,-17.52 -0.56,-0.21 -1.69,-0.62 -2.27,-0.82 -0.74,-2.03 -1.56,-4.04 -2.41,-6.01 -2.72,1.8 -6.88,2.46 -8.08,5.82 0.66,0.79 1.98,2.36 2.66,3.14 -4.06,-5.64 -25.09,3.11 -31.47,4.75 0.15,-11.55 32.77,-12.42 42.38,-25.29 -4.66,-6.95 -21.93,2.07 -34.83,-5.15 5.43,-8 42.2,-14.18 30.2,-31.86 -6.97,-10.29 -21.69,-5.82 -34.23,-9.03 -12.47,-3.18 -23.04,-10.4 -36.05,-11.41 0.15,11.97 10.59,32.94 -27.21,47.52 -55.78,21.52 -61.52,-13.15 -91.54,-46.24 -3.75,-0.03 -7.62,-0.13 -10.92,1.93zm897.75 -2.92c-24.6,22.45 -26.96,73.98 -89.28,47.98 -38.35,-16 -30.78,-60.05 -88.14,-32.94 -23.55,11.13 -15.52,11.04 12,26.01 -0.5,4.45 -1.11,8.88 -1.65,13.31 -5.83,3.4 -9.93,0.41 -15.71,-1.98 -0.8,26.39 -2.15,21.92 30.08,16.4 1.44,3.23 -1.7,7.25 -1.7,10.76 -14.24,8.05 -18.04,0.98 -31.39,-3.08 0.04,-0.64 0.12,-1.92 0.15,-2.56 -30.42,-4.14 -20.49,25.55 -29.66,42.78 -7.6,14.28 -13.24,-30.78 3.93,-46.43 2.26,-1.95 2.2,-5.01 2.56,-7.71 -21.11,1.6 -43.43,24.57 -56.98,19.97 -1.1,-4.88 4.91,-8.14 8.27,-10.92 -5.93,0.97 -15.9,3.51 -19.72,8.24 -2.74,0.28 -5.49,0.34 -8.21,0.14 10.58,-15.97 23.97,-27.28 32.43,-45.3 -3.05,-2.85 -3.76,-9.73 -8.46,-9.79 -11.2,12.89 -8.52,31.32 -28.97,34.29 0.32,1.43 0.95,4.32 1.26,5.77 -0.64,-2.07 -1.76,-3.8 -3.35,-5.2 -1.49,9.29 1.28,19.25 -3.94,27.79 -5.59,-12.3 -5.14,-31.61 -20.2,-21.32 -5.03,52.39 43.83,41.86 48.55,82.14 1.37,11.68 -1.19,16.03 -10.2,21.98 -0.11,1.06 -0.31,3.17 -0.41,4.24 -40.08,1.15 -36.59,-96.3 -49.18,-112.57 -0.99,0.1 -2.98,0.3 -3.97,0.4 -11.07,31.86 20.24,94.14 20.95,99.53 0.52,-0.03 1.54,-0.06 2.06,-0.08 6.74,29.53 83.6,117.49 109.99,127.5 5.65,18.7 74.55,38.79 93.72,42.65 -0.05,-1.12 -0.13,-3.37 -0.17,-4.48 2.76,-1.64 4.6,-4.28 6.25,-6.97 27.68,1.42 51.62,11.37 79.69,0.99 0.11,-0.53 0.31,-1.6 0.41,-2.15 -80.51,-8.4 -21.26,12.98 -121.78,-33.56 36.93,-1.18 36.41,33.67 144.38,23.19 24.74,-3.46 49.7,0.15 74.55,-1.25 0.19,-1.49 0.39,-3 0.61,-4.47 -31.2,-23.59 -50.71,-9.48 -85.89,-22.7 0.14,-0.53 0.43,-1.6 0.59,-2.15 -3.42,0.7 -5.22,-1.72 -5.03,-4.88 54.01,-12.29 167.16,55.35 239.72,-52.21 1.99,-2.94 2.6,-3.77 2.35,-7.28 65.53,-17.14 12.69,-163.89 -2.42,-188.18 -3.79,-13.01 -18.87,-16.61 -30.17,-20.45 4.43,6.24 9.82,8.6 14.13,15.15 -4.14,-3.37 -14.08,-6.15 -19.53,-6.72 0.06,-0.29 0.22,-0.85 0.28,-1.14 -25.75,-2.48 -45.92,-9.66 -71.51,-2.9 -5.41,0.99 -4.67,8.75 0.51,9.22 7.23,13.95 27.06,13.45 39.39,11.35 3.3,5.82 6.17,8.89 1.98,15.14 -20.15,-0.42 -30.69,-3.74 -48.34,-12.26 1.02,4.38 3.33,9.07 7.52,11.22 0.02,0.41 0.05,1.26 0.07,1.68 -6.89,-2.53 -14.04,-5.39 -18.8,-11.21 -3.18,7.67 -0.9,12.2 -0.13,19.49 12.06,6.81 45.97,12.23 47.45,25.37 -18.57,-0.7 -29.52,-16.58 -47.92,-14.03 -1.16,13.03 0.42,22.77 -3.61,36.55 -0.82,-0.53 -2.44,-1.6 -3.26,-2.12 0.74,0.6 2.22,1.79 2.96,2.39 -12.22,30.29 -15.67,38.36 -42.53,61.72 10.17,-33.75 43.52,-36.37 33.68,-97.95 -3.6,-11.72 -1.3,-24.93 -6.68,-36.05 -11.57,22.52 -2.83,24.8 -33.01,27.64 -0.75,2.33 -1.56,3.73 -0.72,6.01 -7.73,2.78 -3.21,8.17 -23.37,12.86 0.49,-15.37 20.84,-11.67 22.49,-21.02 0.55,0.19 1.64,0.57 2.17,0.76 3.34,-4.98 7.55,-6.55 9.9,-12.28 6.52,-1.63 6.23,-13.63 10.56,-18.25 -0.52,-0.63 -1.55,-1.87 -2.07,-2.48 -40,-2.74 -60.74,39.51 -65.56,27.27 5.15,-2.39 19.37,-14.72 21.83,-19.44 0.66,0.73 1.35,1.49 2.06,2.24 0.1,-1.18 0.3,-3.53 0.4,-4.73 0.7,-0.5 2.09,-1.52 2.79,-2.02 -0.06,-2.24 -0.09,-4.45 -0.08,-6.67 -11.02,-9.35 -15.55,-20.33 -30.97,-20.24zm-209.11 531.36c-51.21,74.34 -112.44,32.38 -115.62,57.16 -3.39,1.79 -6.94,3.68 -9.05,7.02 -1.59,-0.78 -3.06,-1.82 -4.83,-2.09 0.7,1.32 1.42,2.65 2.17,3.97 -12.4,5.99 -33.37,19.71 -39.75,31.95 1.29,2.7 2.58,5.42 3.86,8.16 -34.47,14.53 -100.95,14.94 -128.73,-8.3 -6.05,-5.07 -20.35,-20.42 -28.42,-20.31 -5.61,-24.33 -53.27,-25.41 -55.62,-27.96 -0.46,0.53 -1.34,1.59 -1.78,2.12 1.04,0.13 3.08,0.38 4.1,0.5 -12.09,5.11 -23.3,3.57 -35.69,0.79 -0.53,2.14 -1.93,2.67 -4.2,1.62 1.29,-0.74 2.58,-1.45 3.89,-2.16 -7.37,-6.88 -39.87,-49.01 -53.18,-34.64 0.65,-0.78 1.94,-2.34 2.58,-3.11 -4.83,-12.14 -27.55,-18.68 -54.46,-8.86 -13.24,4.83 -29.93,12.55 -34.91,27.61 -12.72,1.79 -40.08,27.03 -39.13,40.84 14.94,-2.14 31.83,-21.1 43.58,-29.77 -0.11,0.99 -0.33,2.97 -0.45,3.96 -7.9,4.87 -44.51,31.84 -36.11,41.23 2.82,-2.43 14.58,-12.03 14.51,-12.69 6.45,0 12.37,-7.6 14.3,-13.61 3.6,-1.61 14.8,-10.27 15.91,-13.69 0.39,1.51 1,2.94 1.85,4.28 -8.95,18.01 -10.72,32.18 -30.3,43.82 -9.38,5.57 -26.42,11.97 -27.88,23.38 3.5,-0.47 6.9,-1.52 10.26,-2.61 -1.33,24.09 -28.6,34.8 -28.6,58.91 -0.66,-0.08 -2,-0.25 -2.66,-0.33 -4.47,7.2 -12.6,5.13 -15.7,9.81 -6.37,9.61 -3.31,48.18 -22.38,44.26 -3.61,26.83 19.3,5.16 26.56,26.41 3.68,10.77 -1.1,24.17 6.57,33.29 -0.03,-0.87 -0.1,-2.61 -0.14,-3.49 14.37,6.36 6.73,39.54 7.65,51.27 11.75,-15.16 48.32,-65.74 47.72,-83.84 -8.64,-0.82 -19.27,-4.74 -27.03,0.19 0.07,1.33 0.17,2.72 0.25,4.1 -0.81,0 -2.42,0 -3.22,0 -16.58,-19.74 26.45,-71.12 37.12,-90.89 0.93,8.18 -5.34,30.54 -1.54,36.18 23.45,-2.29 30.2,-29.25 48.75,-41.87 0.13,-0.87 0.37,-2.56 0.49,-3.43 3.57,0.21 6.1,-2.29 8.72,-4.31 -6.19,-10.2 -30.88,5.11 -38.91,8.04 -1.59,-3.93 0.97,-7.01 5.04,-6.18 -0.04,-2.17 -0.04,-4.32 -0.2,-6.46 -0.44,1.77 -0.61,3.61 -1.15,5.41 -0.56,-0.1 -1.71,-0.26 -2.29,-0.35 -0.62,-18.65 24.27,-24.59 25.73,-40.71 0.62,0 1.88,0.03 2.5,0.03 0.04,-1.13 0.14,-3.39 0.18,-4.52 6.01,-1.91 9.05,-11.31 11.62,-16.68 13.7,-0.88 8.74,20.29 24.33,14.65 0.71,-5.06 4.24,-8.93 6.43,-13.36 -0.46,-0.65 -1.39,-1.95 -1.84,-2.59 1.89,0.72 3.46,0.34 4.7,-1.15 4.96,9.69 14.47,48.8 13.96,58.84 0.72,0.71 2.16,2.13 2.89,2.82 47.19,-41.29 18.99,-50.28 22.77,-75.29 7.87,15.86 15.78,30.08 19.32,47.56 9.62,0.13 13.08,-33.92 16.2,-41.22 6.98,13.85 0.42,60.65 29.85,48.19 16.55,-7.01 20.06,-17.09 31.89,6.55 16.37,32.72 33.74,11.93 48.03,13.34 10.37,1.03 36.33,35.98 40.54,45.66 14.13,2.05 38.12,-35.6 48.28,-22.69 0,-0.74 -0.03,-2.19 -0.04,-2.91 5.84,-2.19 32.2,-4.79 33.62,-11.82 1.11,-0.05 3.33,-0.14 4.44,-0.19 0,-0.66 -0.01,-1.95 -0.03,-2.59 3.04,-0.07 5.06,-2.45 7.19,-4.26 -1.37,-0.8 -2.72,-1.59 -4.06,-2.36 2.37,-0.68 4.31,0.64 6.05,1.97 11.34,-16.26 33.51,-48.43 56.44,-48.96 10.56,14.85 -0.38,44.51 30.07,21.07 -0.04,-15.94 -3.61,-24.96 11.68,-34.89 8.22,-5.34 12.2,5.68 18.34,7.91 -1.74,16.01 7.13,34.18 -1.89,51.12 -2.54,2.99 -1.63,6.94 2.06,8.37 -1,-0.1 -2.98,-0.27 -3.97,-0.37 0.06,1.81 0.18,5.44 0.25,7.27 9.86,-3.09 34.34,-28.14 34.8,-39.33 0.45,-11.26 -12.19,-22.38 -13.03,-34.4 15.37,2.8 30.35,27.12 48.41,22.05 14.41,-4.05 6.16,-10.51 19.11,4.05 13.71,15.42 29.71,12.05 48.82,16.93 3.36,6.11 9.12,11.92 15.92,13.19 0.08,0.88 0.27,2.62 0.36,3.49 2.94,1.93 5.83,4.13 9.51,4.46 -0.55,-16.9 -12.76,-24.83 -25.18,-35.7 6.52,-0.37 13.06,-0.54 19.61,-0.48 3.13,-6.25 2.68,-10.43 -0.69,-16.52 -0.42,0 -1.29,0 -1.71,0 0,-0.38 -0.02,-1.15 -0.02,-1.54 -10.11,-4.86 -19.52,-13 -29.97,-16.87 -7.37,-1.57 -7.56,-11.01 -14.02,-13.58 -0.06,-1.08 -0.2,-3.25 -0.28,-4.32 -0.62,0 -1.87,0.03 -2.48,0.03 -0.96,-5.39 -5.33,-9.44 -5.91,-14.91 3.23,1.52 8.26,2.56 8.97,6.74 3.14,0.97 5.49,3.05 6.65,6.19 15.94,6.03 25.12,30.07 46.16,26 -1.58,-5.08 -10.11,-26.09 -15.53,-25.81 0.03,-0.86 0.1,-2.56 0.13,-3.41 -23.02,-16.51 -67.76,-38.38 -81.97,-61.41 -10.04,-16.28 -23.51,-4.9 -37.14,1.03zm-544.4 281.35c-0.9,1.23 -1.79,2.48 -2.67,3.74 17.92,23.33 1.78,19.67 -35.64,65.87 -2.15,2.83 -2.79,6.32 -2.67,9.83 19.03,1.55 23.18,64.53 24.1,82.09 -0.8,0.38 -2.44,1.15 -3.26,1.52 4.99,-1.11 9.02,2.02 13.33,3.92 1.23,13.23 -23.38,20.4 -5.07,32.17 11.9,7.66 20.73,0.11 32.78,-1.74 -0.03,7.75 -4.92,14.52 -3.42,22.6 -7.48,6.37 -54.8,25.27 -50.25,36.02 19.35,2.63 33.49,-8.59 52.13,-10.37 -0.01,1.3 -0.08,3.91 -0.09,5.2 -1.06,0.08 -3.16,0.24 -4.23,0.33 1.16,0.05 3.49,0.16 4.65,0.22 -0.83,26.96 26.31,4.47 36.94,0.87 -0.73,11.84 -13.36,24.69 -23.22,31.02 -0.15,0.87 -0.5,2.6 -0.66,3.46 -8.7,0.84 -13.89,10.1 -22.1,12.89 -9.25,1.05 -18.67,1.18 -27.8,3.13 -6.57,14.59 7.87,18.84 2.97,36.62 -1.46,0.05 -4.4,0.11 -5.86,0.15 -28,-35.19 -41.7,84.33 19.06,63.88 -0.37,-3.82 -1.13,-7.56 -2.23,-11.21 -0.85,-0.09 -2.53,-0.26 -3.38,-0.34 0.63,-0.06 1.89,-0.17 2.52,-0.24 -2.67,-32.18 11.1,-23.22 18.7,-46.99 6.36,-19.89 -5.14,-33.31 17.97,-40.1 28.09,-8.25 23.54,-64.82 54.25,-66.07 -1.38,17.91 -20.56,49.34 -19.66,57.77 13.7,2.05 21.53,-4.51 33.65,-9.38 0.89,8.99 -4.68,14.98 -4.68,23.59 -12.12,1.38 -25.36,36.84 -17.42,65.7 2.98,10.82 0.7,23.78 -5.64,32.58 -3.95,-11.81 -1.35,-44.61 -17.9,-50.18 0.06,25.46 2.37,91.22 27.27,107.49 -0.37,-15.56 -2.67,-24.36 5.32,-38.29 8.74,20.45 -1.78,65.21 19.86,77.98 5.73,-4.9 -1.32,-109.24 -3.48,-110.03 -13.46,-35.55 -6.37,-57.24 -6.6,-70.32 0.69,-0.15 2.08,-0.48 2.77,-0.64 12.41,-19.89 22.75,-40.04 37.03,-59.32 2.48,-2.5 4.96,-5.31 4.92,-9.07 16.36,-4.64 14.24,-29.35 16.7,-40.72 2.21,-10.19 40.12,-19.14 33.17,-33.1 -4.65,-9.33 -10.16,-20.14 -4.26,-30.27 9.7,-1.39 16.06,3.17 24.14,7.24 6.06,-4.67 8.42,-5.48 11.66,-12.73 3.59,0.88 6.1,3.73 8.99,5.85 7.26,-1.38 6.56,-12.01 13.46,-8.65 4.58,2.24 14.83,-10.88 21.31,-11.41 -0.03,0.58 -0.08,1.76 -0.11,2.36 0.44,-0.03 1.34,-0.08 1.78,-0.11 -0.32,4.24 4,4.76 6.87,6.35 12.48,-5.38 22.74,9.98 33.21,-3.77 2.21,-3.46 6.42,-2.72 9.99,-2.75 1.38,-2.23 2.77,-4.48 3.98,-6.81 14.45,3.07 21.04,11.79 33.02,-9.88 1.29,-0.22 2.59,-0.41 3.91,-0.57 2.68,25.78 15.69,69.66 15.47,46.73 -0.06,-6.35 -1.37,-34.59 9.62,-35.16 5.06,11.56 2.59,41.1 18.12,47.12 4.67,1 8.11,-3.7 9.01,-7.7 9.1,-3.66 13.2,-9.43 24.01,-8.71 -0.56,6.77 -6.22,17.86 -12.13,21.8 9.18,8.35 55.77,31.37 54.46,44.84 -9.15,-0.33 -22.09,-4.33 -30.62,-0.12 1.72,20.15 86.02,97.65 114.32,84.1 -30.89,-22.24 -27.08,-47.19 -15.16,-58.99 5.86,-5.8 11.8,32.7 47.97,58.88 4.98,4.9 8.84,7.37 13.76,11.77 0,0.11 -44.56,29.38 0.69,31.33 -0.19,11.67 19.33,77.88 52.67,34.89 0.82,-1.07 0.54,-45.53 -5.43,-53.83 -1.85,-2.59 -3.11,-4.37 -4.38,-7.45 -4.81,3.99 3.2,11.22 -2.17,16.17 -4.19,-4.08 -12.87,-19.08 -18.04,-19.98 -3.34,-12.87 6.66,-24.74 -6.12,-36.46 -6.88,-5.49 -16.25,2.91 -22.74,-3.18 -2.09,-5.12 -3.62,-10.56 -7.32,-14.82 -23.68,0 -37.36,-10.03 -39.3,-34.23 1.18,-1.29 2.36,-2.58 3.54,-3.87 9.72,10.76 19.9,18.29 30.49,27.35 -0.06,-1.52 -0.11,-3.03 -0.13,-4.51 -9.41,-7.51 -10.94,-13.74 -10.56,-25.15 8.86,3.3 7.97,36.9 66.14,40.46 2.72,-23.92 -42.62,-41.12 -41.15,-81.21 16.21,7.8 24.06,24.15 43.4,29.33 0.99,-0.58 2.98,-1.76 3.97,-2.36 -0.42,-20.71 -16.66,-30.78 -17.9,-50.52 4.88,0.91 9.24,3.37 13.66,5.52 8.91,-10.64 0.46,-64.86 -6.69,-73.4 2.75,-8.56 -2.05,-22.63 13.42,-21.33 15.58,-65.3 -105.03,-75.17 -120.79,-70.52 -11.97,3.52 -26.84,17.84 -37.8,6.63 -17.61,0.36 -32.04,6.92 -48.77,9.73 -15.18,3.43 -30.78,2.12 -46.2,2.97 -4.84,1.43 -8.61,5.22 -13.4,6.37 -0.02,-1.03 -0.05,-3.05 -0.07,-4.06 -0.17,0.64 -0.48,1.93 -0.65,2.59 -11.84,-1.02 -92.17,-12.4 -98.96,-9 -0.02,0.99 -0.05,2.95 -0.08,3.93 -11.43,3.56 -33.3,-3.55 -42.22,5.95 -31.73,-5.12 -78.87,-26.55 -99.24,-15.19 -15.62,15.12 1.69,14.67 -32.06,-6.17 -12.83,-7.92 -91.98,-8.97 -114.75,-7.92zm283.59 281.08c-7.44,8.15 -10.89,21.66 -24.1,21.43 0.13,-7.21 1.51,-14.57 -0.27,-21.65 -1.05,-0.13 -3.19,-0.38 -4.24,-0.51 -9.06,22.32 -32.22,11.09 -13.81,47.15 4.47,8.78 5.91,25.84 -6.1,27.65 -1.21,-1.19 -2.45,-2.37 -3.68,-3.49 0.52,-8.53 -15.83,-41.31 -27.68,-31.02 -0.07,0.06 -11.3,53.38 -15.75,62.57 -2.29,3.24 -3.97,6.87 -5.66,10.47 9.58,12.06 18.29,24.72 27.71,37.23 5.28,-7.05 -1.87,-42.2 5,-57.7 2.32,2.96 9,54.74 6.76,60.23 -2.88,7.05 -18.78,9.32 -25.15,10.2 -10.94,-18.7 -4.93,-13.36 -27.72,-34.39 -7.53,14.91 -13.8,44.79 -7.03,60.86 5.2,1 9.12,-1.42 12.73,-4.75 0.44,17.88 20.41,72.18 26.97,91.18 0.79,0.01 2.36,0.01 3.15,0.03 8.61,-30.77 -4.74,-66.24 -4.74,-96.77 11.94,25.72 34.48,44.8 42.21,73.4 1.47,7.92 7.37,14.73 15.15,17.05 17.34,-14.56 -2.52,-32.22 -2.58,-48.83 2.01,-0.88 4.09,-1.65 6.15,-2.42 0.06,-12.98 -2.71,-30.66 -12.11,-40.99 0.54,-0.71 1.09,-1.39 1.64,-2.05 16.39,0 21.73,-43.52 27.03,-57.85 3.73,-10.07 -4.36,-14.86 7.59,-47.19 7.43,-20.09 1.55,-46.46 1.1,-67.69 -0.88,-0.74 -1.73,-1.46 -2.57,-2.15zm-160.84 82.53c4.18,13.22 -12.19,23.86 -15.62,34.48 7.73,0.9 11.99,-6.68 18.95,-7.95 0.6,15.04 -11.63,28.71 5.38,38.51 4.78,-7.61 4.32,-14.41 10.91,-21.11 13.55,-13.82 -17.91,-34.47 8.48,-49.67 -0.71,-52.91 -36.57,-21.06 -28.1,5.74z"/>
   <path class="fil0" d="M1482.97 135.11c0.6,1.64 1.32,3.26 2.31,4.73 -7.2,5.24 -16,7.04 -23.76,11.1 -3.75,1.13 -1.93,-1.44 -11.54,2.78 0.3,4.56 0.94,9.12 0.65,13.69 23.89,-0.88 102.96,-15.13 118.18,-9.33 0.01,0.17 0.03,0.53 0.04,0.7l-1.4 -0.08c-1.24,5.87 -9.54,7.09 -9.27,13.82 26.73,9.49 35.15,3.43 49.45,9.26 -13.82,5.49 -23.78,7.71 -36.04,15.81 4.81,3.25 22.84,18.83 26.04,19.94 1.05,6.61 -6.41,10.93 1.71,19.34 7.51,7.76 16.9,19.36 20.08,29.81 -1.22,1.95 -2.6,3.77 -3.93,5.61 -5.02,-0.26 -12.07,-0.84 -12.66,-7.24 -17.82,-6.66 -40.8,-57.13 -50.7,-62.98 -6.63,-1.34 -12.98,-4.15 -18.26,-8.38 -13.86,-7 -65,0.84 -83.62,5.19 0.86,0.33 -114.56,55.02 -146.49,64.36 -12.23,3.58 -42.12,14.33 -51.58,16.77 -5.74,1.56 -11.57,3.07 -16.72,6.1 -3.7,1.11 -19.13,4.21 -25.23,6.79l-23.2 4.73c-8.62,2.85 -49.13,11.11 -49.93,11.49 -7.73,3.62 -7.27,1.67 -18.2,4.76 -0.13,-0.72 -0.4,-2.15 -0.54,-2.86 0.99,5.08 -13,5.95 -16.74,6.07 11.82,-20.82 37,-19.26 46.05,-25.61 0.33,-0.22 51.08,-22.91 58.96,-27.14 5.75,-3.08 86.84,-45.9 87.37,-46.66 1.1,-1.19 21.73,-15.51 25.48,-18.46 2.36,-1.85 15.63,-16.17 15.69,-16.22 4.95,-1.79 8.92,-5.53 12.46,-9.35 2.64,-1.77 4.95,-4.01 7.18,-6.3 3.21,-1.26 6.51,-2.69 8.48,-5.74 0.58,0.51 1.16,1.01 1.77,1.51 -1.48,0.8 -16.98,17.36 -19.88,23.78 -5.21,1.92 -10.4,16.12 -21.58,24.85 -7.35,5.74 -17.06,9.81 -16.55,15.91 15.56,-3.69 84.39,-50.02 102.54,-56.62 0,-0.61 0.01,-1.84 0.01,-2.46 1.12,-0.08 3.35,-0.26 4.47,-0.34 3.13,-8.86 26.8,-20.45 37.67,-23.52 4.53,-1.62 31.04,-8.77 31.23,-9.61z"/>
   <path class="fil0" d="M447.98 140.79c7.03,0.91 13.14,5.22 18.16,9.99 5.23,4.07 11.16,7.14 16.62,10.85 5.71,2.01 10.65,5.5 16.08,8.08 0.73,0.48 2.16,1.49 2.86,1.98 13.98,7.15 28.45,13.17 42.46,20.18 5.69,4.34 13.06,5.15 19.09,8.82 3.82,2.17 7.86,3.91 11.84,5.76 3.93,2.27 7.87,4.5 11.44,7.31 1.42,0.84 2.85,1.67 4.28,2.5 3.77,2.53 7.32,6.13 12.19,6.02 1.14,2.41 3.78,2.77 6.05,3.49 4.83,2.25 9.29,5.74 14.79,6.07 -0.78,-1.26 -2.37,-3.77 -3.17,-5.03 -2.44,-1.06 -4.78,-2.3 -7.12,-3.51 -2.61,-1.63 -4.83,-3.1 -8.11,-6.43 -2.88,-2.51 -6.04,-4.68 -9.45,-6.38 -1.3,-1.08 -2.59,-2.15 -3.89,-3.22 -0.6,-0.44 -1.81,-1.35 -2.42,-1.79 -1.73,-1.27 -3.65,-2.2 -5.54,-3.16 -2.65,-2.51 -6.02,-4.04 -8.82,-6.36 -4.32,-3.23 -8.55,-6.62 -13.26,-9.26 -1.73,-2.49 -4.2,-4.25 -6.48,-6.18 -1.87,-2.28 -3.93,-4.4 -6.22,-6.25 -1.97,-1.7 -4.32,-3.24 -4.64,-6.06 1.06,-0.37 2.12,-0.75 3.21,-1.11 7.69,7.12 20.24,6.14 28.2,13.28 9.69,6.35 16.14,17.05 27.08,21.5 1.4,2.74 3.85,4.67 6,6.77 2.93,1.26 31.32,21.52 32.94,23.27 4.31,3.83 9.91,5.39 14.94,7.96 3.61,3.16 8.56,3.86 12.6,6.32 3.76,2.96 8.38,4.44 12.61,6.61 5.99,3.23 11.96,6.52 18.25,9.13 0.5,0.55 1.5,1.62 1.99,2.17 9.01,3.33 16.88,9.14 26.14,11.83 3.98,2.8 8.55,4.48 13.03,6.27 6.02,2.91 11.93,6.26 18.47,7.86 8.11,3.85 16.97,5.86 25,9.65 7.42,2.61 14.56,5.93 22.02,8.44 0.79,0.21 2.38,0.6 3.16,0.8 2.17,1.23 4.44,2.25 6.75,3.24 -0.02,1.42 -0.02,2.83 0,4.26 -0.32,0.06 -0.95,0.17 -1.26,0.24 0.19,-0.99 0.55,-2.99 0.72,-3.98 -13.67,0.9 -27.1,-2.47 -40.69,-3.05 -15.97,-1.78 -31.78,-4.72 -47.51,-7.92 -9.55,-2 -18.82,-4.94 -28.01,-8.08 -9.51,-3 -18.8,-6.68 -28.25,-9.85 -10.81,-2.75 -20.74,-8.45 -31.62,-10.71 -10.47,-6.29 -23.25,-8.05 -33.83,-14.19 -1.14,-0.71 -2.31,-1.4 -3.45,-2.08 -5.46,-1.03 -9.45,-5.25 -14.59,-7.04 -4.87,-1.85 -8.94,-5.4 -14.1,-6.54 -2.95,-1.85 -5.91,-3.66 -8.99,-5.26 -4.52,-1.1 -7.95,-4.54 -12.29,-6.07 -4.59,-1.65 -8.66,-4.35 -12.95,-6.6 -4.75,-0.85 -8.44,-4.13 -12.51,-6.43 -0.88,-0.14 -2.63,-0.41 -3.49,-0.55 -3,-2.07 -6.13,-3.96 -9.23,-5.88 -0.86,0.04 -2.62,0.08 -3.49,0.1 -3.72,-6.12 -12.63,-5.61 -17.94,-10.16 -7.53,-3.11 -15.25,-5.78 -22.94,-8.5 -8.74,-1.13 -17.55,-1.57 -26.26,-2.89 -9.15,-1.13 -19,-3.79 -27.52,1.18 -2.03,1.81 -4.07,3.6 -6.18,5.3 -1.65,1.1 -3.25,2.24 -4.82,3.44 -6.87,3.55 -14.05,6.49 -21.38,8.93 -4.89,0 0.85,-6.1 1.45,-7.57 1.33,-3.45 2.42,-7.02 2.4,-10.76 -3.68,0.06 -8.12,-0.8 -10.43,2.91 -16.19,18.11 -53.29,67.07 -66.32,77.26 -0.41,-3.24 -0.66,-6.46 -0.97,-9.68 -1.16,-3.06 -0.91,-6.36 -1.04,-9.55 1.6,-2.9 2.67,-6.32 5.69,-8.07 11.64,-8.5 8.06,-2.38 15.03,-16.17 -4.48,1.38 -8.85,-0.3 -12.97,-1.93 1.6,-7.67 9.59,-10.57 15.36,-14.54 6.16,-3.4 12.74,-7.81 18.17,-10.58 1.02,-0.87 2.04,-1.73 3.06,-2.59 0.02,-0.84 0.05,-2.52 0.06,-3.35 -10.97,-3.6 -22.76,-2.69 -34.13,-3.26 -1.75,-0.56 -3.46,-1.19 -5.16,-1.88 0.05,-1.15 0.09,-2.3 0.16,-3.44 1.47,-1.07 2.92,-2.2 4.34,-3.37 2.2,-1.35 4.59,-2.34 7.16,-2.7 11.62,-6.73 25.1,-0.21 37.5,-1.21 5.98,0.08 11.35,-2.77 16.63,-5.16 0.82,-0.74 2.42,-2.21 3.23,-2.95 0.04,-0.71 0.14,-2.14 0.18,-2.86 -25.75,-7.89 -2.21,-3.8 -24.2,-7.04 0.08,-1.23 0.24,-3.68 0.31,-4.91 4.89,-1.25 8.92,-4.41 13.22,-6.86 2.23,-0.15 4.47,-0.27 6.71,-0.41 7.01,-3.67 36.54,9.25 44.95,12.49 1.7,0.54 3.38,1.1 5.07,1.71 7.12,2.25 14.42,3.89 21.47,6.4 6.25,0.66 12.44,1.89 18.76,1.93 0.06,-12.75 -25.38,-6.89 -22.24,-30.94z"/>
   <path class="fil0" d="M311.54 279.01c1.19,0.33 3.6,0.97 4.79,1.3 -1.08,1.2 -2.15,2.42 -3.28,3.58 -0.38,-1.22 -1.13,-3.66 -1.51,-4.88z"/>
   <path class="fil0" d="M829.3 539.14c0.9,0.99 1.76,2.03 2.6,3.12 -2.46,10.34 -3.3,21.09 -7.75,30.9 -0.87,3.82 -3.74,6.63 -5.47,10.04 -3.29,6.1 -9.06,10.11 -12.99,15.69 -4.84,2.31 -10.6,2.84 -15.71,1.17 -1.42,-2.19 -2.16,-4.73 -3.02,-7.15 -0.94,-0.86 -1.7,-0.58 -2.25,0.84l-0.77 -2.44c0.46,-0.49 1.37,-1.46 1.82,-1.95 0.7,-3.58 -1.74,-6.47 -2.87,-9.65 -0.88,-6.1 2.92,-11.55 7.72,-14.88 4.66,-2.06 8.25,-5.71 12.3,-8.69 5.79,-4.14 12.72,-6.12 19.13,-9.04 2.78,-2.33 6.35,-4.1 7.26,-7.96z"/>
   <path class="fil0" d="M1740.83 1651.18c-1.32,9.67 -7.32,17.4 -10.83,26.22 -0.67,0.03 -1.3,0.12 -1.9,0.25 -1.41,3.79 -3.22,7.43 -5.37,10.88 -0.87,9.79 0.06,20.07 -3.74,29.34 -19.46,41.92 -33.72,49.42 -61.88,76.09 -4.7,4.09 -3.73,10.61 -4.08,16.17 -0.82,46.27 8.68,30.91 31.31,-3.11 13.72,-20.27 25.27,-41.39 39.08,-61.64 8.5,-6.86 6.8,-2.39 8.69,2.54 2.8,6.15 2.03,13.08 1.54,19.62 -0.61,6.87 -2.48,13.58 -5.53,19.77 -83.37,178.8 -108.14,92.37 -279.55,176.91 -8.87,3.37 -17.95,6.32 -26.27,10.96 -216.21,106.77 -94.26,21.7 -230.08,30.73 -14.18,0.09 -28.14,2.98 -42.28,3.36 -6.81,0.36 -14.02,2.64 -20.48,-0.5 10.65,-4.65 21.8,-8.07 32.91,-11.44 79.5,-23.08 151.37,-35.57 232.63,-65.94 20.51,-8.63 41.95,-14.77 62.95,-22.05 27.62,-9.48 55.5,-18.22 82.94,-28.21 17.39,-6.46 35.76,-12.37 49.94,-24.82 9.43,-8.27 13.47,-20.53 21.12,-30.18 4.29,-6.66 10.07,-12.1 15.56,-17.74 6.93,-9.54 15.64,-17.62 23.29,-26.6 -0.85,-0.58 -1.68,-1.13 -2.46,-1.66 -7,3.8 -14.28,7.04 -21.27,10.84 -42.97,27.72 -114.83,47.14 -163.04,56.63 -8.9,1.51 -71.39,15.45 -76.65,13.66 0.06,-1.29 0.22,-3.85 0.3,-5.12 13.01,-11.82 30.82,-15.37 46.66,-21.77 35.83,-10.45 65.65,-16.79 105.31,-29.6 9.87,-3.28 18.26,-9.62 27.02,-15.06 1.71,-0.79 120.23,-98.18 126.08,-102.98 4.28,-3.64 9.53,-6.02 13.44,-10.1 3.35,-2.22 6.67,-4.51 9.78,-7.04 6.61,-5.73 17.34,-13.12 24.86,-18.41z"/>
  </g>
 </g>
</svg>
