<svg version="1.1" xmlns="http://www.w3.org/2000/svg">
    <symbol id="download" viewBox="0 0 64 64">
        <path d="M32 0.64c-17.318 0-31.36 14.042-31.36 31.36s14.042 31.36 31.36 31.36c17.318 0 31.36-14.042 31.36-31.36s-14.042-31.36-31.36-31.36zM32 58.458c-14.611 0-26.458-11.846-26.458-26.458s11.846-26.458 26.458-26.458 26.458 11.846 26.458 26.458-11.846 26.458-26.458 26.458z"></path>
        <path d="M43.763 39.84v3.923h-23.52v-3.923h-3.923v7.84h31.36v-7.84h-3.917z"></path>
        <path d="M33.958 32v-15.68h-3.923v15.68h-5.882l7.846 9.798 7.84-9.798h-5.882z"></path>
    </symbol>
    <symbol id="pause" viewBox="0 0 64 64">
        <path d="M32 0c-17.673 0-32 14.327-32 32s14.327 32 32 32 32-14.327 32-32-14.327-32-32-32zM32 58c-14.359 0-26-11.641-26-26s11.641-26 26-26 26 11.641 26 26-11.641 26-26 26zM20 20h8v24h-8zM36 20h8v24h-8z"></path>
    </symbol>
    <symbol id="play" viewBox="0 0 64 64">
        <path d="M32 0c-17.673 0-32 14.327-32 32s14.327 32 32 32 32-14.327 32-32-14.327-32-32-32zM32 58c-14.359 0-26-11.641-26-26s11.641-26 26-26 26 11.641 26 26-11.641 26-26 26zM24 18l24 14-24 14z"></path>
    </symbol>
    <symbol id="next" viewBox="0 0 81 81">
        <g id="Слой_x0020_1">
            <metadata id="CorelCorpID_0Corel-Layer"/>
            <path class="fil0" d="M40 1c-22.09,0 -40,17.91 -40,40 0,22.09 17.91,40 40,40 22.09,0 40,-17.91 40,-40 0,-22.09 -17.91,-40 -40,-40zm6.46 24.37l10.42 0 0 31.25 -10.42 0 0 -11.73 -23.34 13.61 0 -35 23.34 13.61 0 -11.74zm-6.46 48.13c-17.95,0 -32.5,-14.55 -32.5,-32.5 0,-17.95 14.55,-32.5 32.5,-32.5 17.95,0 32.5,14.55 32.5,32.5 0,17.95 -14.55,32.5 -32.5,32.5z"/>
        </g>
    </symbol>
    <symbol id="previous" viewBox="0 0 81 81">
        <g id="Слой_x0020_1">
            <metadata id="CorelCorpID_0Corel-Layer"/>
            <path class="fil0" d="M40 1c22.09,0 40,17.91 40,40 0,22.09 -17.91,40 -40,40 -22.09,0 -40,-17.91 -40,-40 0,-22.09 17.91,-40 40,-40zm-6.46 24.37l-10.41 0 0 31.25 10.41 0 0 -11.73 23.34 13.61 0 -35 -23.34 13.61 0 -11.74zm6.46 48.13c17.95,0 32.5,-14.55 32.5,-32.5 0,-17.95 -14.55,-32.5 -32.5,-32.5 -17.95,0 -32.5,14.55 -32.5,32.5 0,17.95 14.55,32.5 32.5,32.5z"/>
        </g>
    </symbol>
    <symbol id="mute" viewBox="0 0 101 101">
         <g id="Слой_x0020_1">
            <metadata id="CorelCorpID_0Corel-Layer"/>
                <g id="_1842819074368">
                    <path class="fil0" d="M11.84 71.11c0.46,-0.5 0.13,-0.71 1.06,-1.52 -0.23,0.8 -0.41,1.28 -1.06,1.52zm1.89 -29.31c0.51,0.28 0.18,-0.26 0.32,0.76 0.02,0.11 -0.01,0.78 -0.01,0.94 -0.02,0.76 -0.01,1.5 -0.04,2.26 -0.65,0.52 -1.14,1.25 -1.68,1.9 -1.02,1.24 -4.11,5.02 -4.46,6.13 1.38,-0.11 3.85,-4.76 6.14,-7.07 0.26,4.58 0.11,3.39 -2.16,6.47 -0.68,0.92 -3.3,4.11 -3.38,5.09 1.68,-0.47 4.2,-5.62 5.51,-6.78 0.16,1.17 0.33,3.37 -0.36,4.21 -0.39,0.47 -0.59,0.63 -1.14,1.13 -0.49,0.46 -0.6,0.78 -1.01,1.25 -1.1,1.24 -3.12,3.33 -3.64,5.36 0.69,-0.15 0.51,-0.18 0.94,-0.73l3.71 -4.75c0.4,-0.49 1.11,-1.31 1.51,-1.66 0.19,3.62 -0.3,3.36 -2.88,6.3l-2.16 2.53c-0.52,0.65 -1.51,1.85 -1.7,2.79 0.82,-0.15 1.39,-0.99 1.86,-1.67 1.18,-1.69 2.7,-3.41 4.06,-4.98 0.36,-0.4 0.33,-0.56 0.79,-0.87 -0.03,1.69 0.21,2.05 -0.66,3.26 -1.1,1.51 -4.32,5.69 -4.51,6.74 0.77,-0.1 1.13,-0.68 1.55,-1.24l3.46 -4.78c0.02,3.23 -0.75,3.76 -2.18,5.88 -0.91,1.35 -1.02,2.01 -1.9,2.22 -1.09,0.27 -2.29,-0.01 -3.17,-0.46 -3.82,-1.97 -3.57,-7.62 -3.82,-12.36 -0.28,-5.35 -0.73,-26.95 1.23,-30.71 3.09,-0.39 4.27,-0.36 7.13,0.23 -0.61,1 -1.53,1.48 -1.74,3.03 0.74,-0.14 0.78,-0.56 1.24,-1.16 0.26,-0.35 0.27,-0.33 0.6,-0.71 0.13,-0.15 0.16,-0.18 0.27,-0.32 0.36,-0.41 0,-0.05 0.3,-0.33l0.79 0.55c-0.98,1.88 -4.54,4.27 -4.75,6.29 0.74,-0.09 0.94,-0.59 1.4,-1.23l3.68 -4.21c0.41,0.45 0.7,1.32 0.74,2.08 -1.15,0.99 -5.62,5.27 -6.15,7.32 0.55,-0.16 0.47,-0.27 0.92,-0.73 0.4,-0.43 0.42,-0.51 0.76,-0.93 0.32,-0.4 0.5,-0.5 0.81,-0.89 1.14,-1.45 2.43,-2.97 3.88,-4.11 0.18,2.87 0.59,2.1 -2.19,5.24 -1.11,1.26 -5,6.15 -5.34,7.26 1.74,-0.61 4.84,-6.17 7.51,-8.9l0.22 -0.2c0.07,4.36 0.39,2.6 -2.68,6.62 -0.75,0.98 -3.4,3.14 -3.93,5.17 0.68,-0.16 0.61,-0.2 1.03,-0.73 0.29,-0.37 0.44,-0.61 0.76,-0.93 0.4,-0.42 0.46,-0.42 0.81,-0.89 0.76,-1 2.87,-3.19 3.5,-4.2 0.19,-0.31 0.14,-0.11 0.21,-0.48zm2.61 1.8l-0.02 -1.18c-0.03,-3.82 0.18,-7.15 -0.64,-10.82 1.62,-0.06 1.57,0.02 3.23,-0.67 1.92,-0.79 5.79,-3.46 7.43,-4.61 1.58,-1.11 3.08,-2.26 4.64,-3.45l18.65 -15.39c0.71,-0.67 2.79,-2.57 3.44,-2.74 -0.29,3.48 -0.87,7.19 -1.2,10.75 -2.14,23.2 -4.81,59.42 -0.74,80.55 -0.51,-0.24 -0.09,-0.03 -0.43,-0.25l-5.76 -4.61c-1.02,-0.86 -2.04,-1.63 -3.01,-2.45l-2.77 -2.32c-0.03,-0.02 -0.08,-0.08 -0.1,-0.1 -0.02,-0.02 -0.07,-0.07 -0.1,-0.11 0.52,-0.89 1.18,-2.12 1.76,-3 0.41,-0.63 1.57,-2.16 1.12,-3.16 -0.79,0.29 -0.16,0.54 -1.7,2.77 -0.55,0.8 -1.35,1.97 -1.68,2.98 -0.46,-0.22 -3.47,-2.66 -3.95,-3.16 0.19,-0.84 5.26,-8.04 5.48,-9.26 0.14,-0.83 -0.18,-0.84 -0.22,-0.88 -0.2,0.12 -1.17,2.08 -1.37,2.39 -1.47,2.26 -2.95,4.92 -4.65,7 -0.91,-0.3 -1.03,-0.9 -1.93,-1.26 0.34,-1.33 3.29,-5.82 4.14,-7.06l3.27 -5.2c0.43,-0.8 0.89,-1.17 0.35,-1.67 -0.55,0.27 -0.15,-0.09 -0.59,0.68 -0.18,0.32 -0.29,0.53 -0.47,0.84l-7.4 11.61c-0.83,-0.47 -2.11,-1.43 -2.65,-2.11 1.09,-0.36 1.84,-2.23 2.42,-3.22 1.38,-2.33 6.58,-9.31 6.43,-10.52 -0.75,0.05 -0.93,0.83 -1.34,1.51 -2.59,4.3 -5.21,6.78 -7.72,12.08 -0.87,-0.42 -2.03,-1.5 -3.89,-2.86 -1.77,-1.45 -3.34,-2.55 -4.37,-3.15 -1.26,-0.73 -2.88,-1.42 -4.59,-1.47 1.54,-8.2 0.96,-18.08 0.93,-26.48zm44.83 15.85c-1.69,3.65 -6.01,7.9 -10.15,8.18l0.16 -13.45c-0.06,-3.08 0.09,-2.57 0.37,-6.34l0.76 -13.84c0.6,0.11 4,2.49 4.66,3.02 1.03,0.81 3.25,2.79 3.41,4.46 3.29,4.02 3.85,11.32 0.79,17.97zm-38.58 16.65c0.42,0.36 1.24,1.05 1.31,1.15l0.28 0.38c0.77,0.2 20.63,16.49 22.59,18.13 1.56,1.32 2.91,2.25 4.68,3.59 1.69,1.26 4.15,2.02 6.54,0.95 6.98,-3.13 9.56,-22.92 10.86,-30.36 1.47,-8.49 2.06,-14.3 1.42,-22.87 -0.12,-1.62 -0.83,-6.49 -0.55,-7.68 -0.02,-0.04 -0.86,-4.89 -0.87,-5.06 0.29,-2.49 -1.93,-13.1 -2.55,-16.03 -1.16,-5.42 -2.05,-10.09 -4.6,-14.27 -0.09,-0.08 -0.11,-0.05 -0.26,-0.26 -0.22,-0.33 -0.05,-0.08 -0.18,-0.45 -1.02,-0.53 -1.97,-2.32 -5.12,-1.93 -1.4,0.18 -0.82,-0.16 -1.89,-0.2 -1.36,-0.05 -2.29,1.29 -3.04,1.86l-7.77 6.7c-5.41,4.57 -16.24,13.48 -21.76,17.17 -1.74,1.17 -3.87,2.98 -6.55,3.23 -1.08,-1.42 -0.07,-0.79 -1.8,-2.14 -1.35,-1.07 -3.09,-1.57 -4.97,-1.56 -1.68,0 -2.94,0.31 -4.36,0.85 -1.72,0.66 -1.82,1.1 -2.41,3.05 -1.53,5.06 -1.61,14.3 -1.59,19.93 0.02,4.36 0.09,16.58 1.68,19.87 2.54,5.29 9.47,7.12 13.11,1.29 2.38,0.63 4.41,2 5.89,3.24 0.33,0.31 1.23,1 1.91,1.42zm45.04 -37.91c0.1,2.31 0.92,10.5 0.99,12.83 0.12,3.89 -0.01,7.64 -0.47,11.46 -0.39,3.24 -2.81,17.78 -3.61,20.34 -0.1,0.66 -0.22,1.57 -0.59,1.99 0.03,2.16 -3.33,10.92 -5.39,12.85 -0.8,0.75 -1.36,0.9 -2.81,0.73 -0.83,-0.1 -0.8,0 -1.34,-0.5 -0.97,-0.9 -1.43,-2.19 -1.65,-3.6 0.88,-0.79 6.61,-7.01 6.74,-7.88 -1.03,-0.06 -1.53,1.03 -1.97,1.57l-1.69 1.88c-1.62,1.95 -2.05,1.64 -3.19,3.79 -0.24,-0.99 -0.35,-2.04 -0.48,-3.07 -0.56,-4.21 -0.79,-2.13 1.96,-5.63l5.42 -6.43c0.04,-0.04 0.5,-0.54 0.54,-0.62 0.33,-0.68 0.19,-0.38 -0.01,-0.78 -0.76,0.28 -0.71,0.78 -1.27,1.22 -0.39,0.32 -0.16,0.15 -0.45,0.24 -0.67,1.01 -3.63,4.01 -5.02,5.77 -0.56,0.73 -0.97,1.4 -1.53,2.08 -1.3,-3.32 0.99,-4.38 3.23,-7.34l1.38 -1.44c0.37,-0.39 0.04,-0.18 0.55,-0.48 0.08,-0.34 -0.11,-0.08 0.27,-0.57 0.35,-0.45 2.37,-2.46 2.52,-3.08 0.01,-0.03 0.01,-0.1 0.01,-0.12 0.01,-0.02 -0.01,-0.06 -0.01,-0.12 0.01,-0.06 0,-0.08 -0.01,-0.12 -0.61,-0.09 -0.78,0.42 -1.12,0.87l-3.26 3.51c-0.86,0.76 -1.23,1.45 -2.19,2.33 -0.76,0.69 -1.07,1.49 -1.76,2.54l-0.14 -3.17c1.04,-0.66 4.76,-5.98 6.28,-7.79 0.75,-0.89 1.39,-1.36 1.96,-2.31 -1.92,0.27 -6.82,7.48 -8.28,9.16l-0.12 -2.63c0.05,-0.03 0.12,-0.13 0.14,-0.1l0.34 -0.29c0.14,-0.13 0.37,-0.35 0.48,-0.47 0.8,-0.88 2.67,-3.65 3.96,-5.07 1.09,-1.2 1.52,-1.45 1.61,-2.18 -0.62,0.18 -2.15,1.86 -2.66,2.45l-3.88 4.94 -0.07 -5.11c1.77,-0.71 2.59,-0.26 5.33,-2.02 0.6,-0.37 1.03,-0.69 1.64,-0.99 0.08,-0.34 1.63,-1.64 1.97,-1.98 0.84,-0.83 1.11,-1.15 1.79,-2.16 1.04,-1.59 1.82,-3.35 2.37,-5.54 0.76,-3.01 0.93,-11.24 -0.71,-13.64 -0.98,-3.15 -1,-2.62 -1.14,-2.83 -0.23,-0.88 -0.8,-1.67 -1.34,-2.37 -0.37,-0.48 -0.33,-0.48 -0.9,-0.99 -0.42,-0.37 -0.69,-0.51 -0.72,-0.95 -0.68,-0.37 -1.01,-0.73 -1.65,-1.18 -5.97,-4.17 -5.31,-0.6 -5.13,-5.67 1.12,-0.54 1.49,-1.07 2.26,-1.81 0.92,-0.89 0.9,-1.33 2.01,-2.01 0.38,-1.01 4.01,-3.6 4.22,-4.8 -1.21,0.03 -0.61,0.38 -2.32,1.69l-4.01 3.88c-1,1.1 -1.1,1.68 -2.09,2.11l0.18 -2.74c0.66,-0.35 0.7,-0.44 1.26,-0.95 0.68,-0.63 0.49,-0.42 0.98,-1.1 1.11,-1.56 1.97,-2.11 3.18,-3.21l2.07 -2.06c0.3,-0.35 0.72,-0.76 0.57,-1.2 -0.5,-0.12 -0.6,0.25 -1.05,0.71l-3.03 2.8c-1.93,2.02 -1.52,1.42 -3.36,3.6l-0.56 0.54 0.48 -6.85c0.23,-0.26 0.05,-0.07 0.29,-0.27l1.47 -1.32c0.32,-0.37 0.42,-0.6 0.76,-0.95l2.32 -2.57c0.86,-0.93 1.27,-0.92 1.64,-1.47 -0.84,-0.64 -2.96,1.98 -3.37,2.39 -0.57,0.55 -1.15,0.95 -1.66,1.53l-1.25 1.66c-0.02,-0.03 -0.08,0.08 -0.12,0.12 0.07,-2.4 0.34,-4.98 0.56,-7.37 0.17,-1.88 -0.22,-5.31 1.33,-6.29 3.99,-2.52 6.53,4.27 7.37,7.24 2.26,7.93 3.69,17.35 4.95,27.37z"/>
                    <path class="fil0" d="M84.01 62.08l0.12 -0.35 4.56 -6.91 7.71 10.85c0.89,1.31 1.62,3.15 3.53,1.57 0.48,-0.84 -1.53,-3.34 -2.01,-4.02l-5.02 -7.2c-0.61,-0.9 -2.17,-2.79 -2.5,-3.67l7.45 -11.13c0.9,-1.39 2.74,-3.48 1.94,-4.15 -1.17,-0.97 -5.2,5.12 -5.8,5.93l-5.13 7.15c-0.04,-0.03 -0.09,-0.13 -0.11,-0.1l-2.65 -3.59c-0.88,-1.34 -1.86,-2.54 -2.79,-3.79 -1.48,-1.98 -3.16,-4.71 -5.19,-6.13 -0.55,-0.38 -0.81,-0.53 -1.11,-0.17 -0.7,0.84 4.09,7.36 4.72,8.26l5.44 7.91 -8.41 12.66c-0.48,0.66 -1.75,2.4 -1.68,3.49 0.04,0.79 0.62,1.24 1.39,1.1 0.72,-0.13 0.91,-0.77 1.27,-1.36 0.54,-0.9 3.8,-6.07 4.27,-6.35z"/>
                    <path class="fil0" d="M25.66 73.04l0.02 0.34c0.44,0.21 -0.3,0.26 0.75,0.03l4.49 -6.78c1.66,-2.2 2.79,-3.53 4.26,-5.9l0.69 -0.91 -0.19 -0.64c-0.62,0.19 -2.06,2.66 -2.6,3.41 -0.88,1.21 -1.77,2.27 -2.64,3.37l-4.78 7.08z"/>
                    <path class="fil0" d="M19.23 67.94c1.37,-0.48 4.46,-5.87 6.17,-8.15 0.38,-0.51 0.74,-1.09 1.18,-1.64 0.55,-0.68 2.22,-2.64 2.29,-3.53 -0.83,0.06 -1.78,1.71 -2.69,2.95 -1.44,1.97 -6.67,8.75 -6.95,10.37z"/>
                    <path class="fil0" d="M21.88 71c1.26,-0.5 3.15,-4.87 5.14,-7.32l5.09 -6.41c0.45,-0.72 0.17,-0.22 0.26,-0.58 -0.7,-0.34 -1.65,1.49 -2.85,2.91 -2.04,2.42 -7.02,8.37 -7.64,11.4z"/>
                    <path class="fil1" d="M16.68 65.83c1.47,-0.72 1.62,-2.26 2.54,-3.75 2.15,-3.5 3.76,-5.32 5.89,-9.33 0.55,-1.04 0.48,-0.78 0.96,-1.31 0.33,-0.37 0.26,-0.07 0.43,-0.67 -1.56,0.4 -1.99,2.07 -2.78,3.4 -2.18,3.66 -5.41,6.69 -7.04,11.66z"/>
                    <path class="fil0" d="M58.38 26.02c-1.17,2.09 -4.54,3.51 -5.32,5.92 0.95,-0.3 3.15,-2.39 3.82,-3.1l3.45 -3.46c1.26,-0.72 1.07,-0.43 1.3,-1.05 -1.21,-0.75 -2.53,1.62 -3.25,1.69z"/>
                    <path class="fil0" d="M59.23 83.89c0.32,-0.77 0.09,-0.46 0.73,-0.72l-0.26 -0.47c-1.12,0.34 -2.12,1.79 -2.99,2.58 -0.54,0.48 -0.54,0.45 -0.95,0.92 -1.5,1.75 -3.38,2.42 -3.41,4.22 1.45,-1.02 2.5,-2.16 3.57,-3.3l2.86 -2.97c0.48,-0.38 0.13,-0.12 0.45,-0.26z"/>
                    <path class="fil0" d="M53.58 21.4c1.02,-0.24 1.01,-0.65 2.04,-1.72 0.67,-0.7 1.23,-1.18 1.96,-1.8l1.73 -1.85c1.22,-1.45 1.62,-1.35 1.63,-1.94l-0.38 0.01c-0.71,0.23 -2.86,2.67 -3.49,3.26 -1.05,0.97 -3.11,2.3 -3.49,4.04z"/>
                    <path class="fil0" d="M36.52 83.95c1.03,-0.45 4.83,-6.14 4.14,-7.25 -0.68,0.2 -0.72,1.04 -1.09,1.77 -1.35,2.63 -3.12,3.64 -3.05,5.48z"/>
                    <path class="fil0" d="M60.6 27.81c-1.22,0.83 -3.42,2.78 -4.25,3.88 -1.01,1.36 -0.85,0.63 -1.12,1.52 0.92,0 1.32,-0.34 1.91,-1.1 0.99,-1.25 3.07,-3.63 4.56,-4.13l-0.25 -0.59 -0.85 0.42z"/>
                    <path class="fil1" d="M18.89 58.26c1.03,-0.84 1.67,-2.23 2.29,-3.43 0.69,-1.34 1.72,-2.51 1.77,-4.26 -0.26,0.24 -0.13,0.05 -0.35,0.4 -0.21,0.34 -0.26,0.78 -0.76,1.51 -0.84,1.25 -3.06,4.61 -2.95,5.78z"/>
                    <path class="fil1" d="M54 13.83c1.25,-0.28 1.96,-1.38 2.92,-2.63l1.19 -1.45c0.57,-0.66 0.92,-0.8 1.27,-1.67 -1.05,0.42 -2.18,1.85 -2.91,2.66 -0.72,0.81 -2.11,1.84 -2.47,3.09z"/>
                    <path class="fil0" d="M54.59 96.26c0.78,-0.23 1.22,-0.64 1.63,-1.13 0.72,-0.86 3.24,-3.38 2.92,-4.28 -0.63,0.18 -0.27,-0.05 -0.75,0.62 -1.56,2.22 -3.49,3.5 -3.8,4.79z"/>
                    <path class="fil0" d="M61.66 31.42c0.07,-0.11 -0.01,-0.04 0.2,-0.26 0,0 0.23,-0.23 0.27,-0.27 0.24,-0.25 0.36,-0.45 0.57,-0.62 -0.03,-0.8 0.17,-0.25 -0.17,-0.68 -0.76,0.42 -0.37,0.44 -1.04,1.03 -0.45,0.4 -2.85,1.74 -2.8,3.18 0.9,-0.03 1.95,-1.89 2.97,-2.38z"/>
                    <path class="fil1" d="M61.4 33.08c-0.27,0.53 -0.17,0.36 -0.62,0.79 -0.27,0.25 -0.4,0.37 -0.66,0.65 -0.39,0.42 -0.93,0.86 -0.85,1.76 1.24,-0.78 1.91,-1.83 2.96,-2.85 0.54,-0.52 0.7,-0.33 0.7,-1.2 -0.59,0.07 -0.41,0.04 -0.8,0.36 -0.58,0.47 -0.05,0.29 -0.73,0.49z"/>
                    <path class="fil2" d="M54.66 10.74c0.53,-0.18 1.17,-1.48 1.56,-1.94 0.45,-0.55 1.57,-1.18 1.55,-1.91 -0.21,0.06 -3.31,2.13 -3.11,3.85z"/>
                </g>
            </g>
    </symbol>
    <symbol id="unmute" viewBox="0 0 101 101">
         <g id="Слой_x0020_1">
            <metadata id="CorelCorpID_0Corel-Layer"/>
            <path class="fil0" d="M11.84 71.11c0.46,-0.5 0.13,-0.71 1.06,-1.52 -0.23,0.8 -0.41,1.28 -1.06,1.52zm1.89 -29.31c0.51,0.28 0.18,-0.26 0.32,0.76 0.02,0.11 -0.01,0.78 -0.01,0.94 -0.02,0.76 -0.01,1.5 -0.04,2.26 -0.65,0.52 -1.14,1.25 -1.68,1.9 -1.02,1.24 -4.11,5.02 -4.46,6.13 1.38,-0.11 3.85,-4.76 6.14,-7.07 0.26,4.58 0.11,3.39 -2.16,6.47 -0.68,0.92 -3.3,4.11 -3.38,5.09 1.68,-0.47 4.2,-5.62 5.51,-6.78 0.16,1.17 0.33,3.37 -0.36,4.21 -0.39,0.47 -0.59,0.63 -1.14,1.13 -0.49,0.46 -0.6,0.78 -1.01,1.25 -1.1,1.24 -3.12,3.33 -3.64,5.36 0.69,-0.15 0.51,-0.18 0.94,-0.73l3.71 -4.75c0.4,-0.49 1.11,-1.31 1.51,-1.66 0.19,3.62 -0.3,3.36 -2.88,6.3l-2.16 2.53c-0.52,0.65 -1.51,1.85 -1.7,2.79 0.82,-0.15 1.39,-0.99 1.86,-1.67 1.18,-1.69 2.7,-3.41 4.06,-4.98 0.36,-0.4 0.33,-0.56 0.79,-0.87 -0.03,1.69 0.21,2.05 -0.66,3.26 -1.1,1.51 -4.32,5.69 -4.51,6.74 0.77,-0.1 1.13,-0.68 1.55,-1.24l3.46 -4.78c0.02,3.23 -0.75,3.76 -2.18,5.88 -0.91,1.35 -1.02,2.01 -1.9,2.22 -1.09,0.27 -2.29,-0.01 -3.17,-0.46 -3.82,-1.97 -3.57,-7.62 -3.82,-12.36 -0.28,-5.35 -0.73,-26.95 1.23,-30.71 3.09,-0.39 4.27,-0.36 7.13,0.23 -0.61,1 -1.53,1.48 -1.74,3.03 0.74,-0.14 0.78,-0.56 1.24,-1.16 0.26,-0.35 0.27,-0.33 0.6,-0.71 0.13,-0.15 0.16,-0.18 0.27,-0.32 0.36,-0.41 0,-0.05 0.3,-0.33l0.79 0.55c-0.98,1.88 -4.54,4.27 -4.75,6.29 0.74,-0.09 0.94,-0.59 1.4,-1.23l3.68 -4.21c0.41,0.45 0.7,1.32 0.74,2.08 -1.15,0.99 -5.62,5.27 -6.15,7.32 0.55,-0.16 0.47,-0.27 0.92,-0.73 0.4,-0.43 0.42,-0.51 0.76,-0.93 0.32,-0.4 0.5,-0.5 0.81,-0.89 1.14,-1.45 2.43,-2.97 3.88,-4.11 0.18,2.87 0.59,2.1 -2.19,5.24 -1.11,1.26 -5,6.15 -5.34,7.26 1.74,-0.61 4.84,-6.17 7.51,-8.9l0.22 -0.2c0.07,4.36 0.39,2.6 -2.68,6.62 -0.75,0.98 -3.4,3.14 -3.93,5.17 0.68,-0.16 0.61,-0.2 1.03,-0.73 0.29,-0.37 0.44,-0.61 0.76,-0.93 0.4,-0.42 0.46,-0.42 0.81,-0.89 0.76,-1 2.87,-3.19 3.5,-4.2 0.19,-0.31 0.14,-0.11 0.21,-0.48zm2.61 1.8l-0.02 -1.18c-0.03,-3.82 0.18,-7.15 -0.64,-10.82 1.62,-0.06 1.57,0.02 3.23,-0.67 1.92,-0.79 5.79,-3.46 7.43,-4.61 1.58,-1.11 3.08,-2.26 4.64,-3.45l18.65 -15.39c0.71,-0.67 2.79,-2.57 3.44,-2.74 -0.29,3.48 -0.87,7.19 -1.2,10.75 -2.14,23.2 -4.81,59.42 -0.74,80.55 -0.51,-0.24 -0.09,-0.03 -0.43,-0.25l-5.76 -4.61c-1.02,-0.86 -2.04,-1.63 -3.01,-2.45l-2.77 -2.32c-0.03,-0.02 -0.08,-0.08 -0.1,-0.1 -0.02,-0.02 -0.07,-0.07 -0.1,-0.11 0.52,-0.89 1.18,-2.12 1.76,-3 0.41,-0.63 1.57,-2.16 1.12,-3.16 -0.79,0.29 -0.16,0.54 -1.7,2.77 -0.55,0.8 -1.35,1.97 -1.68,2.98 -0.46,-0.22 -3.47,-2.66 -3.95,-3.16 0.19,-0.84 5.26,-8.04 5.48,-9.26 0.14,-0.83 -0.18,-0.84 -0.22,-0.88 -0.2,0.12 -1.17,2.08 -1.37,2.39 -1.47,2.26 -2.95,4.92 -4.65,7 -0.91,-0.3 -1.03,-0.9 -1.93,-1.26 0.34,-1.33 3.29,-5.82 4.14,-7.06l3.27 -5.2c0.43,-0.8 0.89,-1.17 0.35,-1.67 -0.55,0.27 -0.15,-0.09 -0.59,0.68 -0.18,0.32 -0.29,0.53 -0.47,0.84l-7.4 11.61c-0.83,-0.47 -2.11,-1.43 -2.65,-2.11 1.09,-0.36 1.84,-2.23 2.42,-3.22 1.38,-2.33 6.58,-9.31 6.43,-10.52 -0.75,0.05 -0.93,0.83 -1.34,1.51 -2.59,4.3 -5.21,6.78 -7.72,12.08 -0.87,-0.42 -2.03,-1.5 -3.89,-2.86 -1.77,-1.45 -3.34,-2.55 -4.37,-3.15 -1.26,-0.73 -2.88,-1.42 -4.59,-1.47 1.54,-8.2 0.96,-18.08 0.93,-26.48zm44.83 15.85c-1.69,3.65 -6.01,7.9 -10.15,8.18l0.16 -13.45c-0.06,-3.08 0.09,-2.57 0.37,-6.34l0.76 -13.84c0.6,0.11 4,2.49 4.66,3.02 1.03,0.81 3.25,2.79 3.41,4.46 3.29,4.02 3.85,11.32 0.79,17.97zm-38.58 16.65c0.42,0.36 1.24,1.05 1.31,1.15l0.28 0.38c0.77,0.2 20.63,16.49 22.59,18.13 1.56,1.32 2.91,2.25 4.68,3.59 1.69,1.26 4.15,2.02 6.54,0.95 6.98,-3.13 9.56,-22.92 10.86,-30.36 1.47,-8.49 2.06,-14.3 1.42,-22.87 -0.12,-1.62 -0.83,-6.49 -0.55,-7.68 -0.02,-0.04 -0.86,-4.89 -0.87,-5.06 0.29,-2.49 -1.93,-13.1 -2.55,-16.03 -1.16,-5.42 -2.05,-10.09 -4.6,-14.27 -0.09,-0.08 -0.11,-0.05 -0.26,-0.26 -0.22,-0.33 -0.05,-0.08 -0.18,-0.45 -1.02,-0.53 -1.97,-2.32 -5.12,-1.93 -1.4,0.18 -0.82,-0.16 -1.89,-0.2 -1.36,-0.05 -2.29,1.29 -3.04,1.86l-7.77 6.7c-5.41,4.57 -16.24,13.48 -21.76,17.17 -1.74,1.17 -3.87,2.98 -6.55,3.23 -1.08,-1.42 -0.07,-0.79 -1.8,-2.14 -1.35,-1.07 -3.09,-1.57 -4.97,-1.56 -1.68,0 -2.94,0.31 -4.36,0.85 -1.72,0.66 -1.82,1.1 -2.41,3.05 -1.53,5.06 -1.61,14.3 -1.59,19.93 0.02,4.36 0.09,16.58 1.68,19.87 2.54,5.29 9.47,7.12 13.11,1.29 2.38,0.63 4.41,2 5.89,3.24 0.33,0.31 1.23,1 1.91,1.42zm45.04 -37.91c0.1,2.31 0.92,10.5 0.99,12.83 0.12,3.89 -0.01,7.64 -0.47,11.46 -0.39,3.24 -2.81,17.78 -3.61,20.34 -0.1,0.66 -0.22,1.57 -0.59,1.99 0.03,2.16 -3.33,10.92 -5.39,12.85 -0.8,0.75 -1.36,0.9 -2.81,0.73 -0.83,-0.1 -0.8,0 -1.34,-0.5 -0.97,-0.9 -1.43,-2.19 -1.65,-3.6 0.88,-0.79 6.61,-7.01 6.74,-7.88 -1.03,-0.06 -1.53,1.03 -1.97,1.57l-1.69 1.88c-1.62,1.95 -2.05,1.64 -3.19,3.79 -0.24,-0.99 -0.35,-2.04 -0.48,-3.07 -0.56,-4.21 -0.79,-2.13 1.96,-5.63l5.42 -6.43c0.04,-0.04 0.5,-0.54 0.54,-0.62 0.33,-0.68 0.19,-0.38 -0.01,-0.78 -0.76,0.28 -0.71,0.78 -1.27,1.22 -0.39,0.32 -0.16,0.15 -0.45,0.24 -0.67,1.01 -3.63,4.01 -5.02,5.77 -0.56,0.73 -0.97,1.4 -1.53,2.08 -1.3,-3.32 0.99,-4.38 3.23,-7.34l1.38 -1.44c0.37,-0.39 0.04,-0.18 0.55,-0.48 0.08,-0.34 -0.11,-0.08 0.27,-0.57 0.35,-0.45 2.37,-2.46 2.52,-3.08 0.01,-0.03 0.01,-0.1 0.01,-0.12 0.01,-0.02 -0.01,-0.06 -0.01,-0.12 0.01,-0.06 0,-0.08 -0.01,-0.12 -0.61,-0.09 -0.78,0.42 -1.12,0.87l-3.26 3.51c-0.86,0.76 -1.23,1.45 -2.19,2.33 -0.76,0.69 -1.07,1.49 -1.76,2.54l-0.14 -3.17c1.04,-0.66 4.76,-5.98 6.28,-7.79 0.75,-0.89 1.39,-1.36 1.96,-2.31 -1.92,0.27 -6.82,7.48 -8.28,9.16l-0.12 -2.63c0.05,-0.03 0.12,-0.13 0.14,-0.1l0.34 -0.29c0.14,-0.13 0.37,-0.35 0.48,-0.47 0.8,-0.88 2.67,-3.65 3.96,-5.07 1.09,-1.2 1.52,-1.45 1.61,-2.18 -0.62,0.18 -2.15,1.86 -2.66,2.45l-3.88 4.94 -0.07 -5.11c1.77,-0.71 2.59,-0.26 5.33,-2.02 0.6,-0.37 1.03,-0.69 1.64,-0.99 0.08,-0.34 1.63,-1.64 1.97,-1.98 0.84,-0.83 1.11,-1.15 1.79,-2.16 1.04,-1.59 1.82,-3.35 2.37,-5.54 0.76,-3.01 0.93,-11.24 -0.71,-13.64 -0.98,-3.15 -1,-2.62 -1.14,-2.83 -0.23,-0.88 -0.8,-1.67 -1.34,-2.37 -0.37,-0.48 -0.33,-0.48 -0.9,-0.99 -0.42,-0.37 -0.69,-0.51 -0.72,-0.95 -0.68,-0.37 -1.01,-0.73 -1.65,-1.18 -5.97,-4.17 -5.31,-0.6 -5.13,-5.67 1.12,-0.54 1.49,-1.07 2.26,-1.81 0.92,-0.89 0.9,-1.33 2.01,-2.01 0.38,-1.01 4.01,-3.6 4.22,-4.8 -1.21,0.03 -0.61,0.38 -2.32,1.69l-4.01 3.88c-1,1.1 -1.1,1.68 -2.09,2.11l0.18 -2.74c0.66,-0.35 0.7,-0.44 1.26,-0.95 0.68,-0.63 0.49,-0.42 0.98,-1.1 1.11,-1.56 1.97,-2.11 3.18,-3.21l2.07 -2.06c0.3,-0.35 0.72,-0.76 0.57,-1.2 -0.5,-0.12 -0.6,0.25 -1.05,0.71l-3.03 2.8c-1.93,2.02 -1.52,1.42 -3.36,3.6l-0.56 0.54 0.48 -6.85c0.23,-0.26 0.05,-0.07 0.29,-0.27l1.47 -1.32c0.32,-0.37 0.42,-0.6 0.76,-0.95l2.32 -2.57c0.86,-0.93 1.27,-0.92 1.64,-1.47 -0.84,-0.64 -2.96,1.98 -3.37,2.39 -0.57,0.55 -1.15,0.95 -1.66,1.53l-1.25 1.66c-0.02,-0.03 -0.08,0.08 -0.12,0.12 0.07,-2.4 0.34,-4.98 0.56,-7.37 0.17,-1.88 -0.22,-5.31 1.33,-6.29 3.99,-2.52 6.53,4.27 7.37,7.24 2.26,7.93 3.69,17.35 4.95,27.37z"/>
            <path class="fil0" d="M25.66 73.04l0.02 0.34c0.44,0.21 -0.3,0.26 0.75,0.03l4.49 -6.78c1.66,-2.2 2.79,-3.53 4.26,-5.9l0.69 -0.91 -0.19 -0.64c-0.62,0.19 -2.06,2.66 -2.6,3.41 -0.88,1.21 -1.77,2.27 -2.64,3.37l-4.78 7.08z"/>
            <path class="fil0" d="M19.23 67.94c1.37,-0.48 4.46,-5.87 6.17,-8.15 0.38,-0.51 0.74,-1.09 1.18,-1.64 0.55,-0.68 2.22,-2.64 2.29,-3.53 -0.83,0.06 -1.78,1.71 -2.69,2.95 -1.44,1.97 -6.67,8.75 -6.95,10.37z"/>
            <path class="fil0" d="M21.88 71c1.26,-0.5 3.15,-4.87 5.14,-7.32l5.09 -6.41c0.45,-0.72 0.17,-0.22 0.26,-0.58 -0.7,-0.34 -1.65,1.49 -2.85,2.91 -2.04,2.42 -7.02,8.37 -7.64,11.4z"/>
            <path class="fil1" d="M16.68 65.83c1.47,-0.72 1.62,-2.26 2.54,-3.75 2.15,-3.5 3.76,-5.32 5.89,-9.33 0.55,-1.04 0.48,-0.78 0.96,-1.31 0.33,-0.37 0.26,-0.07 0.43,-0.67 -1.56,0.4 -1.99,2.07 -2.78,3.4 -2.18,3.66 -5.41,6.69 -7.04,11.66z"/>
            <path class="fil0" d="M58.38 26.02c-1.17,2.09 -4.54,3.51 -5.32,5.92 0.95,-0.3 3.15,-2.39 3.82,-3.1l3.45 -3.46c1.26,-0.72 1.07,-0.43 1.3,-1.05 -1.21,-0.75 -2.53,1.62 -3.25,1.69z"/>
            <path class="fil0" d="M59.23 83.89c0.32,-0.77 0.09,-0.46 0.73,-0.72l-0.26 -0.47c-1.12,0.34 -2.12,1.79 -2.99,2.58 -0.54,0.48 -0.54,0.45 -0.95,0.92 -1.5,1.75 -3.38,2.42 -3.41,4.22 1.45,-1.02 2.5,-2.16 3.57,-3.3l2.86 -2.97c0.48,-0.38 0.13,-0.12 0.45,-0.26z"/>
            <path class="fil0" d="M53.58 21.4c1.02,-0.24 1.01,-0.65 2.04,-1.72 0.67,-0.7 1.23,-1.18 1.96,-1.8l1.73 -1.85c1.22,-1.45 1.62,-1.35 1.63,-1.94l-0.38 0.01c-0.71,0.23 -2.86,2.67 -3.49,3.26 -1.05,0.97 -3.11,2.3 -3.49,4.04z"/>
            <path class="fil0" d="M36.52 83.95c1.03,-0.45 4.83,-6.14 4.14,-7.25 -0.68,0.2 -0.72,1.04 -1.09,1.77 -1.35,2.63 -3.12,3.64 -3.05,5.48z"/>
            <path class="fil0" d="M60.6 27.81c-1.22,0.83 -3.42,2.78 -4.25,3.88 -1.01,1.36 -0.85,0.63 -1.12,1.52 0.92,0 1.32,-0.34 1.91,-1.1 0.99,-1.25 3.07,-3.63 4.56,-4.13l-0.25 -0.59 -0.85 0.42z"/>
            <path class="fil1" d="M18.89 58.26c1.03,-0.84 1.67,-2.23 2.29,-3.43 0.69,-1.34 1.72,-2.51 1.77,-4.26 -0.26,0.24 -0.13,0.05 -0.35,0.4 -0.21,0.34 -0.26,0.78 -0.76,1.51 -0.84,1.25 -3.06,4.61 -2.95,5.78z"/>
            <path class="fil1" d="M54 13.83c1.25,-0.28 1.96,-1.38 2.92,-2.63l1.19 -1.45c0.57,-0.66 0.92,-0.8 1.27,-1.67 -1.05,0.42 -2.18,1.85 -2.91,2.66 -0.72,0.81 -2.11,1.84 -2.47,3.09z"/>
            <path class="fil0" d="M54.59 96.26c0.78,-0.23 1.22,-0.64 1.63,-1.13 0.72,-0.86 3.24,-3.38 2.92,-4.28 -0.63,0.18 -0.27,-0.05 -0.75,0.62 -1.56,2.22 -3.49,3.5 -3.8,4.79z"/>
            <path class="fil0" d="M61.66 31.42c0.07,-0.11 -0.01,-0.04 0.2,-0.26 0,0 0.23,-0.23 0.27,-0.27 0.24,-0.25 0.36,-0.45 0.57,-0.62 -0.03,-0.8 0.17,-0.25 -0.17,-0.68 -0.76,0.42 -0.37,0.44 -1.04,1.03 -0.45,0.4 -2.85,1.74 -2.8,3.18 0.9,-0.03 1.95,-1.89 2.97,-2.38z"/>
            <path class="fil1" d="M61.4 33.08c-0.27,0.53 -0.17,0.36 -0.62,0.79 -0.27,0.25 -0.4,0.37 -0.66,0.65 -0.39,0.42 -0.93,0.86 -0.85,1.76 1.24,-0.78 1.91,-1.83 2.96,-2.85 0.54,-0.52 0.7,-0.33 0.7,-1.2 -0.59,0.07 -0.41,0.04 -0.8,0.36 -0.58,0.47 -0.05,0.29 -0.73,0.49z"/>
            <path class="fil2" d="M54.66 10.74c0.53,-0.18 1.17,-1.48 1.56,-1.94 0.45,-0.55 1.57,-1.18 1.55,-1.91 -0.21,0.06 -3.31,2.13 -3.11,3.85z"/>
        </g>
    </symbol>
</svg>
