<svg version="1.1" xmlns="http://www.w3.org/2000/svg">
    <symbol id="download" viewBox="0 0 64 64">
        <path d="M32 0.64c-17.318 0-31.36 14.042-31.36 31.36s14.042 31.36 31.36 31.36c17.318 0 31.36-14.042 31.36-31.36s-14.042-31.36-31.36-31.36zM32 58.458c-14.611 0-26.458-11.846-26.458-26.458s11.846-26.458 26.458-26.458 26.458 11.846 26.458 26.458-11.846 26.458-26.458 26.458z"></path>
        <path d="M43.763 39.84v3.923h-23.52v-3.923h-3.923v7.84h31.36v-7.84h-3.917z"></path>
        <path d="M33.958 32v-15.68h-3.923v15.68h-5.882l7.846 9.798 7.84-9.798h-5.882z"></path>
    </symbol>
    <symbol id="pause" viewBox="0 0 64 64">
        <path d="M32 0c-17.673 0-32 14.327-32 32s14.327 32 32 32 32-14.327 32-32-14.327-32-32-32zM32 58c-14.359 0-26-11.641-26-26s11.641-26 26-26 26 11.641 26 26-11.641 26-26 26zM20 20h8v24h-8zM36 20h8v24h-8z"></path>
    </symbol>
    <symbol id="play" viewBox="0 0 64 64">
        <path d="M32 0c-17.673 0-32 14.327-32 32s14.327 32 32 32 32-14.327 32-32-14.327-32-32-32zM32 58c-14.359 0-26-11.641-26-26s11.641-26 26-26 26 11.641 26 26-11.641 26-26 26zM24 18l24 14-24 14z"></path>
    </symbol>
    <symbol id="next" viewBox="0 0 81 81">
        <g id="Слой_x0020_1">
            <metadata id="CorelCorpID_0Corel-Layer"/>
            <path class="fil0" d="M40 1c-22.09,0 -40,17.91 -40,40 0,22.09 17.91,40 40,40 22.09,0 40,-17.91 40,-40 0,-22.09 -17.91,-40 -40,-40zm6.46 24.37l10.42 0 0 31.25 -10.42 0 0 -11.73 -23.34 13.61 0 -35 23.34 13.61 0 -11.74zm-6.46 48.13c-17.95,0 -32.5,-14.55 -32.5,-32.5 0,-17.95 14.55,-32.5 32.5,-32.5 17.95,0 32.5,14.55 32.5,32.5 0,17.95 -14.55,32.5 -32.5,32.5z"/>
        </g>
    </symbol>
    <symbol id="previous" viewBox="0 0 81 81">
        <g id="Слой_x0020_1">
            <metadata id="CorelCorpID_0Corel-Layer"/>
            <path class="fil0" d="M40 1c22.09,0 40,17.91 40,40 0,22.09 -17.91,40 -40,40 -22.09,0 -40,-17.91 -40,-40 0,-22.09 17.91,-40 40,-40zm-6.46 24.37l-10.41 0 0 31.25 10.41 0 0 -11.73 23.34 13.61 0 -35 -23.34 13.61 0 -11.74zm6.46 48.13c17.95,0 32.5,-14.55 32.5,-32.5 0,-17.95 -14.55,-32.5 -32.5,-32.5 -17.95,0 -32.5,14.55 -32.5,32.5 0,17.95 14.55,32.5 32.5,32.5z"/>
        </g>
    </symbol>
</svg>
