<svg version="1.1" xmlns="http://www.w3.org/2000/svg">
    <symbol id="download" viewBox="0 0 64 64">
        <path d="M32 0.64c-17.318 0-31.36 14.042-31.36 31.36s14.042 31.36 31.36 31.36c17.318 0 31.36-14.042 31.36-31.36s-14.042-31.36-31.36-31.36zM32 58.458c-14.611 0-26.458-11.846-26.458-26.458s11.846-26.458 26.458-26.458 26.458 11.846 26.458 26.458-11.846 26.458-26.458 26.458z"></path>
        <path d="M43.763 39.84v3.923h-23.52v-3.923h-3.923v7.84h31.36v-7.84h-3.917z"></path>
        <path d="M33.958 32v-15.68h-3.923v15.68h-5.882l7.846 9.798 7.84-9.798h-5.882z"></path>
    </symbol>
    <symbol id="pause" viewBox="0 0 64 64">
        <path d="M32 0c-17.673 0-32 14.327-32 32s14.327 32 32 32 32-14.327 32-32-14.327-32-32-32zM32 58c-14.359 0-26-11.641-26-26s11.641-26 26-26 26 11.641 26 26-11.641 26-26 26zM20 20h8v24h-8zM36 20h8v24h-8z"></path>
    </symbol>
    <symbol id="play" viewBox="0 0 64 64">
        <path d="M32 0c-17.673 0-32 14.327-32 32s14.327 32 32 32 32-14.327 32-32-14.327-32-32-32zM32 58c-14.359 0-26-11.641-26-26s11.641-26 26-26 26 11.641 26 26-11.641 26-26 26zM24 18l24 14-24 14z"></path>
    </symbol>
    <symbol id="next" viewBox="0 0 81 81">
        <g id="Слой_x0020_1">
            <metadata id="CorelCorpID_0Corel-Layer"/>
            <path class="fil0" d="M40 1c-22.09,0 -40,17.91 -40,40 0,22.09 17.91,40 40,40 22.09,0 40,-17.91 40,-40 0,-22.09 -17.91,-40 -40,-40zm6.46 24.37l10.42 0 0 31.25 -10.42 0 0 -11.73 -23.34 13.61 0 -35 23.34 13.61 0 -11.74zm-6.46 48.13c-17.95,0 -32.5,-14.55 -32.5,-32.5 0,-17.95 14.55,-32.5 32.5,-32.5 17.95,0 32.5,14.55 32.5,32.5 0,17.95 -14.55,32.5 -32.5,32.5z"/>
        </g>
    </symbol>
    <symbol id="previous" viewBox="0 0 81 81">
        <g id="Слой_x0020_1">
            <metadata id="CorelCorpID_0Corel-Layer"/>
            <path class="fil0" d="M40 1c22.09,0 40,17.91 40,40 0,22.09 -17.91,40 -40,40 -22.09,0 -40,-17.91 -40,-40 0,-22.09 17.91,-40 40,-40zm-6.46 24.37l-10.41 0 0 31.25 10.41 0 0 -11.73 23.34 13.61 0 -35 -23.34 13.61 0 -11.74zm6.46 48.13c17.95,0 32.5,-14.55 32.5,-32.5 0,-17.95 -14.55,-32.5 -32.5,-32.5 -17.95,0 -32.5,14.55 -32.5,32.5 0,17.95 14.55,32.5 32.5,32.5z"/>
        </g>
    </symbol>
    <symbol id="mute" viewBox="viewBox="0 0 1000 1000"">
<metadata> Svg Vector Icons : http://www.onlinewebfonts.com/icon </metadata>
<g><g transform="translate(0.000000,511.000000) scale(0.100000,-0.100000)"><path d="M4665.3,4994.9c-640.4-39.6-1192.3-188.6-1804.7-486.7c-989.7-482-1774.4-1262.1-2258.8-2247.1C-592.7-169.9,418-3104,2860.7-4293.9c707.9-347,1343.6-491.3,2130.7-491.3c603.1,0,1054.9,74.5,1606.7,263.1c1513.6,517,2724.5,1814,3132,3355.5c90.8,337.6,128.1,561.2,156,940.8c104.8,1343.6-386.6,2703.5-1334.3,3697.8C7524.9,4547.8,6148.7,5088.1,4665.3,4994.9z M5573.5,4855.2c1241.1-153.7,2391.5-789.4,3150.6-1741.8c756.8-950.1,1138.7-2177.3,1043.2-3350.9C9583.4-2521.8,7897.5-4319.5,5648-4629.2c-302.7-41.9-924.5-48.9-1215.5-11.6C2597.5-4415,1072.3-3183.2,476.2-1450.7c-528.6,1543.9-230.5,3274,784.7,4547.8c761.5,954.7,1911.8,1599.8,3139,1758.1C4630.4,4883.2,5343,4885.5,5573.5,4855.2z"/><path d="M4378.9,1504.3l-598.5-442.4l-610.1-4.7l-612.4-7V107.2v-943.1l610.1-7l612.4-4.6l598.5-447.1c328.3-244.5,614.8-444.7,633.4-447.1c32.6-2.3,37.2,193.3,44.2,1844.2c4.7,1765.1,2.3,1844.3-37.2,1844.3C4996,1946.8,4707.2,1748.8,4378.9,1504.3z M4944.8,95.5v-1665l-558.9,419.1L3827-731.1h-582.2h-582.2v838.3v838.3l589.1,2.3l586.8,2.3l535.6,402.8c295.7,221.2,542.6,405.2,554.2,405.2C4937.8,1760.5,4944.8,1010.7,4944.8,95.5z"/><path d="M5859.9,1068.9c-16.3-4.6-30.3-23.3-30.3-37.2c0-16.3,202.6-228.2,447.1-475l449.4-449.4l-437.8-437.8c-239.8-239.8-435.4-447.1-435.4-463.4c0-14,18.6-32.6,39.6-39.6c30.3-11.6,149,93.1,477.4,421.5l437.8,437.8l451.8-451.7c426.1-423.8,503-484.4,503-379.6c0,21-195.6,235.2-435.5,475l-437.8,437.8l442.4,442.4c416.8,419.2,437.8,444.8,400.5,482c-37.3,39.6-65.2,16.3-482-400.5l-442.4-442.4l-449.4,449.4c-246.8,244.5-451.8,447.1-458.7,444.8C5892.5,1082.9,5873.9,1075.9,5859.9,1068.9z"/></g></g>
    </symbol>
</svg>
