<?xml version="1.0" encoding="UTF-8"?>
<!DOCTYPE svg PUBLIC "-//W3C//DTD SVG 1.1//EN" "http://www.w3.org/Graphics/SVG/1.1/DTD/svg11.dtd">
<!-- Creator: CorelDRAW 2019 (64-Bit) -->
<svg xmlns="http://www.w3.org/2000/svg" xml:space="preserve" width="26px" height="26px" version="1.1" style="shape-rendering:geometricPrecision; text-rendering:geometricPrecision; image-rendering:optimizeQuality; fill-rule:evenodd; clip-rule:evenodd"
viewBox="0 0 26 26"
 xmlns:xlink="http://www.w3.org/1999/xlink">
 <defs>
  <style type="text/css">
   <![CDATA[
    .str0 {stroke:#2B2A29;stroke-width:0.2;stroke-miterlimit:22.9256}
    .fil0 {fill:black}
    .fil1 {fill:white}
   ]]>
  </style>
 </defs>
 <g id="Слой_x0020_1">
  <metadata id="CorelCorpID_0Corel-Layer"/>
  <g id="_2328899558640">
   <rect class="fil0 str0" x="0.46" y="0.54" width="25" height="25"/>
   <path class="fil1" d="M11.19 5.29c-0.53,0.17 -0.99,0.48 -1.1,0.75l-0.04 0.11 -0.74 0 -0.1 -0.2c-0.07,-0.15 -0.14,-0.22 -0.27,-0.29l-0.17 -0.1 -1.25 0c-1.64,0 -1.85,0.08 -1.85,0.73l0 0.18 -0.27 0.14c-1.03,0.5 -1.84,1.49 -2.15,2.65l-0.09 0.32 0 3.96c0,4.32 -0.02,4.04 0.21,4.66 0.51,1.37 1.7,2.36 3.14,2.63 0.49,0.09 12.44,0.09 12.93,0 1.44,-0.27 2.63,-1.26 3.14,-2.63 0.23,-0.62 0.21,-0.34 0.21,-4.66l0 -3.96 -0.08 -0.3c-0.45,-1.59 -1.59,-2.67 -3.2,-3.04 -0.24,-0.05 -0.56,-0.07 -1.95,-0.08l-1.66 -0.02 -0.04 -0.11c-0.12,-0.26 -0.6,-0.59 -1.13,-0.75 -0.42,-0.13 -3.14,-0.12 -3.54,0.01zm7.7 2.19c1.17,0.12 2.09,0.83 2.49,1.95l0.11 0.3 0.01 3.66c0.01,4.18 0.02,3.98 -0.31,4.66 -0.37,0.75 -1.12,1.32 -1.96,1.49 -0.45,0.09 -12.06,0.09 -12.51,0 -0.85,-0.17 -1.59,-0.75 -1.99,-1.55 -0.3,-0.61 -0.29,-0.47 -0.28,-4.6l0.01 -3.66 0.12 -0.33c0.39,-1.06 1.32,-1.81 2.42,-1.92 0.46,-0.05 11.41,-0.05 11.89,0l0 0zm-11.99 0.42c-1.24,0.17 -2.03,1.18 -2.03,2.55l0 0.51 2.63 0 0.09 -0.18c0.39,-0.79 1.18,-1.66 2.02,-2.22 0.32,-0.21 1.15,-0.63 1.25,-0.63 0.02,0 0.04,-0.02 0.04,-0.04 0,-0.04 -3.68,-0.04 -4,0l0 0.01zm8.15 -0.02c0,0.02 0.07,0.06 0.14,0.08 1.21,0.42 2.68,1.73 3.18,2.84l0.07 0.16 2.64 0 0 -0.51c0,-1.28 -0.59,-2.12 -1.76,-2.5 -0.24,-0.08 -4.27,-0.14 -4.27,-0.07l0 0zm-2.44 0.26c-4.48,0.43 -6.65,5.29 -3.92,8.75 3.02,3.83 9.34,1.93 9.74,-2.93 0.26,-3.26 -2.61,-6.13 -5.82,-5.82zm1.02 1.35c2.58,0.36 4.19,3.15 3.2,5.55 -1.13,2.76 -4.75,3.47 -6.83,1.33 -2.76,-2.83 -0.33,-7.44 3.63,-6.88zm-1.1 0.64c-2.32,0.32 -3.66,2.66 -2.74,4.79 1.05,2.44 4.58,2.74 6.08,0.52 1.64,-2.43 -0.42,-5.72 -3.34,-5.31zm1.51 0.52c0.45,0.14 0.79,0.46 0.79,0.76 0.02,0.69 -1.37,0.67 -1.84,-0.03 -0.35,-0.53 0.28,-0.96 1.05,-0.73zm-1.97 5.24c0.43,0.09 1.06,0.47 1.06,0.64 0,0.4 -1.43,0.14 -1.84,-0.33 -0.29,-0.32 0.06,-0.46 0.78,-0.31zm7.55 1.47c-0.8,0.25 -0.64,1.33 0.18,1.33 0.85,0 0.91,-1.22 0.07,-1.34 -0.08,-0.01 -0.2,0 -0.25,0.01l0 0z"/>
  </g>
 </g>
</svg>
