<?xml version="1.0" encoding="UTF-8"?>
<!DOCTYPE svg PUBLIC "-//W3C//DTD SVG 1.1//EN" "http://www.w3.org/Graphics/SVG/1.1/DTD/svg11.dtd">
<!-- Creator: CorelDRAW 2019 (64-Bit) -->
<svg xmlns="http://www.w3.org/2000/svg" xml:space="preserve" width="100px" height="100px" version="1.1" style="shape-rendering:geometricPrecision; text-rendering:geometricPrecision; image-rendering:optimizeQuality; fill-rule:evenodd; clip-rule:evenodd"
viewBox="0 0 100 100"
 xmlns:xlink="http://www.w3.org/1999/xlink">
 <defs>
  <style type="text/css">
   <![CDATA[
    .fil0 {fill:black}
    .fil1 {fill:#BDAE82;fill-rule:nonzero}
   ]]>
  </style>
 </defs>
 <g id="Слой_x0020_1">
  <metadata id="CorelCorpID_0Corel-Layer"/>
  <rect class="fil0" x="0.79" y="1.59" width="97.62" height="97.62" rx="19.05" ry="18.44"/>
  <path class="fil1" d="M23.94 28.3l9.09 0 13.72 40.22 3.45 0.59 0 3.57 -17.53 0 0 -3.57 4.46 -0.59 -2.32 -7.73 -15.39 0 -2.32 7.79 4.82 0.53 0 3.57 -15.15 0 -0.06 -3.57 3.56 -0.59 13.67 -40.22zm4.1 10.04l-1.07 -4.64 -1.13 4.7 -5.29 18.23 13.07 0 -5.58 -18.29z"/>
  <path id="1" class="fil1" d="M51.74 69.11l4.69 -0.59 0 -35.53 -4.45 -0.83 0 -3.63 8.61 0c0.76,0 1.59,-0.02 2.5,-0.06 0.91,-0.04 1.6,-0.08 2.08,-0.12 2.06,-0.15 3.76,-0.23 5.11,-0.23 4.08,0 7.34,0.41 9.8,1.24 2.46,0.84 4.24,2.1 5.35,3.81 1.11,1.7 1.66,3.94 1.66,6.71 0,2.73 -0.73,5.27 -2.2,7.61 -1.46,2.33 -3.58,3.94 -6.35,4.81 1.58,0.67 2.99,1.9 4.21,3.68 1.23,1.78 2.54,4.1 3.93,6.95 0.99,1.94 1.75,3.34 2.28,4.19 0.54,0.85 1.06,1.34 1.58,1.46l1.96 0.59 0 3.51 -10.1 0c-0.64,0 -1.3,-0.65 -1.99,-1.93 -0.7,-1.29 -1.6,-3.32 -2.71,-6.09 -1.3,-3.25 -2.43,-5.79 -3.38,-7.61 -0.95,-1.82 -1.96,-2.95 -3.03,-3.39l-6.12 0 0 14.86 5.46 0.59 0 3.57 -18.89 0 0 -3.57zm18.89 -19.07c2.26,0 4.02,-0.81 5.29,-2.44 1.27,-1.62 1.9,-4.06 1.9,-7.3 0,-2.89 -0.62,-5.03 -1.87,-6.42 -1.25,-1.39 -3.4,-2.08 -6.44,-2.08 -1.11,0 -2.05,0.05 -2.83,0.15 -0.77,0.1 -1.27,0.15 -1.51,0.15l0 17.82c0.47,0.08 1.62,0.12 3.44,0.12l2.02 0z"/>
 </g>
</svg>
