<?xml version="1.0" encoding="UTF-8"?>
<!DOCTYPE svg PUBLIC "-//W3C//DTD SVG 1.1//EN" "http://www.w3.org/Graphics/SVG/1.1/DTD/svg11.dtd">
<!-- Creator: CorelDRAW 2019 (64-Bit) -->
<svg xmlns="http://www.w3.org/2000/svg" xml:space="preserve" width="70px" height="70px" version="1.1" style="shape-rendering:geometricPrecision; text-rendering:geometricPrecision; image-rendering:optimizeQuality; fill-rule:evenodd; clip-rule:evenodd"
viewBox="0 0 70 69.31"
 xmlns:xlink="http://www.w3.org/1999/xlink">
 <defs>
  <style type="text/css">
   <![CDATA[
    .fil0 {fill:white}
   ]]>
  </style>
 </defs>
 <g id="Слой_x0020_1">
  <metadata id="CorelCorpID_0Corel-Layer"/>
  <path class="fil0" d="M27.66 7.29c-1.89,0.61 -3.48,1.69 -3.87,2.63l-0.17 0.4 -2.61 -0.02 -0.34 -0.7c-0.26,-0.52 -0.48,-0.77 -0.95,-1.02l-0.61 -0.34 -4.41 0c-5.78,0 -6.51,0.29 -6.51,2.58l0 0.64 -0.98 0.48c-3.63,1.77 -6.47,5.27 -7.59,9.34l-0.31 1.14 0 13.98c0,15.26 -0.05,14.28 0.76,16.43 1.8,4.84 5.98,8.34 11.09,9.3 1.72,0.32 43.88,0.32 45.6,0 5.11,-0.95 9.29,-4.46 11.1,-9.3 0.8,-2.15 0.75,-1.17 0.75,-16.43l0 -13.98 -0.3 -1.07c-1.57,-5.6 -5.6,-9.41 -11.29,-10.7 -0.86,-0.2 -1.98,-0.25 -6.88,-0.3l-5.85 -0.06 -0.16 -0.38c-0.4,-0.95 -2.1,-2.09 -3.98,-2.66 -1.48,-0.44 -11.08,-0.42 -12.49,0.04l0 0zm27.17 7.71c4.15,0.42 7.39,2.96 8.79,6.88l0.38 1.07 0.04 12.91c0.04,14.76 0.09,14.07 -1.08,16.45 -1.31,2.67 -3.96,4.69 -6.92,5.28 -1.59,0.31 -42.58,0.31 -44.16,0 -2.99,-0.6 -5.63,-2.66 -7.02,-5.48 -1.06,-2.15 -1.02,-1.65 -0.98,-16.25l0.04 -12.91 0.42 -1.16c1.35,-3.75 4.66,-6.38 8.51,-6.78 1.65,-0.17 40.31,-0.18 41.98,-0.01l0 0 0 0zm-42.33 1.48c-4.35,0.63 -7.16,4.16 -7.16,9.02l0 1.8 9.31 0 0.31 -0.64c1.38,-2.8 4.15,-5.85 7.13,-7.83 1.11,-0.74 4.06,-2.23 4.4,-2.23 0.08,0 0.15,-0.06 0.15,-0.13 0,-0.17 -12.99,-0.16 -14.14,0.01l0 0 0 0zm28.78 -0.05c0,0.07 0.23,0.19 0.51,0.3 4.26,1.47 9.44,6.1 11.21,10l0.26 0.57 9.32 0 0 -1.8c0,-4.53 -2.1,-7.5 -6.24,-8.84 -0.81,-0.27 -15.06,-0.48 -15.06,-0.23l0 0 0 0zm-8.61 0.92c-15.81,1.52 -23.48,18.65 -13.83,30.88 10.67,13.52 32.97,6.8 34.37,-10.36 0.93,-11.49 -9.2,-21.61 -20.54,-20.52zm3.59 4.75c9.11,1.29 14.79,11.12 11.32,19.59 -3.99,9.77 -16.8,12.27 -24.14,4.72 -9.73,-10.02 -1.15,-26.28 12.82,-24.31l0 0zm-3.86 2.26c-8.2,1.14 -12.92,9.39 -9.69,16.9 3.73,8.63 16.18,9.7 21.47,1.85 5.79,-8.59 -1.5,-20.19 -11.78,-18.75l0 0zm5.33 1.85c1.58,0.49 2.76,1.62 2.79,2.67 0.06,2.43 -4.86,2.35 -6.5,-0.1 -1.25,-1.86 0.97,-3.41 3.71,-2.57l0 0zm-6.96 18.5c1.5,0.31 3.73,1.66 3.73,2.26 0,1.38 -5.04,0.49 -6.51,-1.16 -1.01,-1.15 0.23,-1.63 2.78,-1.1zm26.63 5.19c-2.8,0.85 -2.25,4.69 0.66,4.68 2.97,0 3.19,-4.32 0.25,-4.72 -0.3,-0.04 -0.71,-0.02 -0.91,0.04l0 0z"/>
 </g>
</svg>
