<?xml version="1.0" encoding="UTF-8"?>
<!DOCTYPE svg PUBLIC "-//W3C//DTD SVG 1.1//EN" "http://www.w3.org/Graphics/SVG/1.1/DTD/svg11.dtd">
<!-- Creator: CorelDRAW 2019 (64-Bit) -->
<svg xmlns="http://www.w3.org/2000/svg" xml:space="preserve" width="200px" height="200px" version="1.1" style="shape-rendering:geometricPrecision; text-rendering:geometricPrecision; image-rendering:optimizeQuality; fill-rule:evenodd; clip-rule:evenodd"
viewBox="0 0 200 200"
 xmlns:xlink="http://www.w3.org/1999/xlink">
 <defs>
  <style type="text/css">
   <![CDATA[
    .fil0 {fill:white}
   ]]>
  </style>
 </defs>
 <g id="Слой_x0020_1">
  <metadata id="CorelCorpID_0Corel-Layer"/>
  <path class="fil0" d="M86.07 40.71c-4.11,1.32 -7.57,3.67 -8.43,5.73l-0.37 0.86 -5.69 -0.03 -0.74 -1.52c-0.56,-1.15 -1.05,-1.69 -2.07,-2.24l-1.32 -0.73 -9.61 0c-12.6,0 -14.19,0.63 -14.19,5.61l0 1.41 -2.14 1.04c-7.9,3.86 -14.09,11.49 -16.54,20.36l-0.68 2.48 0 30.46c0,33.26 -0.1,31.12 1.65,35.82 3.93,10.55 13.04,18.18 24.17,20.27 3.75,0.7 95.65,0.7 99.39,0 11.14,-2.08 20.25,-9.72 24.18,-20.27 1.75,-4.7 1.65,-2.56 1.65,-35.82l0 -30.46 -0.66 -2.33c-3.42,-12.2 -12.2,-20.51 -24.61,-23.33 -1.86,-0.42 -4.3,-0.53 -14.98,-0.64l-12.76 -0.13 -0.35 -0.84c-0.86,-2.06 -4.58,-4.54 -8.67,-5.78 -3.22,-0.98 -24.14,-0.92 -27.23,0.08zm59.23 16.8c9.04,0.92 16.09,6.44 19.15,15l0.83 2.33 0.08 28.13c0.1,32.17 0.2,30.66 -2.35,35.84 -2.86,5.82 -8.63,10.23 -15.08,11.51 -3.46,0.69 -92.79,0.69 -96.24,0 -6.51,-1.3 -12.26,-5.79 -15.29,-11.93 -2.31,-4.69 -2.24,-3.59 -2.15,-35.42l0.09 -28.13 0.92 -2.54c2.95,-8.16 10.16,-13.9 18.55,-14.77 3.58,-0.37 87.84,-0.39 91.49,-0.02l0 0zm-92.26 3.22c-9.48,1.37 -15.6,9.08 -15.6,19.67l0 3.92 20.28 0 0.68 -1.39c3,-6.12 9.04,-12.75 15.54,-17.07 2.43,-1.61 8.84,-4.86 9.59,-4.86 0.17,0 0.32,-0.13 0.32,-0.29 0,-0.36 -28.31,-0.34 -30.81,0.02l0 0zm62.73 -0.1c0,0.14 0.5,0.42 1.11,0.64 9.27,3.21 20.57,13.3 24.43,21.81l0.56 1.24 20.31 0 0 -3.92c0,-9.88 -4.57,-16.36 -13.6,-19.28 -1.77,-0.58 -32.81,-1.03 -32.81,-0.49l0 0zm-18.77 2c-34.45,3.32 -51.17,40.65 -30.14,67.31 23.25,29.46 71.85,14.81 74.9,-22.58 2.03,-25.04 -20.04,-47.1 -44.76,-44.73zm7.83 10.36c19.85,2.81 32.22,24.22 24.67,42.69 -8.7,21.28 -36.61,26.73 -52.61,10.28 -21.21,-21.83 -2.51,-57.28 27.94,-52.97zm-8.43 4.91c-17.85,2.49 -28.15,20.47 -21.1,36.85 8.11,18.8 35.26,21.13 46.79,4.02 12.61,-18.73 -3.27,-43.99 -25.69,-40.87zm11.62 4.04c3.44,1.06 6.02,3.53 6.08,5.82 0.14,5.3 -10.58,5.13 -14.17,-0.22 -2.72,-4.06 2.13,-7.42 8.09,-5.6zm-15.16 40.32c3.27,0.68 8.13,3.62 8.13,4.92 0,3.02 -10.98,1.07 -14.18,-2.53 -2.21,-2.49 0.48,-3.55 6.05,-2.39zm58.04 11.31c-6.1,1.86 -4.92,10.23 1.44,10.21 6.47,-0.02 6.95,-9.42 0.53,-10.29 -0.65,-0.09 -1.54,-0.06 -1.97,0.08l0 0z"/>
 </g>
</svg>
